<?xml version="1.0" encoding="utf-8" standalone="yes"?>
<!DOCTYPE svg PUBLIC "-//W3C//DTD SVG 1.1//EN" "http://www.w3.org/Graphics/SVG/1.1/DTD/svg11.dtd">
<svg width="830" height="1284" viewBox="0 0 830 1284" style="fill:none;stroke:none;fill-rule:evenodd;clip-rule:evenodd;stroke-linecap:round;stroke-linejoin:round;stroke-miterlimit:1.5;" version="1.1" xmlns="http://www.w3.org/2000/svg" xmlns:xlink="http://www.w3.org/1999/xlink"><style id="fontImports">@import url("https://fonts.googleapis.com/css2?family=Roboto:wght@400;700&amp;display=block");</style><g id="items" style="isolation: isolate"><g id="blend" style="mix-blend-mode: normal"><g id="g-root-0.cu_sy_v493nd1j976kl-fill" data-item-order="-217364" transform="translate(200, 782.18994140625)"><g id="0.cu_sy_v493nd1j976kl-fill" stroke="none" fill="#f5f5f5"><g><path d="M 147.40803 14.4789C 142.49003 20.1896 136.99603 24.0555 136.99603 24.0555C 136.99603 24.0555 133.70803 21.742 129.94203 18.0507C 122.74803 20.0888 118.13803 22.4824 116.92203 25.1948C 112.27203 35.5648 148.80203 43.0948 219.75203 45.7848C 260.67203 47.3348 297.29203 51.0548 299.18203 59.3448C 301.18203 68.1448 259.26203 72.5051 213.52203 73.8051C 175.96803 74.8724 148.07803 77.6386 128.03703 81.537C 121.62003 94.5157 106.99603 104.8055 106.99603 104.8055C 106.99603 104.8055 100.22303 100.0399 93.87313 92.9044C 88.32713 96.382 85.46903 100.1438 84.80213 104.0348C 82.27723 118.765 98.75223 136.465 212.42203 141.805C 269.00203 144.463 319.17203 153.225 321.62203 165.015C 326.17203 178.225 286.75203 189.018 213.52203 191.865C 154.44203 194.162 109.10813 199.806 76.40253 208.325C 79.32693 213.573 80.99493 219.629 80.99493 226.079L 80.99603 226.079C 80.99603 252.618 44.99603 277.806 44.99603 277.806C 44.99603 277.806 23.75763 262.946 13.90663 244.028C 12.33453 246.98 11.26983 250.037 10.70213 253.195C 2.50293 298.805 65.99603 326.805 207.47203 339.905C 284.96103 347.08 359.15203 362.805 366.25203 393.975C 371.92103 418.867 345.23603 438.904 296.99603 451.755L 440.09603 451.755C 456.26703 433.863 462.99903 413.649 458.75303 391.945C 447.98203 336.905 383.25303 302.477 209.20203 293.395C 130.05203 289.265 77.02913 274.525 80.11213 255.165C 83.19513 235.805 125.19203 223.305 212.42203 217.785C 333.48203 210.124 377.89403 191.865 373.51203 164.995C 372.55403 159.116 368.91803 153.582 361.86603 148.566C 354.41003 156.572 346.99603 161.805 346.99603 161.805C 346.99603 161.805 329.11703 149.183 320.96403 133.158C 296.62803 127.851 262.62903 124.175 216.47203 122.715C 145.27303 120.463 122.18203 113.205 125.19203 104.0248C 128.18203 95.2148 168.59203 88.7448 218.00203 86.8248C 300.06203 83.6348 338.35203 72.7448 333.48203 59.3448C 332.50803 56.6646 330.06303 54.2077 326.07003 51.9754C 321.54503 56.8545 316.99603 60.0555 316.99603 60.0555C 316.99603 60.0555 307.31503 53.2438 302.15303 44.3476C 283.59003 40.6331 256.55603 38.0803 220.14203 36.7048C 178.50203 35.1348 149.36203 32.0148 151.49203 25.1948C 153.51703 18.7313 184.55403 10.0441 220.84503 10C 192.73903 10.0187 166.52103 11.5905 147.40803 14.4789Z"></path></g></g></g><g id="g-root-1.cu_sy_v493nd1j976km-fill" data-item-order="-217360" transform="translate(199, 962)"><g id="1.cu_sy_v493nd1j976km-fill" stroke="none" fill="#edf4ff"><g><path d="M 10.0011 46.2732C 10.0011 26.2399 26.0941 10 45.9463 10L 46.0537 10C 65.9059 10 81.9989 26.2399 81.9989 46.2732L 82 46.2732C 82 72.8129 46 98 46 98C 46 98 10 72.8129 10 46.2732L 10.0011 46.2732Z"></path></g></g></g><g id="g-root-2.cu_sy_hssla11j9785j-fill" data-item-order="-217356" transform="translate(507, 860)"><g id="2.cu_sy_hssla11j9785j-fill" stroke="none" fill="#e3fff2"><g><path d="M 10.0009 40.5024C 10.0009 23.6562 23.4117 10 39.9552 10L 40.0448 10C 56.5883 10 69.9991 23.6562 69.9991 40.5024L 70 40.5024C 70 62.8199 40 84 40 84C 40 84 10 62.8199 10 40.5024L 10.0009 40.5024Z"></path></g></g></g><g id="g-root-3.cu_sy_hssla11j9785k-fill" data-item-order="-217352" transform="translate(273, 818)"><g id="3.cu_sy_hssla11j9785k-fill" stroke="none" fill="#f4ffdc"><g><path d="M 10.0007 34.3195C 10.0007 20.8881 20.7294 10 33.9642 10L 34.0358 10C 47.2706 10 57.9993 20.8881 57.9993 34.3195L 58 34.3195C 58 52.1132 34 69 34 69C 34 69 10 52.1132 10 34.3195L 10.0007 34.3195Z"></path></g></g></g><g id="g-root-4.cu_sy_hssla11j9785l-fill" data-item-order="-217348" transform="translate(489, 788)"><g id="4.cu_sy_hssla11j9785l-fill" stroke="none" fill="#e8f9ff"><g><path d="M 10.0005 28.2396C 10.0005 18.1661 18.047 10 27.9731 10L 28.0269 10C 37.953 10 45.9995 18.1661 45.9995 28.2396L 46 28.2396C 46 41.5849 28 54.25 28 54.25C 28 54.25 10 41.5849 10 28.2396L 10.0005 28.2396Z"></path></g></g></g><g id="g-root-5.cu_sy_dcz35l1j978xu-fill" data-item-order="-217344" transform="translate(309, 752)"><g id="5.cu_sy_dcz35l1j978xu-fill" stroke="none" fill="#f3f0ff"><g><path d="M 10.0005 28.2396C 10.0005 18.1661 18.047 10 27.9731 10L 28.0269 10C 37.953 10 45.9995 18.1661 45.9995 28.2396L 46 28.2396C 46 41.5849 28 54.25 28 54.25C 28 54.25 10 41.5849 10 28.2396L 10.0005 28.2396Z"></path></g></g></g><g id="g-root-tx_streamli_141522h1j977yd-fill" data-item-order="0" transform="translate(183, 602)"><g id="tx_streamli_141522h1j977yd-fill" stroke="none" fill="#484848"><g><text style="font: 20px Roboto, sans-serif; white-space: pre;" font-size="20px" font-family="Roboto, sans-serif"><tspan x="11.79" y="34" dominant-baseline="ideographic">Streamlining Warehouse and Delivery Management</tspan></text></g></g></g><g id="g-root-tx_effortle_141522h1j977yc-fill" data-item-order="0" transform="translate(171, 650)"><g id="tx_effortle_141522h1j977yc-fill" stroke="none" fill="#7f64ea"><g><text style="font: bold 20px Roboto, sans-serif; white-space: pre;" font-weight="bold" font-size="20px" font-family="Roboto, sans-serif"><tspan x="28.05" y="34" dominant-baseline="ideographic">Effortless </tspan><tspan x="19.91" y="58" dominant-baseline="ideographic">Fulfillment</tspan></text></g></g></g><g id="g-root-tx_achievin_1lrslh51j978qv-fill" data-item-order="0" transform="translate(87, 710)"><g id="tx_achievin_1lrslh51j978qv-fill" stroke="none" fill="#484848"><g><text style="font: 20px Roboto, sans-serif; white-space: pre;" font-size="20px" font-family="Roboto, sans-serif"><tspan x="23" y="34" dominant-baseline="ideographic">Achieving seamless </tspan><tspan x="59.11" y="58" dominant-baseline="ideographic">order fulfillment</tspan></text></g></g></g><g id="g-root-tx_simplify_18gyk6x1j97763-fill" data-item-order="0" transform="translate(555, 710)"><g id="tx_simplify_18gyk6x1j97763-fill" stroke="none" fill="#1eabda"><g><text style="font: bold 20px Roboto, sans-serif; white-space: pre;" font-weight="bold" font-size="20px" font-family="Roboto, sans-serif"><tspan x="12" y="34" dominant-baseline="ideographic">Simplify Logistics</tspan></text></g></g></g><g id="g-root-full_1cynkqh1j9fmyp-fill" data-item-order="0" transform="translate(315, 758)"></g><g id="g-root-tx_makinglo_1q7m3ll1j977ym-fill" data-item-order="0" transform="translate(555, 746)"><g id="tx_makinglo_1q7m3ll1j977ym-fill" stroke="none" fill="#484848"><g><text style="font: 20px Roboto, sans-serif; white-space: pre;" font-size="20px" font-family="Roboto, sans-serif"><tspan x="12" y="34" dominant-baseline="ideographic">Making logistics </tspan><tspan x="12" y="58" dominant-baseline="ideographic">management easier</tspan></text></g></g></g><g id="g-root-tx_recogniz_dcz35l1j978xv-fill" data-item-order="0" transform="translate(15, 1022)"><g id="tx_recogniz_dcz35l1j978xv-fill" stroke="none" fill="#484848"><g><text style="font: 20px Roboto, sans-serif; white-space: pre;" font-size="20px" font-family="Roboto, sans-serif"><tspan x="43.08" y="34" dominant-baseline="ideographic">Recognizing </tspan><tspan x="14.42" y="58" dominant-baseline="ideographic">inefficiencies in </tspan><tspan x="57.38" y="82" dominant-baseline="ideographic">operations</tspan></text></g></g></g><g id="g-root-tx_streamli_18gyk6x1j97762-fill" data-item-order="0" transform="translate(135, 806)"><g id="tx_streamli_18gyk6x1j97762-fill" stroke="none" fill="#92bd39"><g><text style="font: bold 20px Roboto, sans-serif; white-space: pre;" font-weight="bold" font-size="20px" font-family="Roboto, sans-serif"><tspan x="18.36" y="34" dominant-baseline="ideographic">Streamline </tspan><tspan x="17.53" y="58" dominant-baseline="ideographic">Operations</tspan></text></g></g></g><g id="g-root-truc_dkgvcp1j9a13i-fill" data-item-order="0" transform="translate(495, 794)"></g><g id="g-root-1_2rm491j95ukq-fill" data-item-order="0" transform="translate(282, 827)"></g><g id="g-root-tx_enhancin_251vd1j977d1-fill" data-item-order="0" transform="translate(51, 866)"><g id="tx_enhancin_251vd1j977d1-fill" stroke="none" fill="#484848"><g><text style="font: 20px Roboto, sans-serif; white-space: pre;" font-size="20px" font-family="Roboto, sans-serif"><tspan x="17.58" y="34" dominant-baseline="ideographic">Enhancing efficiency </tspan><tspan x="87.36" y="58" dominant-baseline="ideographic">in processes</tspan></text></g></g></g><g id="g-root-1_1lux22h1j907wh-fill" data-item-order="0" transform="translate(519, 872)"></g><g id="g-root-tx_implemen_1hclkft1j976dd-fill" data-item-order="0" transform="translate(603, 878)"><g id="tx_implemen_1hclkft1j976dd-fill" stroke="none" fill="#3cc583"><g><text style="font: bold 20px Roboto, sans-serif; white-space: pre;" font-weight="bold" font-size="20px" font-family="Roboto, sans-serif"><tspan x="12" y="34" dominant-baseline="ideographic">Implement Apps</tspan></text></g></g></g><g id="g-root-tx_deployin_251vd1j977d0-fill" data-item-order="0" transform="translate(603, 914)"><g id="tx_deployin_251vd1j977d0-fill" stroke="none" fill="#484848"><g><text style="font: 20px Roboto, sans-serif; white-space: pre;" font-size="20px" font-family="Roboto, sans-serif"><tspan x="12" y="34" dominant-baseline="ideographic">Deploying dedicated </tspan><tspan x="12" y="58" dominant-baseline="ideographic">management </tspan><tspan x="12" y="82" dominant-baseline="ideographic">applications</tspan></text></g></g></g><g id="g-root-tx_identify_1lrslh51j978qw-fill" data-item-order="0" transform="translate(27, 986)"><g id="tx_identify_1lrslh51j978qw-fill" stroke="none" fill="#4e88e7"><g><text style="font: bold 20px Roboto, sans-serif; white-space: pre;" font-weight="bold" font-size="20px" font-family="Roboto, sans-serif"><tspan x="19.63" y="34" dominant-baseline="ideographic">Identify Need</tspan></text></g></g></g><g id="g-root-2_4hyjzt1j9fnk6-fill" data-item-order="0" transform="translate(211, 974)"></g><g id="g-root-tx_implemen_1lu9pdl1hl89vw-fill" data-item-order="0" transform="translate(603, -10)"><g id="tx_implemen_1lu9pdl1hl89vw-fill" stroke="none" fill="#484848"><g><text style="font: 20px Roboto, sans-serif; white-space: pre;" font-size="20px" font-family="Roboto, sans-serif"><tspan x="12" y="34" dominant-baseline="ideographic">Implement </tspan><tspan x="12" y="58" dominant-baseline="ideographic">Automation</tspan></text></g></g></g><g id="g-root-0.cu_sy_v493nd1j976kl-stroke" data-item-order="-217364" transform="translate(200, 782.18994140625)"><g id="0.cu_sy_v493nd1j976kl-stroke" fill="none" stroke-linecap="round" stroke-linejoin="round" stroke-miterlimit="4" stroke="#969696" stroke-width="2"><g><path d="M 221.12223 10C 221.02963 10 220.93713 10.0001 220.84463 10.0002C 221.01373 10.0001 221.18303 10 221.35223 10L 221.12223 10ZM 296.99603 451.7548C 345.23553 438.9047 371.92143 418.867 366.25183 393.975C 359.15223 362.8052 284.96103 347.0797 207.47223 339.905C 65.99603 326.8057 2.50293 298.8052 10.70213 253.195C 11.26403 250.0691 12.31283 247.0423 13.85853 244.1187M 440.09633 451.7548C 456.26723 433.8635 462.99943 413.6489 458.75253 391.945C 447.98253 336.9049 383.25253 302.4768 209.20223 293.395C 130.05223 289.265 77.02913 274.5248 80.11213 255.165C 83.19513 235.8052 125.19223 223.3052 212.42223 217.785C 333.48223 210.1239 377.89403 191.865 373.51223 164.995C 372.55173 159.1048 368.90363 153.5605 361.82493 148.5367M 129.99603 18.0357C 122.77073 20.0772 118.14133 22.4759 116.92213 25.195C 112.27213 35.565 148.80223 43.095 219.75223 45.785C 260.67223 47.335 297.29223 51.055 299.18223 59.345C 301.18223 68.145 259.26233 72.5052 213.52223 73.8052C 175.94193 74.8733 148.04003 77.6425 127.99603 81.5452M 147.49603 14.4657C 166.60113 11.5859 192.78233 10.0188 220.84463 10.0002C 184.55383 10.0443 153.51693 18.7315 151.49213 25.195C 149.36213 32.015 178.50233 35.135 220.14223 36.705C 256.59343 38.0818 283.64533 40.6385 302.20913 44.3591M 325.99603 51.9345C 330.03313 54.1777 332.50203 56.6483 333.48223 59.345C 338.35223 72.745 300.06223 83.635 218.00223 86.825C 168.59233 88.745 128.18213 95.215 125.19213 104.025C 122.18213 113.205 145.27343 120.463 216.47223 122.715C 262.64963 124.1756 296.65843 127.8547 320.99603 133.1656M 93.81503 92.9411C 88.30723 96.4085 85.46673 100.1576 84.80213 104.035C 82.27723 118.7648 98.75223 136.4649 212.42223 141.8052C 269.00223 144.4634 319.17223 153.225 321.62223 165.015C 326.17223 178.225 286.75223 189.018 213.52223 191.865C 154.48723 194.1601 109.17713 199.7972 76.47723 208.3057M 412.331358 418.46543C 410.691358 422.59543 408.351358 426.72543 405.361358 430.73543M 414.251358 394.08543C 415.201358 398.08543 415.531358 402.14543 415.231358 406.17543M 401.761358 371.32543C 404.931358 374.90543 407.601358 378.63543 409.681358 382.40543M 377.021358 352.49543C 382.031358 355.50543 386.661358 358.69543 390.761358 361.97543M 342.641358 337.46543C 349.041358 339.79543 355.171358 342.31543 360.871358 344.97543M 301.231358 325.74543C 308.581358 327.31543 315.791358 329.09543 322.661358 331.04543M 255.161358 318.80583C 263.091358 319.58583 270.981358 320.44543 278.641358 321.61543M 206.741358 314.80583C 206.741358 314.80583 222.999258 315.70683 231.121358 316.08583M 158.091358 310.84543C 165.861358 311.66543 173.931358 312.30543 182.071358 312.73543M 115.481358 303.68543C 122.101358 305.21543 129.131358 306.60543 136.381358 307.79543M 79.741358 293.80543C 84.641358 295.86543 90.041358 297.83543 95.811358 299.64543M 56.361358 280.38543C 59.221358 282.76543 62.641358 285.10543 66.531358 287.33543M 111.271358 215.73543C 105.841358 217.10543 100.611358 218.60543 95.711358 220.18543M 146.161358 208.92543C 140.021358 209.81543 133.971358 210.83543 128.171358 211.96543M 184.401358 205.11543C 177.871358 205.49543 171.341358 206.00543 164.991358 206.63543M 223.721358 203.18543L 204.111358 204.37543M 261.561358 200.83543C 255.531358 201.47543 249.271358 201.99543 242.971358 202.38543M 295.131358 195.69543C 290.051358 196.75543 284.651358 197.73543 279.081358 198.58543M 322.681358 188.31543C 318.951358 189.69543 313.831358 191.01543 309.421358 192.24543M 339.361358 180.42543C 337.221358 181.98543 334.651358 183.53543 331.711358 185.00543M 347.241358 170.81543C 346.751358 172.43543 345.851358 174.06543 344.551358 175.66543M 345.431358 161.24543C 346.271358 162.47543 346.891358 163.73543 347.261358 164.99543C 347.361358 165.32543 347.441358 165.65543 347.501358 165.97543M 316.401358 144.73543C 320.011358 145.88543 323.391358 147.10543 326.441358 148.37543M 291.981358 138.69543C 296.461358 139.54543 300.791358 140.48543 304.851358 141.49543M 263.161358 134.54543C 268.221358 135.06543 273.221358 135.68543 278.011358 136.37543M 231.661358 132.45543C 237.031358 132.62543 242.401358 132.88543 247.631358 133.23543M 199.011358 131.92543C 204.411358 132.11543 209.941358 132.20543 215.451358 132.21543M 167.681358 129.75543C 172.611358 130.28543 177.751358 130.73543 182.961358 131.09543M 140.681358 125.67543C 144.691358 126.49543 149.011358 127.25543 153.501358 127.93543M 120.061358 120.08543C 122.871358 121.11543 126.041358 122.10543 129.461358 123.03543M 107.231358 113.52543C 108.681358 114.67543 110.491358 115.80543 112.621358 116.89543M 102.811358 106.53543C 102.851358 107.70543 103.231358 108.89543 103.961358 110.04543M 135.321358 87.96543C 131.951358 88.76543 128.751358 89.61543 125.841358 90.50543M 157.811358 83.82543C 153.751358 84.39543 149.791358 85.04543 146.041358 85.72543M 183.751358 81.10543C 179.231358 81.43543 174.761358 81.82543 170.441358 82.27543M 211.601358 79.93543C 206.901358 79.99543 202.171358 80.12543 197.551358 80.32543M 239.351358 79.44543C 234.841358 79.64543 230.221358 79.77543 225.601358 79.84543M 265.261358 77.51543C 261.221358 77.95543 256.981358 78.33543 252.671358 78.65543M 287.291358 74.26543C 284.041358 74.90543 280.541358 75.49543 276.881358 76.03543M 303.791358 69.99543C 301.571358 70.76543 299.061358 71.52543 296.311358 72.23543M 313.671358 65.08543C 312.611358 65.93543 311.241358 66.78543 309.601358 67.59543M 316.461358 59.92543C 316.581358 60.78543 316.411358 61.65543 315.951358 62.50543M 302.041358 50.36543C 304.241358 51.06543 306.231358 51.80543 307.951358 52.56543M 286.351358 46.55543C 289.341358 47.11543 292.181358 47.71543 294.791358 48.35543M 266.541358 43.69543C 270.101358 44.08543 273.581358 44.52543 276.881358 44.99543M 243.891358 41.92543C 247.821358 42.12543 251.721358 42.37543 255.491358 42.66543M 219.791358 41.33543L 219.941358 41.33543C 223.951358 41.33543 227.981358 41.38543 231.931358 41.47543M 195.411358 40.72543C 199.341358 40.92543 203.391358 41.07543 207.461358 41.18543M 173.141358 38.95543C 176.571358 39.33543 180.181358 39.68543 183.891358 39.97543M 154.761358 36.18543C 157.421358 36.71543 160.311358 37.21543 163.371358 37.67543M 141.591358 32.68543C 143.291358 33.31543 145.271358 33.92543 147.461358 34.50543M 134.491358 28.74543C 135.141358 29.42543 136.071358 30.09543 137.251358 30.75543M 133.741358 24.66543C 133.641358 24.83543 133.561358 25.00543 133.491358 25.18543C 133.301358 25.68543 133.241358 26.19543 133.331358 26.70543M 149.801358 17.26543C 147.591358 17.80543 145.571358 18.36543 143.781358 18.94543M 165.121358 14.39543C 162.261358 14.81543 159.511358 15.26543 156.961358 15.73543M 183.861358 12.31543C 180.531358 12.58543 177.251358 12.90543 174.131358 13.25543M 394.261358 442.71543C 390.768358 445.82743 386.821458 448.88903 382.495858 451.84013"></path></g></g></g><g id="g-root-1.cu_sy_v493nd1j976km-stroke" data-item-order="-217360" transform="translate(199, 962)"><g id="1.cu_sy_v493nd1j976km-stroke" fill="none" stroke-linecap="round" stroke-linejoin="round" stroke-miterlimit="4" stroke="#4e88e7" stroke-width="2"><g><path d="M 10.0011 46.2732C 10.0011 26.2399 26.0941 10 45.9463 10L 46.0537 10C 65.9059 10 81.9989 26.2399 81.9989 46.2732L 82 46.2732C 82 72.8129 46 98 46 98C 46 98 10 72.8129 10 46.2732L 10.0011 46.2732Z"></path></g></g></g><g id="g-root-2.cu_sy_hssla11j9785j-stroke" data-item-order="-217356" transform="translate(507, 860)"><g id="2.cu_sy_hssla11j9785j-stroke" fill="none" stroke-linecap="round" stroke-linejoin="round" stroke-miterlimit="4" stroke="#3cc583" stroke-width="2"><g><path d="M 10 40.5024C 10 23.6562 23.4109 10 39.9544 10L 40.0439 10C 56.5874 10 69.9982 23.6562 69.9982 40.5024C 69.9982 62.8199 39.9991 84 39.9991 84C 39.9991 84 10 62.8199 10 40.5024Z"></path></g></g></g><g id="g-root-3.cu_sy_hssla11j9785k-stroke" data-item-order="-217352" transform="translate(273, 818)"><g id="3.cu_sy_hssla11j9785k-stroke" fill="none" stroke-linecap="round" stroke-linejoin="round" stroke-miterlimit="4" stroke="#92bd39" stroke-width="2"><g><path d="M 10 34.3195C 10 20.8881 20.7287 10 33.9635 10L 34.0351 10C 47.2699 10 57.9986 20.8881 57.9986 34.3195C 57.9986 52.1132 33.9993 69 33.9993 69C 33.9993 69 10 52.1132 10 34.3195Z"></path></g></g></g><g id="g-root-4.cu_sy_hssla11j9785l-stroke" data-item-order="-217348" transform="translate(489, 788)"><g id="4.cu_sy_hssla11j9785l-stroke" fill="none" stroke-linecap="round" stroke-linejoin="round" stroke-miterlimit="4" stroke="#1eabda" stroke-width="2"><g><path d="M 10 28.2396C 10 18.1661 18.0465 10 27.9726 10L 28.0263 10C 37.9524 10 45.9989 18.1661 45.9989 28.2396C 45.9989 41.5849 27.9995 54.25 27.9995 54.25C 27.9995 54.25 10 41.5849 10 28.2396Z"></path></g></g></g><g id="g-root-5.cu_sy_dcz35l1j978xu-stroke" data-item-order="-217344" transform="translate(309, 752)"><g id="5.cu_sy_dcz35l1j978xu-stroke" fill="none" stroke-linecap="round" stroke-linejoin="round" stroke-miterlimit="4" stroke="#7f64ea" stroke-width="2"><g><path d="M 10 28.2396C 10 18.1661 18.0465 10 27.9726 10L 28.0263 10C 37.9524 10 45.9989 18.1661 45.9989 28.2396C 45.9989 41.5849 27.9995 54.25 27.9995 54.25C 27.9995 54.25 10 41.5849 10 28.2396Z"></path></g></g></g><g id="g-root-tx_streamli_141522h1j977yd-stroke" data-item-order="0" transform="translate(183, 602)"></g><g id="g-root-tx_effortle_141522h1j977yc-stroke" data-item-order="0" transform="translate(171, 650)"></g><g id="g-root-tx_achievin_1lrslh51j978qv-stroke" data-item-order="0" transform="translate(87, 710)"></g><g id="g-root-tx_simplify_18gyk6x1j97763-stroke" data-item-order="0" transform="translate(555, 710)"></g><g id="g-root-full_1cynkqh1j9fmyp-stroke" data-item-order="0" transform="translate(315, 758)"><g id="full_1cynkqh1j9fmyp-stroke" fill="none" stroke-linecap="round" stroke-linejoin="round" stroke-miterlimit="4" stroke="#7f64ea" stroke-width="2"><g><path d="M 13.921 30.759C 13.921 31.587428 14.592573 32.259001 15.421 32.259001C 16.249427 32.259001 16.921 31.587428 16.921 30.759001C 16.921 29.930573 16.249427 29.259001 15.421 29.259001C 14.592573 29.259001 13.921 29.930573 13.921 30.759001M 24.921 30.759C 24.921 31.587428 25.592573 32.259001 26.421 32.259001C 27.249428 32.259001 27.921 31.587428 27.921 30.759001C 27.921 29.930573 27.249428 29.259001 26.421 29.259001C 25.592573 29.259001 24.921 29.930573 24.921 30.759001M 33.421 12.259L 30.821 12.259C 30.588711 12.258921 30.386962 12.41883 30.334 12.645L 26.421 29.259L 15.421 29.259M 26.921 27.259L 14.281 27.259C 14.06588 27.258837 13.874978 27.121097 13.807 26.917L 11.14 18.917C 11.089184 18.76443 11.114851 18.596731 11.208975 18.466344C 11.303099 18.335958 11.45419 18.2588 11.615 18.259L 28.983 18.259M 20.921 18.259L 24.571 14.609C 24.765422 14.418429 25.076578 14.418429 25.271 14.609L 29 18.259M 15.921 18.259L 13.13 12.036C 13.074956 11.913215 12.972746 11.817798 12.846471 11.771315C 12.720196 11.724832 12.580516 11.731208 12.459 11.789L 10.859 12.548C 10.613081 12.665306 10.506356 12.957911 10.619 13.206L 12.919 18.259M 16.921 18.259L 16.921 15.759C 16.921 15.482858 17.144858 15.259 17.421 15.259L 21.421 15.259"></path></g></g></g><g id="g-root-tx_makinglo_1q7m3ll1j977ym-stroke" data-item-order="0" transform="translate(555, 746)"></g><g id="g-root-tx_recogniz_dcz35l1j978xv-stroke" data-item-order="0" transform="translate(15, 1022)"></g><g id="g-root-tx_streamli_18gyk6x1j97762-stroke" data-item-order="0" transform="translate(135, 806)"></g><g id="g-root-truc_dkgvcp1j9a13i-stroke" data-item-order="0" transform="translate(495, 794)"><g id="truc_dkgvcp1j9a13i-stroke" fill="none" stroke-linecap="round" stroke-linejoin="round" stroke-miterlimit="4" stroke="#1eabda" stroke-width="2"><g><path d="M 16.491 23.302L 16.491 17.802L 18.241 17.802M 18.241 20.802L 16.491 20.802M 27.552999 17.802L 25.803 17.802L 25.803 23.302L 27.552999 23.302M 27.553 20.802L 25.803 20.802M 31.740999 17.802L 29.990999 17.802L 29.990999 23.302L 31.740999 23.302M 31.741 20.802L 29.991 20.802M 20.866 23.3L 20.866 17.8L 22.116 17.8C 22.806356 17.8 23.366 18.359644 23.366 19.05C 23.366 19.740356 22.806356 20.3 22.116 20.3L 20.866 20.3M 20.866 20.3L 21.366 20.3C 22.470569 20.3 23.366 21.195431 23.366 22.3L 23.366 23.3M 13 29.258L 11.522 29.258C 10.957793 29.257449 10.500551 28.800207 10.5 28.236L 10.5 23.2C 10.451122 22.505475 10.804949 21.84448 11.41 21.499999C 12.217 21.2 13.567 20.829 13.567 20.829L 15.356 14.8C 15.591796 13.688029 16.524081 12.859106 17.656 12.755L 31.456 12.755C 32.58526 12.755 33.500552 13.670739 33.5 14.8L 33.5 28.236C 33.499449 28.800207 33.042207 29.257449 32.478001 29.258L 31 29.258M 13 28.747C 13 30.127712 14.119288 31.247 15.5 31.247C 16.880712 31.247 18 30.127712 18 28.747C 18 27.366288 16.880712 26.247 15.5 26.247C 14.119288 26.247 13 27.366288 13 28.747M 26 28.747C 26 30.127712 27.119288 31.247 28.5 31.247C 29.880712 31.247 31 30.127712 31 28.747C 31 27.366288 29.880712 26.247 28.5 26.247C 27.119288 26.247 26 27.366288 26 28.747M 18.112 29.258L 25.888 29.258M 10.5 24.658L 12.544 24.658"></path></g></g></g><g id="g-root-1_2rm491j95ukq-stroke" data-item-order="0" transform="translate(282, 827)"><g id="1_2rm491j95ukq-stroke" fill="none" stroke-linecap="round" stroke-linejoin="round" stroke-miterlimit="4" stroke="#92bd39" stroke-width="2"><g><path d="M 14.7775 14.45875C 14.776908 16.576488 16.493509 18.29357 18.61125 18.29357C 20.728989 18.29357 22.445591 16.576488 22.445 14.45875C 22.445591 12.34101 20.728989 10.623929 18.61125 10.623929C 16.493509 10.623929 14.776908 12.34101 14.7775 14.45875M 14.7775 35.541252C 14.776908 37.658989 16.493509 39.376068 18.61125 39.376068C 20.728989 39.376068 22.445591 37.658989 22.445 35.541248C 22.445591 33.423508 20.728989 31.706429 18.61125 31.706429C 16.493509 31.706429 14.776908 33.423508 14.7775 35.541248M 27.555 26.91625C 27.554407 29.033989 29.271009 30.751068 31.388748 30.751068C 33.506489 30.751068 35.223091 29.033989 35.2225 26.916248C 35.223091 24.79851 33.506489 23.081429 31.388748 23.081429C 29.271009 23.081429 27.554407 24.79851 27.554998 26.916248M 18.61125 18.29125L 18.61125 31.708752M 18.61125 19.25C 19.25 25 22.445 26.91625 27.555 26.91625"></path></g></g></g><g id="g-root-tx_enhancin_251vd1j977d1-stroke" data-item-order="0" transform="translate(51, 866)"></g><g id="g-root-1_1lux22h1j907wh-stroke" data-item-order="0" transform="translate(519, 872)"><g id="1_1lux22h1j907wh-stroke" fill="none" stroke-linecap="round" stroke-linejoin="round" stroke-miterlimit="4" stroke="#3cc583" stroke-width="2"><g><path d="M 10.75 17.5C 10.75 21.227922 13.772079 24.25 17.5 24.25C 21.227922 24.25 24.25 21.227922 24.25 17.5C 24.25 13.772079 21.227922 10.75 17.5 10.75C 13.772079 10.75 10.75 13.772079 10.75 17.5M 31.75 17.5C 31.75 21.227922 34.772079 24.25 38.5 24.25C 42.227921 24.25 45.25 21.227922 45.25 17.5C 45.25 13.772079 42.227921 10.75 38.5 10.75C 34.772079 10.75 31.75 13.772079 31.75 17.5M 10.75 38.5C 10.75 42.227921 13.772079 45.25 17.5 45.25C 21.227922 45.25 24.25 42.227921 24.25 38.5C 24.25 34.772079 21.227922 31.75 17.5 31.75C 13.772079 31.75 10.75 34.772079 10.75 38.5M 31.75 38.5C 31.75 42.227921 34.772079 45.25 38.5 45.25C 42.227921 45.25 45.25 42.227921 45.25 38.5C 45.25 34.772079 42.227921 31.75 38.5 31.75C 34.772079 31.75 31.75 34.772079 31.75 38.5"></path></g></g></g><g id="g-root-tx_implemen_1hclkft1j976dd-stroke" data-item-order="0" transform="translate(603, 878)"></g><g id="g-root-tx_deployin_251vd1j977d0-stroke" data-item-order="0" transform="translate(603, 914)"></g><g id="g-root-tx_identify_1lrslh51j978qw-stroke" data-item-order="0" transform="translate(27, 986)"></g><g id="g-root-2_4hyjzt1j9fnk6-stroke" data-item-order="0" transform="translate(211, 974)"><g id="2_4hyjzt1j9fnk6-stroke" fill="none" stroke-linecap="round" stroke-linejoin="round" stroke-miterlimit="4" stroke="#4e88e7" stroke-width="2"><g><path d="M 56.5 51.537998C 56.5 54.299423 54.261425 56.538002 51.5 56.538002L 16.5 56.537998C 13.738577 56.538002 11.5 54.299423 11.5 51.538002C 11.5 48.776577 13.738577 46.538002 16.5 46.538002L 51.5 46.537998C 54.261425 46.538002 56.5 48.776577 56.5 51.538002ZM 18.32 36.302002L 29.827999 36.302002L 29.827999 46.538002L 18.32 46.538002ZM 18 51.537998C 18 52.090286 18.447716 52.537998 19 52.537998C 19.552284 52.537998 20 52.090286 20 51.537998C 20 50.985714 19.552284 50.537998 19 50.537998C 18.447716 50.537998 18 50.985714 18 51.537998M 28 51.537998C 28 52.090286 28.447716 52.537998 29 52.537998C 29.552284 52.537998 30 52.090286 30 51.537998C 30 50.985714 29.552284 50.537998 29 50.537998C 28.447716 50.537998 28 50.985714 28 51.537998M 38.084 51.537998C 38.084 52.090286 38.531715 52.537998 39.084 52.537998C 39.636284 52.537998 40.084 52.090286 40.084 51.537998C 40.084 50.985714 39.636284 50.537998 39.084 50.537998C 38.531715 50.537998 38.084 50.985714 38.084 51.537998M 48.084 51.537998C 48.084 52.090286 48.531715 52.537998 49.084 52.537998C 49.636284 52.537998 50.084 52.090286 50.084 51.537998C 50.084 50.985714 49.636284 50.537998 49.084 50.537998C 48.531715 50.537998 48.084 50.985714 48.084 51.537998M 24.074001 40.388L 24.074001 36.302002M 39.084 36.302002L 50.591999 36.302002L 50.591999 46.538002L 39.084 46.538002ZM 44.838001 40.388L 44.838001 36.302002M 54.543999 21.439999L 44.563999 11.462L 44.563999 17.948L 16.048 17.948L 16.048 25.262001L 44.563999 25.262001L 44.563999 31.42L 54.543999 21.439999Z"></path></g></g></g><g id="g-root-tx_implemen_1lu9pdl1hl89vw-stroke" data-item-order="0" transform="translate(603, -10)"></g></g></g></svg>