<svg xmlns="http://www.w3.org/2000/svg" enable-background="new 0 0 68 68" viewBox="0 0 68 68" id="BusinessWebsite">
  <polyline fill="#ffffff" points="26.326 55.948 51.853 41.22 64.229 48.389 64.23 51.237 38.718 65.981 26.341 58.787 26.326 55.964" class="colorffffff svgShape"></polyline>
  <polygon fill="#f4f4f4" points="64.229 48.39 64.229 51.235 45.944 61.8 47.915 43.496 51.858 41.224" class="colorf4f4f4 svgShape"></polygon>
  <path fill="#c9e4d4" d="M49.1613846 54.8586121c-1.8336945 1.0595093-5.2239723.8149757-7.5548439-.5378113-2.3226585-1.3529892-2.7301483-3.317009-.8964539-4.3765182 1.8418541-1.0676651 5.232132-.8231354 7.5629539.5379105C50.6039085 51.8269234 51.0032387 53.790947 49.1613846 54.8586121zM52.7880363 49.1048317c-.6030731.3504868-1.5647392.3504868-2.1597061.0081596-.5949135-.3503838-.5949135-.9045105.0081596-1.2550964.5949173-.3422241 1.5647392-.3422241 2.1597061.0081596C53.3911133 48.2084808 53.3911133 48.7626076 52.7880363 49.1048317zM39.5854187 56.7412529c-.6030769.3340683-1.5647392.3340683-2.1515503 0-.6030731-.3586388-.6030731-.9210243 0-1.2550926.6030731-.3423271 1.5647888-.3423271 2.1678658 0C40.1884918 55.8202286 40.1884918 56.3826141 39.5854187 56.7412529z" class="colordae4c9 svgShape"></path>
  <path fill="#ffffff" d="M47.6862793,51.9654083c-0.9188194-0.5360603-1.9055138-0.2916832-2.9094696,0.0734177
			l-0.0163155,0.0081596l-1.2794685-0.7416573c0.3911743-0.1712112,0.8394012-0.2770653,1.3528404-0.3260117l-0.1792717-0.6193886
			c-0.7498131,0.0734215-1.3854713,0.2526894-1.9070663,0.521595l-0.3504333-0.1955833L41.9651337,50.93853l0.3341675,0.1874275
			c-0.78508,0.5235138-0.9169655,1.1803627-0.1059494,1.6462669c0.9177322,0.5244865,1.8197021,0.3044662,2.8360977-0.0651627
			l1.3284149,0.7661285c-0.4808083,0.1955872-1.0594559,0.3014412-1.7684822,0.3340721l0.0977936,0.6275444
			c0.9290848-0.0407867,1.7277451-0.2118988,2.4123459-0.5378113l0.4889641,0.2851219l0.4319115-0.2525902l-0.4808083-0.2770653
			C48.3629837,53.0981216,48.511734,52.4540176,47.6862793,51.9654083z M42.9349556,52.2507286
			c-0.2744102-0.1678658-0.3081207-0.424221,0.0896873-0.7009659l1.1735153,0.6764908
			C43.709549,52.3728447,43.3385849,52.4631119,42.9349556,52.2507286z M46.8060913,53.2286606l-1.2224617-0.7090263
			c0.4656219-0.1330147,0.9155312-0.2748375,1.3365707-0.0406876
			C47.2029686,52.6484146,47.2468491,52.9030914,46.8060913,53.2286606z" class="colorffffff svgShape"></path>
  <path fill="#d9dfdc" d="M41.543457,59.4981461c-0.043457,0-0.0869141-0.0112305-0.1259766-0.0341797
			c-1.109375-0.6455078-3.0805664-0.6455078-4.1899414,0c-0.078125,0.0458984-0.1738281,0.0454102-0.2519531,0.0004883
			l-4.0244141-2.3417969c-0.0771484-0.0454102-0.1245117-0.128418-0.1240234-0.2177734
			c0.0004883-0.0898438,0.0488281-0.171875,0.1269531-0.2163086c0.5170898-0.2924805,0.8027344-0.6699219,0.8032227-1.0629883
			c0.0009766-0.3916016-0.2797852-0.7680664-0.7910156-1.0595703c-0.0776367-0.0444336-0.1254883-0.1269531-0.1259766-0.2167969
			c-0.0004883-0.0893555,0.0473633-0.171875,0.125-0.2167969l15.90625-9.2368164
			c0.078125-0.0458984,0.1738281-0.0458984,0.2519531,0c1.1088867,0.6450195,3.0673828,0.6469727,4.1918945-0.0009766
			c0.078125-0.0439453,0.1733398-0.043457,0.2495117,0.0004883l4.0244141,2.3286133
			c0.0776367,0.0444336,0.125,0.1274414,0.125,0.2163086c0,0.0893555-0.0478516,0.171875-0.125,0.2167969
			c-0.5229492,0.3007813-0.8105469,0.6831055-0.8105469,1.0761719c0,0.3881836,0.2832031,0.765625,0.7973633,1.0615234
			c0.0771484,0.0449219,0.1245117,0.1269531,0.125,0.2158203c0.0004883,0.0893555-0.046875,0.171875-0.1240234,0.2167969
			l-8.2080078,4.7949219l-7.7006836,4.4423828C41.6298828,59.4869156,41.5864258,59.4981461,41.543457,59.4981461z
			 M39.3227539,58.4629898c0.8242188,0,1.6054688,0.1762695,2.2182617,0.4980469l7.5771484-4.371582l7.862793-4.5932617
			c-0.4555664-0.3569336-0.7021484-0.7954102-0.7021484-1.2631836c0-0.472168,0.2504883-0.9160156,0.7133789-1.2773438
			l-3.5556641-2.0576172c-1.2363281,0.6445313-3.2109375,0.6435547-4.4355469,0.0009766L33.5625,54.364357
			c0.4521484,0.3540039,0.6958008,0.7919922,0.6948242,1.262207c-0.0009766,0.4716797-0.2490234,0.9111328-0.7070313,1.2661133
			l3.5546875,2.0678711C37.7172852,58.6392593,38.4985352,58.4629898,39.3227539,58.4629898z" class="colord9dadf svgShape"></path>
  <path fill="#f4f4f4" d="M39.6314964,43.1944046c0.0126419,0.8642998-0.5937157,1.8866882-1.3510551,2.3404465
			L9.4620619,62.1751137c-0.0095234,0-0.0095234,0-0.0095234,0v-0.009407l1.8077145-4.3194695l1.5602789-3.7581635
			l1.7125959-4.1289978l5.3849897-12.9203072l0.0666065-0.1616669l1.3224831-3.1778145l7.0404453-16.9162102l1.8077145-4.3383989
			l9.3714275-5.1186242h0.0095253L39.6314964,43.1944046z" class="colorf4f4f4 svgShape"></path>
  <polygon fill="#93f9be" points="36.778 24.738 9.464 40.365 9.452 34.284 13.5 34.443 17.571 30.602 22.219 30.746 26.397 24.713 31.274 24.701 36.69 18.715" class="colorf9d893 svgShape"></polygon>
  <path fill="#d9dfdc" d="M38.1613121,3.8297987c0.7503471-0.4332135,1.3597336-0.09179,1.3621788,0.7704172l0.0069008,2.4341164
		L6.5048256,26.1016521l-0.0069008-2.4341164c-0.0024443-0.8622074,0.5979128-1.9020767,1.3482647-2.3352928L38.1613121,3.8297987z" class="colord9dadf svgShape"></path>
  <path fill="#3eef89" d="M9.7910738 22.3566227c0 .5034733-.3479404 1.1179276-.7921743 1.3696194-.4367781.2517815-.7921743.0444641-.7921743-.4515991 0-.4886532.3553963-1.1105175.7848091-1.3622093C9.4431334 21.6532402 9.7910738 21.8679695 9.7910738 22.3566227zM12.634017 20.7203999c0 .4961529-.3479853 1.1105156-.7921743 1.369709-.4368229.2516918-.7921743.0444641-.7921743-.4590092 0-.4886532.3479862-1.1105175.7847643-1.3622093C12.2786207 20.009697 12.634017 20.2318363 12.634017 20.7203999zM15.4769154 19.0768566c0 .5034733-.3479404 1.1179276-.7921743 1.369709-.4367781.2516918-.7921295.0443745-.7921295-.4516888-.00741-.4885635.3479404-1.1179276.7847643-1.3622093C15.1215639 18.3735657 15.4695492 18.5882931 15.4769154 19.0768566z" class="coloref473e svgShape"></path>
  <polygon fill="#3eef89" points="15.156 46.662 15.18 55.107 11.915 56.992 11.891 48.546" class="coloref473e svgShape"></polygon>
  <polygon fill="#004b87" points="22.211 40.585 22.241 51.03 18.976 52.915 18.947 42.47" class="color662ddc svgShape"></polygon>
  <polygon fill="#93f9be" points="29.267 34.519 29.302 46.954 26.037 48.838 26.002 36.403" class="colorf9d893 svgShape"></polygon>
  <polygon fill="#2ecc71" points="36.322 28.442 36.363 42.877 33.098 44.762 33.058 30.327" class="color908fa1 svgShape"></polygon>
  <path fill="#ffffff" d="M35.2748795,28.7674274l-1.9367409-1.1932106c-0.1986122-0.115715-0.3308868-0.3804646-0.3308868-0.7443714
		l-0.0331192-9.9591503c0-0.7443714,0.3530159-1.7562628,1.174614-2.0348034c0,0,17.4035721-9.892911,17.6020851-9.7604351
		l1.6939659,1.070797l0.0059204,0.0061412c0.2878838,0.0766678,0.4707756,0.3605709,0.4707756,0.8049483l0.0315208,9.9713192
		c0,0.7346783-0.5038567,1.6374569-1.1651192,2.0256805l-9.3204994,5.3636322l-1.2700577,0.7346783l-3.9885139,6.9170399
		l-0.0210114-4.5974369l-2.1832123,1.2701187C35.7310028,28.7993507,35.4765663,28.8355713,35.2748795,28.7674274z" class="colorffffff svgShape"></path>
  <path fill="#f4f4f4" d="M53.9530144,16.9286633c0,0.7346783-0.5038567,1.6374569-1.1651192,2.0256805l-9.3204994,5.3636322
			l7.4836769-16.9827881V7.3248105l1.7948608-1.028728c0.6612625-0.3778453,1.17556-0.0839229,1.17556,0.6612611
			L53.9530144,16.9286633z" class="colorf4f4f4 svgShape"></path>
  <polygon fill="#d9dfdc" points="44.077 19.862 44.078 20.397 37.866 23.983 37.865 23.448" class="colord9dadf svgShape"></polygon>
  <polygon fill="#d9dfdc" points="44.077 17.238 44.078 17.774 37.866 21.36 37.865 20.825" class="colord9dadf svgShape"></polygon>
  <polygon fill="#d9dfdc" points="44.077 14.615 44.078 15.15 37.866 18.737 37.865 18.201" class="colord9dadf svgShape"></polygon>
  <polygon fill="#004b87" points="51.448 13.185 51.458 16.725 49.798 17.685 49.788 15.815 48.158 16.755 48.168 18.635 46.498 19.595 46.488 16.045 45.688 16.505 46.448 15.185 46.438 13.605 47.308 13.105 47.308 13.715 48.958 10.845 52.248 12.725" class="color662ddc svgShape"></polygon>
  <path fill="#97ab9f" d="M64.3544922 48.1656265l-12.3833008-7.1630859c-.0761719-.0439453-.171875-.0449219-.25 0L26.2016582 55.7364273c-.0771484.0444336-.125.1269531-.125.2158203 0 .0893555.0473633.171875.1245117.2167969l12.2441425 7.1156006v2.6964111c0 .1381836.1118164.25.25.25.0016479 0 .0026245-.001709.0042725-.001709.0012207 0 .0018311.0012207.0030518.0012207.1381836 0 .25-.1118164.25-.25v-2.6999512l25.4018555-14.682373c.0771484-.0444336.125-.1269531.125-.2163086S64.4321289 48.2100601 64.3544922 48.1656265zM38.6958008 62.8516617l-11.8706074-6.8984375 25.020998-14.4458008 11.8837891 6.8745117L38.6958008 62.8516617zM39.7563477 43.1939468l-.0403442-13.8442383c-.0775146.0998535-.1610718.1933594-.2490845.2849121l.0394287 13.5617676c.0117188.8105469-.5546875 1.7905273-1.2885742 2.2299805L9.3994122 62.0669937l-1.4868164.8623047-.0473633.0239258c-.0327148.0170898-.0629883.0336914-.1118164.0507813-.3044353.1434784-.5263815.1144524-.715332-.0102539l-.0005493-.0002441c-.5058556-.3533173-.2987485 2.4180984-.4043579-36.8215332L39.4018555 7.2529068l.0140991 4.84021c.0806885-.0301514.164856-.0556641.2495728-.0808105l-.0136719-4.6860352V7.039772c.0001221-.0024414.003418-.00354.003418-.0059814l-.0068359-2.434082c-.0013428-.4501953-.1713257-.7780759-.4423828-.9486082-.0082397-.0089111-.010498-.0216064-.0214844-.0279541l-.050293-.0289307-.0007935-.0003662L36.5859375 2.129494c-.2929688-.1704103-.6777344-.1376954-1.0927734.0952148L5.1767559 19.7251968c-.8254075.4750938-1.4134526 1.6147461-1.4057615 2.4433594.0638502 23.696701.0389977 14.473217.1040039 38.5986328 0 .4584961.1640623.8066406.4624021.9799805.1018901.0576706 2.845253 1.6090889 2.6724243 1.5112305.2899418.1388626.5778427.0999107.8363647-.0224609.0478516-.0161133.090332-.0375977.1347656-.0610352L38.3447266 45.642189C39.1494141 45.1597672 39.7695313 44.0840836 39.7563477 43.1939468zM39.4052734 6.9566422L6.6323833 25.8780289l-.0059204-2.2128906c-.0073252-.7589321.5413079-1.7974396 1.2822266-2.2246094C8.0131216 21.3802395 37.900753 4.1256723 38.2231445 3.9395525c.0187988-.0108643.0369873-.0163574.0557251-.026123.5909576-.3115966 1.1172943-.0997593 1.1195679.6872556L39.4052734 6.9566422zM5.3017559 19.9419937l30.3149433-17.5c.3320313-.1870117.6279297-.2216797.84375-.0961914l2.0849609 1.1982422c-.100872.0211246-.3094368.0981348-.4467773.1772461C37.9913101 3.7832477 8.2450371 20.95578 7.7817364 21.2232437c-.4408569.2531738-.8218384.6970215-1.0771484 1.1955566l-2.479248-1.1347656C4.4497051 20.7303238 4.836729 20.2092056 5.3017559 19.9419937zM4.4628887 61.5308609c-.2177734-.1264648-.3378906-.3979492-.3378906-.7641602-.0004883-.1459961-.0009766-.2797852-.0009766-.4018555C4.0901337 55.6882896 4.1637244 75.093483 4.0209942 22.1670914c-.0018921-.2102051.0371094-.4321289.1047363-.6533203l2.4701538 1.1306152c-.1201167.2872257-.2237096.7111454-.2228394 1.0236816.0134134 4.7585468.0791545 28.4527588.1054688 37.9370117 0 .046875.0004883.0913086.0004883.1323242 0 .0024414 0 .0043945 0 .0063477.0126886.4353828-.0194526.1877327.0223389.6660156.0098581.1418266.0438848.3126717.0460205.3193359L4.4628887 61.5308609z" class="color979aab svgShape"></path>
  <path fill="#97ab9f" d="M36.4520874,13.6795425c0.1514282-0.1193848,0.322998-0.2177734,0.4979248-0.3132324l-0.0095825-1.3984375
			c-0.0004883-0.0888672-0.0483398-0.1708984-0.1259766-0.2148438c-0.0761719-0.0439453-0.171875-0.0444336-0.2490234,0.0004883
			L9.2382793,27.5298843c-0.0776367,0.0449219-0.1254883,0.1279297-0.125,0.2182617l0.0883789,12.7983398
			c0.0004883,0.0888672,0.0483398,0.1708984,0.1259766,0.2148438c0.0380859,0.0219727,0.0810547,0.0332031,0.1240234,0.0332031
			s0.0864258-0.0112305,0.125-0.0336914L33.1985474,27.123024c-0.052124-0.1650391-0.093811-0.333374-0.1265259-0.5041504
			L9.6987286,40.1133804L9.6142559,27.8897476l26.8291035-15.4887695L36.4520874,13.6795425z" class="color979aab svgShape"></path>
  <path fill="#97ab9f" d="M35.0889282 16.5046158l-1.5928345-.6583252c-.1264648-.0537109-.2744141.0083008-.3266602.1352539-.0527344.1279297.0078125.2739258.1352539.3266602l1.5286255.6318359c-.1676636.3508301-.28302.7214355-.28302 1.0688477l.0332031 9.9580078c0 .4414063.1660156.7915039.4550781.9604492.0395508.0229492.0830078.0341797.1259766.0341797.0854492 0 .1694336-.0444336.2158203-.1240234.0698242-.1191406.0297852-.2719727-.0898438-.3417969-.1274414-.074707-.2070313-.2773438-.2070313-.5297852l-.0332031-9.9580078c0-.6469727.4750977-1.4804688 1.0332031-1.8178711l16.7890625-9.6772461c.206543-.1152344.3808594-.1557617.512207-.1240234.1352539.0317383.2695313-.0488281.3027344-.1826172s-.0483398-.2695313-.1826172-.3027344C53.2441406 5.8389664 52.9487305 5.8970718 52.625 6.0782242l-16.7958984 9.6811523C35.5447998 15.9312515 35.2990112 16.20298 35.0889282 16.5046158zM10.8530254 57.8936539L37.6748047 42.407814c.1196289-.0688477.1606445-.2216797.0913086-.3413086-.0688477-.1196289-.222168-.1611328-.3413086-.0913086L10.6030254 57.4610367c-.1196289.0688477-.1606445.2216797-.0913086.3413086C10.5801992 57.9218254 10.7336054 57.9629478 10.8530254 57.8936539z" class="color979aab svgShape"></path>
  <g fill="#000000" class="color000000 svgShape">
    <path d="M64.4165039 48.0655289L52.0454102 40.899025c-.1157227-.0668945-.2587891-.0678711-.3754883 0L26.1411114 55.6202164c-.1235352.0712891-.1914063.2026367-.1875.3359375 0 .0029297 0 .0063477 0 .0097656l.0097656 2.8256836c.0004883.1328125.0717773.2558594.1865234.3227539l12.3808613 7.1860352c.0585938.0336914.1235352.0507813.1884766.0507813s.1293945-.0166016.1875-.050293l25.5092773-14.7407227c.1162109-.0668945.1875-.190918.1875-.324707v-2.8452148C64.6035156 48.2564468 64.5322266 48.1329117 64.4165039 48.0655289zM63.8535156 48.6065445v2.4125977L38.7197266 65.5425797l-12.0073261-6.96875-.0083008-2.4125977 25.1528339-14.5043945L63.8535156 48.6065445zM40.1313477 43.1929703l-.0371094-13.7419434 2.3779297-4.1237793 10.5058594-6.0498047c.7695313-.4516602 1.3500977-1.4614258 1.3500977-2.3496094l-.0317383-9.9707031c0-.5751953-.2524414-.9970703-.6787109-1.1455078l-1.6586914-1.0483398c-.0615234-.0410156-.1401367-.0644531-.2143555-.0644531-.1116943 0-.430542.0048828-11.7002563 6.3708496L40.0268555 4.595314c0-.9590664-.5752754-1.1929209-.6547852-1.2929685-.1072159-.0704558-2.4531326-1.4127519-2.6293945-1.5141603-.474987-.2360363-.9903145-.1541287-1.4428711.1098633L4.9091778 19.4561539c-.8613691.5289478-1.5126951 1.691391-1.5126951 2.7133789.0567677 21.3665848.1040506 38.4351044.1044922 38.5981445 0 .5557632.1762729 1.0281754.6513669 1.2993164l2.5126953 1.4384766c.4992752.3267975 1.0334401.2630692 1.5439453-.0410156 41.2886353-23.8257866 27.3910351-15.8061142 30.3281269-17.5009766C39.4609375 45.4102554 40.1464844 44.2164078 40.1313477 43.1929703zM53.1748047 6.4063492c.0483398.0527344.1103516.090332.1796875.1083984.1782227.0473633.1918945.3505859.1918945.4433594l.0317383 9.9707031c0 .6108398-.4487305 1.3901367-.9770508 1.7001953l-10.5917969 6.0991211c-.0566406.0332031-.1040039.0805664-.1367188.137207l-3.2949219 5.7143555-.0146484-3.2089844c-.001049-.288168-.3142815-.467247-.5634766-.3227539l-2.1821289 1.269043c-.1552734.0893555-.2675781.1083984-.3457031.1308594l-1.9448242-1.1977539c-.0717773-.0419922-.1445313-.1879883-.1445313-.421875l-.0332031-9.9575195c0-.6630859.3222656-1.4770508.9853516-1.7084961 6.5009766-3.6958008 16.3212891-9.2226563 17.3481445-9.6875L53.1748047 6.4063492zM38.0302734 45.1016617C21.3813019 54.7082672 13.5240746 59.228981 7.7338848 62.5850601c-.445159.22258-.376914.1280823-.574707.0527344l.0009766-.0024414-2.5668945-1.4785156c-.027832-.0297852-.0922852-.1264648-.0922852-.3896484 0-.1712074-.1039143-38.4409637-.1044922-38.5991211 0-.603014.3686686-1.4094505 1.0913086-1.9072266L35.746582 2.7950213c.0200195-.0083008.0395508-.0175781.0585938-.0283203.1396484-.0786133.2651367-.1201172.3950195-.1230469.034668.0117188.0634766.0229492.0708008.0253906.1017838.05866 2.5153046 1.4581678 2.6166992 1.5068357.058979.1001859.1391602.13694.1391602.4213867l.019043 7.0368652c-1.4920044.8441162-3.1500244 1.784668-5.0170898 2.8469238-.9824219.3325195-1.4296875 1.4716797-1.4296875 2.3911133l.0332031 9.9575195c0 .487793.1884766.8774414.5092773 1.0639648l2.0126953 1.2285156c.3115234.1054688.6767578.0522461 1.0385742-.1557617l1.6230469-.9438477.0180664 3.9487305c.0009766.1699219.1152344.3173828.2788086.3608398.0322266.0087891.0644531.0126953.0961914.0126953.1318359 0 .2568359-.0693359.324707-.1875l.5650635-.9799805.0325928 12.0244141C39.1416016 43.879982 38.644043 44.7339859 38.0302734 45.1016617z" fill="#000000" class="color000000 svgShape"></path>
  </g>
</svg>
