<?xml version="1.0" encoding="utf-8" standalone="yes"?>
<!DOCTYPE svg PUBLIC "-//W3C//DTD SVG 1.1//EN" "http://www.w3.org/Graphics/SVG/1.1/DTD/svg11.dtd">
<svg width="638" height="588" viewBox="0 0 638 588" style="fill:none;stroke:none;fill-rule:evenodd;clip-rule:evenodd;stroke-linecap:round;stroke-linejoin:round;stroke-miterlimit:1.5;" version="1.1" xmlns="http://www.w3.org/2000/svg" xmlns:xlink="http://www.w3.org/1999/xlink"><style id="fontImports">@import url("https://fonts.googleapis.com/css2?family=Roboto:wght@400;700&amp;display=block");</style><g id="items" style="isolation: isolate"><g id="blend" style="mix-blend-mode: normal"><g id="g-root-4.cr-small-4_cr_4hy1151k37eo9-fill" data-item-order="-129445" transform="translate(135, 253)"><g id="4.cr-small-4_cr_4hy1151k37eo9-fill" stroke="none" fill="#f4ffdc"><g><path d="M 10 46C 10 65.882251 26.117749 82 46 82C 65.882251 82 82 65.882251 82 46C 82 26.117749 65.882251 10 46 10C 26.117749 10 10 26.117749 10 46"></path></g></g></g><g id="g-root-4.line_sy_24iwp1k37fgi-fill" data-item-order="-129440" transform="translate(181.68096923828125, 348.725341796875)"></g><g id="g-root-3.cr-small-3_cr_24iwp1k37fgj-fill" data-item-order="-129437" transform="translate(279, 397)"><g id="3.cr-small-3_cr_24iwp1k37fgj-fill" stroke="none" fill="#e3fff2"><g><path d="M 10 46C 10 65.882251 26.117749 82 46 82C 65.882251 82 82 65.882251 82 46C 82 26.117749 65.882251 10 46 10C 26.117749 10 10 26.117749 10 46"></path></g></g></g><g id="g-root-3.line_sy_24iwp1k37fgk-fill" data-item-order="-129432" transform="translate(374.5244140625, 346.2138671875)"></g><g id="g-root-2.cr-small-2_cr_1q881q11k37cwd-fill" data-item-order="-129429" transform="translate(422.58001708984375, 253)"><g id="2.cr-small-2_cr_1q881q11k37cwd-fill" stroke="none" fill="#fff2e5"><g><path d="M 10 46C 10 65.882251 26.117749 82 46 82C 65.882251 82 82 65.882251 82 46C 82 26.117749 65.882251 10 46 10C 26.117749 10 10 26.117749 10 46"></path></g></g></g><g id="g-root-2.line_sy_1q881q11k37cwe-fill" data-item-order="-129424" transform="translate(371.9990234375, 154.11572265625)"></g><g id="g-root-1.cr-small-1_cr_1q881q11k37cwf-fill" data-item-order="-129421" transform="translate(279, 109)"><g id="1.cr-small-1_cr_1q881q11k37cwf-fill" stroke="none" fill="#fffbda"><g><path d="M 10 46C 10 65.882251 26.117749 82 46 82C 65.882251 82 82 65.882251 82 46C 82 26.117749 65.882251 10 46 10C 26.117749 10 10 26.117749 10 46"></path></g></g></g><g id="g-root-1.line_sy_1lsejll1k37doo-fill" data-item-order="-129416" transform="translate(180.62109375, 155.614501953125)"></g><g id="g-root-0.cr-big_cr_1lsejll1k37dop-fill" data-item-order="-129379" transform="translate(231, 205)"><g id="0.cr-big_cr_1lsejll1k37dop-fill" stroke="none" fill="#f5f5f5"><g><path d="M 10 94C 10.000002 140.391921 47.608083 178.000002 94.000002 178.000002C 140.391921 178.000002 178.000002 140.391921 178.000002 94.000002C 178.000002 47.608083 140.391921 10.000002 94.000002 10.000002C 47.608083 10.000002 10.000002 47.608083 10.000002 94.000002"></path></g></g></g><g id="g-root-tx_receivep_1uuadvd1k37fuw-fill" data-item-order="0" transform="translate(267, 25)"><g id="tx_receivep_1uuadvd1k37fuw-fill" stroke="none" fill="#484848"><g><text style="font: 20px Roboto, sans-serif; white-space: pre;" font-size="20px" font-family="Roboto, sans-serif"><tspan x="22.67" y="34" dominant-baseline="ideographic">Receive </tspan><tspan x="17.97" y="58" dominant-baseline="ideographic">Payment </tspan><tspan x="14.67" y="82" dominant-baseline="ideographic">Reminder</tspan></text></g></g></g><g id="g-root-chec_dkgce11k37dos-fill" data-item-order="0" transform="translate(291, 121)"></g><g id="g-root-tabl_14301ix1k3bm6f-fill" data-item-order="0" transform="translate(285, 229)"></g><g id="g-root-tx_confirmp_dkgce11k37dot-fill" data-item-order="0" transform="translate(15, 253)"><g id="tx_confirmp_dkgce11k37dot-fill" stroke="none" fill="#484848"><g><text style="font: 20px Roboto, sans-serif; white-space: pre;" font-size="20px" font-family="Roboto, sans-serif"><tspan x="45.16" y="34" dominant-baseline="ideographic">Confirm </tspan><tspan x="37.59" y="58" dominant-baseline="ideographic">Payment </tspan><tspan x="13.55" y="82" dominant-baseline="ideographic">Completion</tspan></text></g></g></g><g id="g-root-chec_dcyk6x1k3bnk7-fill" data-item-order="0" transform="translate(147, 265)"></g><g id="g-root-page_1lw5ha11k337cy-fill" data-item-order="0" transform="translate(435, 265)"></g><g id="g-root-tx_reviewpa_8zu0p1k37f9r-fill" data-item-order="0" transform="translate(507, 253)"><g id="tx_reviewpa_8zu0p1k37f9r-fill" stroke="none" fill="#484848"><g><text style="font: 20px Roboto, sans-serif; white-space: pre;" font-size="20px" font-family="Roboto, sans-serif"><tspan x="12" y="34" dominant-baseline="ideographic">Review </tspan><tspan x="12" y="58" dominant-baseline="ideographic">Payment </tspan><tspan x="12" y="82" dominant-baseline="ideographic">Details</tspan></text></g></g></g><g id="g-root-tx_paymentm_1qf3cu11k37dhe-fill" data-item-order="0" transform="translate(249, 301.010009765625)"><g id="tx_paymentm_1qf3cu11k37dhe-fill" stroke="none" fill="#969696"><g><text style="font: 20px Roboto, sans-serif; white-space: pre;" font-size="20px" font-family="Roboto, sans-serif"><tspan x="36.8" y="34" dominant-baseline="ideographic">Payment </tspan><tspan x="17.12" y="58" dominant-baseline="ideographic">Management</tspan></text></g></g></g><g id="g-root-touc_1q8ulyx1k2yzno-fill" data-item-order="0" transform="translate(291, 409)"></g><g id="g-root-tx_makepaym_8zu0p1k37f9q-fill" data-item-order="0" transform="translate(243, 481)"><g id="tx_makepaym_8zu0p1k37f9q-fill" stroke="none" fill="#484848"><g><text style="font: 20px Roboto, sans-serif; white-space: pre;" font-size="20px" font-family="Roboto, sans-serif"><tspan x="13.94" y="34" dominant-baseline="ideographic">Make Payment </tspan><tspan x="47.13" y="58" dominant-baseline="ideographic">via App</tspan></text></g></g></g><g id="g-root-4.cr-small-4_cr_4hy1151k37eo9-stroke" data-item-order="-129445" transform="translate(135, 253)"><g id="4.cr-small-4_cr_4hy1151k37eo9-stroke" fill="none" stroke-linecap="round" stroke-linejoin="round" stroke-miterlimit="4" stroke="#92bd39" stroke-width="2"><g><path d="M 10 46C 10 65.882251 26.117749 82 46 82C 65.882251 82 82 65.882251 82 46C 82 26.117749 65.882251 10 46 10C 26.117749 10 10 26.117749 10 46"></path></g></g></g><g id="g-root-4.line_sy_24iwp1k37fgi-stroke" data-item-order="-129440" transform="translate(181.68096923828125, 348.725341796875)"><g id="4.line_sy_24iwp1k37fgi-stroke" fill="none" stroke-linecap="round" stroke-linejoin="round" stroke-miterlimit="4" stroke="#969696" stroke-width="2"><g><path d="M 10.819031 11.804688C 25.939031 44.314688 52.639031 70.344687 85.639031 84.584688"></path><path d="M 19.419031 14.204688L 10.719031 11.304688L 7.719031 20.104688" stroke-dasharray="none"></path></g></g></g><g id="g-root-3.cr-small-3_cr_24iwp1k37fgj-stroke" data-item-order="-129437" transform="translate(279, 397)"><g id="3.cr-small-3_cr_24iwp1k37fgj-stroke" fill="none" stroke-linecap="round" stroke-linejoin="round" stroke-miterlimit="4" stroke="#3cc583" stroke-width="2"><g><path d="M 10 46C 10 65.882251 26.117749 82 46 82C 65.882251 82 82 65.882251 82 46C 82 26.117749 65.882251 10 46 10C 26.117749 10 10 26.117749 10 46"></path></g></g></g><g id="g-root-3.line_sy_24iwp1k37fgk-stroke" data-item-order="-129432" transform="translate(374.5244140625, 346.2138671875)"><g id="3.line_sy_24iwp1k37fgk-stroke" fill="none" stroke-linecap="round" stroke-linejoin="round" stroke-miterlimit="4" stroke="#969696" stroke-width="2"><g><path d="M 11.825562 85.676094C 44.765562 70.506094 71.105562 43.446094 85.345562 9.996094"></path><path d="M 14.325562 77.096094L 11.325562 85.796094L 20.025562 88.796094" stroke-dasharray="none"></path></g></g></g><g id="g-root-2.cr-small-2_cr_1q881q11k37cwd-stroke" data-item-order="-129429" transform="translate(422.58001708984375, 253)"><g id="2.cr-small-2_cr_1q881q11k37cwd-stroke" fill="none" stroke-linecap="round" stroke-linejoin="round" stroke-miterlimit="4" stroke="#de8431" stroke-width="2"><g><path d="M 10 46C 10 65.882251 26.117749 82 46 82C 65.882251 82 82 65.882251 82 46C 82 26.117749 65.882251 10 46 10C 26.117749 10 10 26.117749 10 46"></path></g></g></g><g id="g-root-2.line_sy_1q881q11k37cwe-stroke" data-item-order="-129424" transform="translate(371.9990234375, 154.11572265625)"><g id="2.line_sy_1q881q11k37cwe-stroke" fill="none" stroke-linecap="round" stroke-linejoin="round" stroke-miterlimit="4" stroke="#969696" stroke-width="2"><g><path d="M 85.730977 82.814395C 70.410977 50.144395 43.360977 24.064395 10.000977 10.004395"></path><path d="M 77.200977 80.404395L 85.900977 83.304395L 88.800977 74.604395" stroke-dasharray="none"></path></g></g></g><g id="g-root-1.cr-small-1_cr_1q881q11k37cwf-stroke" data-item-order="-129421" transform="translate(279, 109)"><g id="1.cr-small-1_cr_1q881q11k37cwf-stroke" fill="none" stroke-linecap="round" stroke-linejoin="round" stroke-miterlimit="4" stroke="#e0cb15" stroke-width="2"><g><path d="M 10 46C 10 65.882251 26.117749 82 46 82C 65.882251 82 82 65.882251 82 46C 82 26.117749 65.882251 10 46 10C 26.117749 10 10 26.117749 10 46"></path></g></g></g><g id="g-root-1.line_sy_1lsejll1k37doo-stroke" data-item-order="-129416" transform="translate(180.62109375, 155.614501953125)"><g id="1.line_sy_1lsejll1k37doo-stroke" fill="none" stroke-linecap="round" stroke-linejoin="round" stroke-miterlimit="4" stroke="#969696" stroke-width="2"><g><path d="M 82.588901 10.825439C 50.098901 26.065439 24.128901 52.895439 9.998901 85.995439"></path><path d="M 80.198901 19.425439L 83.098901 10.725439L 74.298901 7.825439" stroke-dasharray="none"></path></g></g></g><g id="g-root-0.cr-big_cr_1lsejll1k37dop-stroke" data-item-order="-129379" transform="translate(231, 205)"><g id="0.cr-big_cr_1lsejll1k37dop-stroke" fill="none" stroke-linecap="round" stroke-linejoin="round" stroke-miterlimit="4" stroke="#969696" stroke-width="2"><g><path d="M 10 94C 10.000002 140.391921 47.608083 178.000002 94.000002 178.000002C 140.391921 178.000002 178.000002 140.391921 178.000002 94.000002C 178.000002 47.608083 140.391921 10.000002 94.000002 10.000002C 47.608083 10.000002 10.000002 47.608083 10.000002 94.000002"></path></g></g></g><g id="g-root-tx_receivep_1uuadvd1k37fuw-stroke" data-item-order="0" transform="translate(267, 25)"></g><g id="g-root-chec_dkgce11k37dos-stroke" data-item-order="0" transform="translate(291, 121)"><g id="chec_dkgce11k37dos-stroke" fill="none" stroke-linecap="round" stroke-linejoin="round" stroke-miterlimit="4" stroke="#e0cb15" stroke-width="2"><g><path d="M 27.142857 56.285713L 34 56.285713M 30.571428 16.857143C 22.997238 16.857143 16.857143 22.997238 16.857143 30.571428L 16.857143 42.57143C 16.857143 45.411751 14.554607 47.714287 11.714286 47.714287L 49.428574 47.714287C 46.588253 47.714287 44.285713 45.411751 44.285713 42.57143L 44.285713 34M 56.285713 11.714286L 44.285713 25.428572L 39.142857 20.285715"></path></g></g></g><g id="g-root-tabl_14301ix1k3bm6f-stroke" data-item-order="0" transform="translate(285, 229)"><g id="tabl_14301ix1k3bm6f-stroke" fill="none" stroke-linecap="round" stroke-linejoin="round" stroke-miterlimit="4" stroke="#969696" stroke-width="2"><g><path d="M 16.428572 12.142857L 63.571426 12.142857C 63.571426 12.142857 67.85714 12.142857 67.85714 16.428572L 67.85714 63.571426C 67.85714 63.571426 67.85714 67.85714 63.571426 67.85714L 16.428572 67.85714C 16.428572 67.85714 12.142857 67.85714 12.142857 63.571426L 12.142857 16.428572C 12.142857 16.428572 12.142857 12.142857 16.428572 12.142857M 12.142857 25L 67.85714 25M 12.142857 38.92857L 67.85714 38.92857M 12.142857 53.92857L 67.85714 53.92857M 33.571426 25L 33.571426 67.85714M 50.714283 25L 50.714283 67.85714"></path></g></g></g><g id="g-root-tx_confirmp_dkgce11k37dot-stroke" data-item-order="0" transform="translate(15, 253)"></g><g id="g-root-chec_dcyk6x1k3bnk7-stroke" data-item-order="0" transform="translate(147, 265)"><g id="chec_dcyk6x1k3bnk7-stroke" fill="none" stroke-linecap="round" stroke-linejoin="round" stroke-miterlimit="4" stroke="#92bd39" stroke-width="2"><g><path d="M 33 45C 33 51.627419 38.372581 57 45 57C 51.627419 57 57 51.627419 57 45C 57 38.372581 51.627419 33 45 33C 38.372581 33 33 38.372581 33 45M 50.34 41.52L 44.540001 49.259998C 44.278992 49.607555 43.880062 49.824806 43.446495 49.855503C 43.012932 49.886196 42.587372 49.727318 42.280003 49.420002L 39.279999 46.419998M 49 19L 11 19M 30 37L 14 37C 12.343145 37 11 35.656853 11 34L 11 14C 11 12.343145 12.343145 11 14 11L 46 11C 47.656857 11 49 12.343145 49 14L 49 29M 45 25L 39 25M 21 29L 15 29M 25 25L 15 25"></path></g></g></g><g id="g-root-page_1lw5ha11k337cy-stroke" data-item-order="0" transform="translate(435, 265)"><g id="page_1lw5ha11k337cy-stroke" fill="none" stroke-linecap="round" stroke-linejoin="round" stroke-miterlimit="4" stroke="#de8431" stroke-width="2"><g><path d="M 11 17.132L 11 13C 11 11.895431 11.895431 11 13 11L 17.133999 11M 17.133999 57L 13 57C 11.895431 57 11 56.104568 11 55L 11 50.866001M 11 24.798L 11 30.931999M 11 37.066002L 11 43.198002M 57 24.798L 57 30.931999M 24.799999 10.998L 30.934 10.998M 37.066002 10.998L 43.200001 10.998M 50.866001 11L 55 11C 56.104568 11 57 11.895431 57 13L 57 17.132M 30.934 56.998001L 24.799999 56.998001M 26.334 38.598C 26.332422 45.37344 31.824558 50.866856 38.599998 50.866856C 45.375439 50.866856 50.867577 45.37344 50.865997 38.598C 50.867577 31.822559 45.375439 26.329144 38.599998 26.329144C 31.824558 26.329144 26.332422 31.822559 26.334 38.598ZM 34.599998 38.598L 42.599998 38.598M 47.273998 47.271999L 57 56.998001"></path></g></g></g><g id="g-root-tx_reviewpa_8zu0p1k37f9r-stroke" data-item-order="0" transform="translate(507, 253)"></g><g id="g-root-tx_paymentm_1qf3cu11k37dhe-stroke" data-item-order="0" transform="translate(249, 301.010009765625)"></g><g id="g-root-touc_1q8ulyx1k2yzno-stroke" data-item-order="0" transform="translate(291, 409)"><g id="touc_1q8ulyx1k2yzno-stroke" fill="none" stroke-linecap="round" stroke-linejoin="round" stroke-miterlimit="4" stroke="#3cc583" stroke-width="2"><g><path d="M 34 52C 34.276142 52 34.5 52.223858 34.5 52.5C 34.5 52.776142 34.276142 53 34 53C 33.723858 53 33.5 52.776142 33.5 52.5C 33.5 52.223858 33.723858 52 34 52M 31 21L 43 21C 44.104568 21 45 21.895432 45 23L 45 35M 23 37L 23 55C 23 56.104568 23.895432 57 25 57L 43 57C 44.104568 57 45 56.104568 45 55L 45 54M 23 49L 42 49M 15.66 11.72C 16.70986 11.246413 17.848267 11.001008 19 11C 23.418278 11 27 14.581722 27 19L 27 25.66C 26.997301 26.108425 26.96389 26.556139 26.9 27M 24.959999 31C 22.753447 33.502136 19.225832 34.372314 16.108782 33.18338C 12.99173 31.99445 10.939706 28.996038 10.96 25.66L 10.96 19C 10.960419 17.411272 11.433866 15.858644 12.32 14.54M 15 25.66C 15 27.869139 16.790861 29.66 19 29.66C 21.209139 29.66 23 27.869139 23 25.66L 23 19C 23 16.790861 21.209139 15 19 15C 16.790861 15 15 16.790861 15 19L 15 21.5M 19 19L 19 21M 19 25L 19 26M 36.5 31L 33.279999 31C 32.296932 31 31.5 31.796932 31.5 32.779999C 31.491491 33.512497 31.937584 34.173668 32.619999 34.440002L 35.379997 35.559998C 36.062416 35.826332 36.508507 36.487503 36.5 37.220001C 36.5 38.203064 35.703064 39 34.720001 39L 31.5 39M 34 31L 34 29M 34 41L 34 39M 49.419998 42.580002L 46.419998 39.580002C 45.514252 38.63559 44.014404 38.604252 43.07 39.509998C 42.125591 40.415749 42.094254 41.915592 43 42.859997C 47.419998 47.459999 46.299999 49.700001 50 53.419998L 54 57M 45 28L 53.580002 37.580002C 54.489838 38.485443 55.000938 39.7164 55.000004 41L 55 44C 55.041206 45.563774 55.773708 47.02877 57 48"></path></g></g></g><g id="g-root-tx_makepaym_8zu0p1k37f9q-stroke" data-item-order="0" transform="translate(243, 481)"></g></g></g></svg>