<?xml version="1.0" encoding="UTF-8"?>
<svg xmlns="http://www.w3.org/2000/svg" width="89" height="64" viewBox="0 0 89 64" fill="none">
  <path d="M10.6309 31.6507V11.8851C10.6309 11.332 10.6873 11.2817 11.236 11.2817C13.1544 11.2817 15.0687 11.2475 16.9871 11.3038C17.4833 11.3179 17.9775 11.2214 18.4657 11.2898C19.0951 11.3762 19.7164 11.2898 20.3437 11.2898C21.0598 11.2757 21.78 11.2717 22.4961 11.2898C24.13 11.33 25.766 11.3501 27.3959 11.4486C28.1564 11.4949 28.9068 11.7081 29.6632 11.8509C30.2361 11.9555 30.8151 12.0299 31.3799 12.1706C31.8916 12.3076 32.3954 12.4728 32.8888 12.6654C33.4354 12.8665 33.9821 13.0817 34.5025 13.3291C34.7626 13.4868 35.0138 13.6587 35.2549 13.8439C35.5878 14.045 35.9509 14.218 36.2635 14.4473C36.8506 14.8616 37.4174 15.302 37.9842 15.7465C38.3298 15.9996 38.6556 16.2786 38.9585 16.5811C39.3659 17.0232 39.7503 17.4857 40.1104 17.9668C40.4936 18.4736 40.8608 18.9965 41.2037 19.5335C41.4498 19.9196 41.6495 20.3379 41.8613 20.7402C42.1175 21.2309 42.3979 21.7136 42.6036 22.2264C42.8094 22.7393 42.9627 23.3446 43.1362 23.9057C43.2431 24.2456 43.3661 24.5815 43.4529 24.9254C43.6001 25.5287 43.7252 26.1321 43.8563 26.7354C44.0616 27.619 44.1618 28.5235 44.1549 29.4304C44.1745 29.7737 44.219 30.1151 44.288 30.4521C44.3183 30.6833 44.2053 30.7718 43.9814 30.7537C43.8866 30.7537 43.7918 30.7537 43.697 30.7537C39.4608 30.7537 35.2388 30.7537 31.0107 30.7537C29.9352 30.7387 28.8934 30.3767 28.0414 29.722C27.2157 29.0727 26.6043 28.1914 26.2864 27.192C26.0625 26.5705 26.0524 25.8706 25.9516 25.2049C25.9316 24.9087 25.8864 24.6147 25.8164 24.3261C25.766 24.1752 25.4876 23.95 25.4291 23.9802C25.2394 24.1045 25.0757 24.2643 24.947 24.4508C24.9067 24.501 24.947 24.6096 24.947 24.6901C24.947 29.3935 24.947 34.0976 24.947 38.8024C24.947 39.0558 24.9369 39.3032 25.2617 39.3695C25.6187 39.4439 25.7741 39.271 25.8205 38.8808C25.9576 37.6902 26.0484 36.4855 26.6616 35.4096C27.1538 34.5427 27.7247 33.7705 28.6445 33.2737C29.2273 32.9604 29.8717 32.7778 30.5326 32.7387C34.7869 32.425 39.0493 32.6824 43.3076 32.606C43.5997 32.6228 43.8887 32.6734 44.169 32.7568C44.2034 32.7714 44.2336 32.7943 44.2568 32.8234C44.2801 32.8526 44.2957 32.8871 44.3021 32.9238C44.2779 33.3602 44.2376 33.7986 44.2013 34.235C44.2013 34.3014 44.173 34.3658 44.167 34.4362C44.1186 34.9953 44.1044 35.5584 44.0157 36.1094C43.9168 36.7027 43.7534 37.286 43.6122 37.8712C43.471 38.4564 43.3399 39.0236 43.1523 39.5847C42.9647 40.1458 42.7025 40.719 42.4786 41.2882C42.3152 41.7065 42.176 42.1328 41.9944 42.5431C41.8789 42.7676 41.7439 42.9816 41.591 43.1827C41.1028 43.9087 40.6288 44.6468 40.1144 45.3547C39.759 45.8532 39.3658 46.3239 38.9384 46.7625C38.4638 47.213 37.9655 47.638 37.4456 48.0356C37.0459 48.3879 36.6182 48.7074 36.1667 48.9909C35.3255 49.4716 34.4521 49.8939 33.5867 50.3283C33.2232 50.5228 32.8448 50.6882 32.4551 50.8231C31.8257 51.0242 31.1802 51.173 30.5407 51.3319C29.9517 51.4767 29.3566 51.6074 28.7656 51.7442C28.7258 51.7533 28.6853 51.7593 28.6445 51.7623C27.882 51.8105 27.1195 51.8628 26.355 51.9091C21.3503 52.2067 16.3416 51.9835 11.3349 52.0499C10.6611 52.0599 10.6389 52.0297 10.6389 51.3721L10.6309 31.6507Z" fill="#EECB6D"></path>
  <path d="M45.3127 29.9412C45.3853 29.5088 45.4882 28.9095 45.5891 28.3122C45.6899 27.7149 45.7787 27.1055 45.8977 26.5182C45.9625 26.212 46.0495 25.9109 46.1579 25.6172C46.398 24.9234 46.6259 24.2215 46.9124 23.5457C47.1318 23.0474 47.3895 22.5667 47.6829 22.1078C48.1408 21.3777 48.6088 20.6517 49.1172 19.9558C49.5966 19.2671 50.1237 18.6125 50.6946 17.997C51.3095 17.38 51.9652 16.8049 52.6574 16.2754C53.3553 15.7203 54.0936 15.2196 54.8178 14.6987C54.9469 14.6062 55.0942 14.5398 55.2333 14.4573C55.6791 14.1959 56.1169 13.9143 56.5748 13.673C57.0286 13.4345 57.4945 13.2197 57.9707 13.0294C58.4367 12.8444 58.9188 12.6956 59.3989 12.5487C60.0303 12.3476 60.6576 12.1465 61.2991 12.0017C62.106 11.8227 62.927 11.6819 63.746 11.5673C64.3511 11.4828 64.9744 11.4708 65.5877 11.4165C66.0153 11.3783 66.4389 11.2978 66.8666 11.2857C67.1712 11.2975 67.4746 11.3311 67.7743 11.3863C67.8813 11.3984 67.9882 11.4124 68.0951 11.4185C68.9947 11.4688 69.8985 11.4768 70.7921 11.5774C71.4054 11.6718 72.0119 11.8061 72.6076 11.9796C73.3378 12.1626 74.0741 12.3315 74.7882 12.5668C75.4812 12.7932 76.1596 13.0619 76.8195 13.3713C77.6102 13.7434 78.3707 14.1758 79.1433 14.578C79.573 14.8053 79.6416 14.9802 79.4217 15.4106C79.103 16.014 78.75 16.6052 78.4413 17.2207C77.7414 18.6084 77.0595 20.0041 76.3697 21.3978C76.2305 21.6794 76.1337 21.8684 75.71 21.6814C75.238 21.4803 74.6833 21.4461 74.1608 21.3496C73.366 21.2048 72.5692 21.068 71.7745 20.9292C71.7469 20.9271 71.7193 20.9271 71.6918 20.9292C70.4673 20.881 69.2408 20.7824 68.0164 20.7985C67.109 20.8062 66.2048 20.9052 65.3174 21.0941C64.1669 21.3374 63.0383 21.6738 61.9426 22.0997C60.9395 22.5274 60.0114 23.1119 59.1931 23.8313C58.4733 24.4662 57.8179 25.1701 57.2364 25.933C56.3878 27.0098 55.4643 28.026 54.4729 28.9738C53.6522 29.7144 52.6503 30.2264 51.5681 30.4581C50.5565 30.6698 49.5228 30.7582 48.4898 30.7215H45.9199C45.2199 30.7236 45.3228 30.7738 45.3127 29.9412Z" fill="#EECB6D"></path>
  <path d="M66.9736 51.9111C66.2938 51.9111 65.612 51.9473 64.9362 51.901C64.331 51.8588 63.7259 51.726 63.1207 51.6355C62.7657 51.5833 62.4046 51.5531 62.0536 51.4767C61.4868 51.352 60.9159 51.2273 60.3652 51.0483C59.3566 50.7225 58.3278 50.4449 57.3757 49.9904C56.2292 49.425 55.1129 48.8007 54.0312 48.12C53.4464 47.772 52.8971 47.3679 52.3912 46.9134C51.5613 46.1946 50.7847 45.4169 50.0673 44.5864C49.3083 43.6962 48.6165 42.7511 47.9977 41.7588C47.5772 41.0422 47.1954 40.3037 46.8539 39.5465C46.4174 38.6311 46.0924 37.6669 45.8857 36.6746C45.7182 35.7977 45.4822 34.9329 45.3309 34.0601C45.2855 33.6423 45.2855 33.2209 45.3309 32.8031C45.3309 32.7367 45.4903 32.6241 45.575 32.6221C46.9487 32.612 48.3285 32.5356 49.6921 32.6382C51.0558 32.7407 52.4638 32.9962 53.6782 33.7664C53.9684 33.9298 54.239 34.1255 54.485 34.3497C55.2213 35.0998 55.9515 35.858 56.6434 36.6464C57.2688 37.3583 57.7892 38.1628 58.4468 38.8366C59.2358 39.6756 60.1708 40.3652 61.2064 40.8718C62.1755 41.2934 63.1675 41.6607 64.1777 41.9719C65.2124 42.2919 66.292 42.4433 67.375 42.4204C68.1254 42.4204 68.8758 42.5431 69.6262 42.5431C70.3242 42.5343 71.0212 42.4873 71.714 42.4023C72.3858 42.3299 73.0595 42.2374 73.7312 42.1087C74.2093 42.0182 74.6713 41.8472 75.1433 41.7246C75.4212 41.6379 75.7082 41.5832 75.9986 41.5617C76.0783 41.5759 76.1539 41.6077 76.2199 41.6546C76.2858 41.7016 76.3404 41.7626 76.3798 41.8332C76.8519 42.7382 77.3037 43.6432 77.7536 44.5683C78.0682 45.2099 78.3587 45.8655 78.6815 46.5051C78.9457 47.032 79.2463 47.5449 79.5226 48.0678C79.6921 48.3855 79.444 48.5665 79.2402 48.6993C77.8594 49.5991 76.3569 50.298 74.7782 50.7748C73.9713 51.0221 73.1644 51.2876 72.3414 51.4666C71.6088 51.614 70.8677 51.7161 70.1224 51.7723C69.0775 51.8668 68.0286 51.9191 66.9796 51.9895L66.9736 51.9111Z" fill="#EECB6D"></path>
</svg>
