<svg xmlns="http://www.w3.org/2000/svg" viewBox="0 0 512 512" id="Documents">
  <path fill="#004b87" d="M437 507H75L5 265h70z" class="color275e87 svgShape"></path>
  <path fill="#2ecc71" d="M75 5h300v420H75z" class="color69bdfb svgShape"></path>
  <path fill="#9cfcc5" d="M106 46h300v420H106z" class="color9cd3fc svgShape"></path>
  <path fill="#cdfee2" d="M437 507V149l-62-62H137v420z" class="colorcde9fe svgShape"></path>
  <path fill="#2ecc71" d="M375 149h62l-62-62z" class="color69bdfb svgShape"></path>
  <path fill="#3277af" d="M199 186h176v10H199zM199 227h176v10H199zM199 269h176v10H199z" class="color3279af svgShape"></path>
  <path fill="#3277af" d="m507 265-70 242H75l70-192h210l20-50z" class="color3279af svgShape"></path>
  <path fill="#004b87" d="M467 265s-65 183-315 242h285l70-242h-40z" class="color275e87 svgShape"></path>
</svg>
