<svg xmlns="http://www.w3.org/2000/svg" xml:space="preserve" viewBox="0 0 512 512" id="Implementation">
  <path fill="#ffffff" fill-rule="evenodd" d="M262.51 175.355h201.907c1.814 0 3.375.647 4.657 1.929l36.98 36.98c1.282 1.282 1.929 2.843 1.929 4.657v276.54c0 3.628-2.959 6.587-6.586 6.587H262.51c-3.628 0-6.586-2.959-6.586-6.587v-313.52c0-3.627 2.959-6.586 6.586-6.586z" clip-rule="evenodd" class="coloreceff1 svgShape"></path>
  <path fill="#d3d3d3" fill-rule="evenodd" d="M262.51 175.355h15.426v326.693H262.51c-3.628 0-6.587-2.959-6.587-6.587v-313.52c.001-3.627 2.959-6.586 6.587-6.586z" clip-rule="evenodd" class="colord1d1d6 svgShape"></path>
  <path fill="#a1a1a1" fill-rule="evenodd" d="M467.145 175.926a6.597 6.597 0 0 1 1.929 1.358l36.98 36.98a6.597 6.597 0 0 1 1.358 1.929h-36.975a3.299 3.299 0 0 1-3.293-3.293v-36.974zM307.361 458.365a6.048 6.048 0 0 1 0-12.098h149.186a6.05 6.05 0 0 1 0 12.098H307.361zm79.442-219.827a6.049 6.049 0 1 1 0-12.098h69.744a6.049 6.049 0 1 1 0 12.098h-69.744zm0 43.966a6.049 6.049 0 1 1 0-12.097h69.744a6.05 6.05 0 0 1 0 12.097h-69.744zm-79.442 43.965a6.048 6.048 0 0 1 0-12.097h149.186a6.05 6.05 0 0 1 0 12.097H307.361zm0 43.965a6.048 6.048 0 0 1 0-12.097h149.186a6.05 6.05 0 0 1 0 12.097H307.361zm0 43.965a6.048 6.048 0 0 1-6.048-6.049 6.048 6.048 0 0 1 6.048-6.049h149.186a6.05 6.05 0 0 1 0 12.098H307.361z" clip-rule="evenodd" class="colora79ba7 svgShape"></path>
  <path fill="#c4c4c4" fill-rule="evenodd" d="M310.954 226.441h36.78c5.303 0 9.641 4.338 9.641 9.641v36.78c0 5.303-4.338 9.641-9.641 9.641h-36.78c-5.303 0-9.641-4.339-9.641-9.641v-36.78c-.001-5.303 4.338-9.641 9.641-9.641z" clip-rule="evenodd" class="color8ac9fe svgShape"></path>
  <path fill="#afafaf" fill-rule="evenodd" d="M347.375 226.441h.359c5.303 0 9.641 4.338 9.641 9.641v36.78c0 5.303-4.338 9.641-9.641 9.641h-36.78c-5.303 0-9.641-4.339-9.641-9.641v-.359h36.421c5.303 0 9.641-4.338 9.641-9.641v-36.421z" clip-rule="evenodd" class="color60b7ff svgShape"></path>
  <g fill-rule="evenodd" clip-rule="evenodd" fill="#000000" class="color000000 svgShape">
    <path fill="#b0b0b0" d="M223.865 414.212v-15.767c0-1.931 1.017-3.586 2.74-4.46 1.723-.873 3.66-.714 5.217.429l54.435 39.936c1.28.939 1.989 2.284 2.04 3.871.051 1.587-.571 2.975-1.788 3.994l-54.435 45.56c-1.524 1.276-3.524 1.537-5.325.696-1.801-.841-2.884-2.542-2.884-4.53v-13.94c-94.258 0-125.174-69.297-97.789-118.577 15.149 58.989 64.611 62.788 97.789 62.788z" class="color6cf5c2 svgShape"></path>
    <path fill="#727272" d="m285.031 433.452 1.225.899c1.28.939 1.989 2.284 2.04 3.871.051 1.587-.571 2.975-1.788 3.994l-54.435 45.56c-1.524 1.276-3.524 1.537-5.325.696-1.801-.841-2.884-2.542-2.884-4.53v-10c0 1.988 1.083 3.689 2.884 4.53 1.801.841 3.801.58 5.325-.696l52.958-44.324zm-61.166 36.55v-10c-69.423 0-104.479-37.591-107.195-77.089-2.949 42.899 31.924 87.089 107.195 87.089z" class="color00e499 svgShape"></path>
  </g>
  <g fill-rule="evenodd" clip-rule="evenodd" fill="#000000" class="color000000 svgShape">
    <path fill="#bbbbbb" d="M136.055 36.054a8 8 0 0 1-16 0V17.952a8 8 0 0 1 16 0v18.102zm96.364 64.87a7.966 7.966 0 0 1-7.937-13.813l15.677-9.051a7.966 7.966 0 0 1 7.937 13.813l-15.677 9.051zm-39.495-45.338a7.981 7.981 0 0 1-13.812-8l9.051-15.677a7.981 7.981 0 0 1 13.812 8l-9.051 15.677zM31.629 87.111a7.967 7.967 0 0 1-7.937 13.813L8.014 91.872a7.967 7.967 0 0 1 7.938-13.813l15.677 9.052zm45.369-39.526a7.981 7.981 0 0 1-13.812 8l-9.051-15.677a7.981 7.981 0 0 1 13.812-8l9.051 15.677zm96.944 194.344c3.697-62.913 30.963-60.362 30.963-103.043 0-42.443-34.407-76.85-76.85-76.85s-76.85 34.407-76.85 76.85c0 42.681 27.265 40.13 30.963 103.043 1.647 12.427 8.748 15.229 12.855 15.229 61.159 0 71.99 6.039 78.919-15.229z" class="colorffe177 svgShape"></path>
    <path fill="#b1b1b1" d="M173.942 241.929c3.697-62.913 30.963-60.362 30.963-103.043 0-42.443-34.407-76.85-76.85-76.85-1.433 0-2.857.042-4.27.12 40.456 2.216 72.58 35.72 72.58 76.73 0 42.681-27.265 40.13-30.963 103.043-4.113 12.626-9.602 15.628-26.18 15.983 23.382.343 29.969-1.401 34.72-15.983z" class="colorffd064 svgShape"></path>
    <path fill="#9b9b9b" d="M107.952 247.813v-83.672H96.925c-6.797 0-12.971-2.776-17.443-7.248-4.472-4.471-7.247-10.646-7.247-17.443 0-6.797 2.776-12.971 7.247-17.443 4.472-4.472 10.646-7.247 17.443-7.247 6.797 0 12.971 2.776 17.443 7.247 4.472 4.472 7.247 10.646 7.247 17.443v11.026h12.878V139.45c0-6.796 2.776-12.971 7.248-17.443 4.471-4.471 10.646-7.247 17.443-7.247 6.797 0 12.971 2.776 17.443 7.247 4.472 4.472 7.247 10.646 7.247 17.443 0 6.797-2.776 12.972-7.247 17.443-4.472 4.472-10.646 7.248-17.443 7.248h-11.026v83.672h-13.664v-83.672h-12.878v83.672h-13.664zm0-97.336v-11.026c0-3.025-1.243-5.78-3.244-7.782-2.002-2.002-4.757-3.244-7.782-3.244-3.025 0-5.78 1.243-7.782 3.244-2.001 2.002-3.244 4.757-3.244 7.782 0 3.025 1.243 5.78 3.244 7.782 2.002 2.002 4.757 3.245 7.782 3.245h11.026v-.001zm40.206 0h11.026c3.025 0 5.781-1.243 7.782-3.245 2.002-2.001 3.244-4.757 3.244-7.782 0-3.025-1.243-5.78-3.244-7.782-2.002-2.002-4.757-3.244-7.782-3.244-3.025 0-5.78 1.243-7.782 3.244-2.002 2.002-3.245 4.757-3.245 7.782v11.027z" class="colorffc338 svgShape"></path>
    <path fill="#b3b3b3" d="M140.843 285.437h-32.962v18.936c0 6.869 5.62 12.488 12.488 12.488h16.207c6.868 0 12.488-5.619 12.488-12.488v-18.936h-8.221z" class="colorb1b1b5 svgShape"></path>
    <path fill="#d3d3d3" d="m94.797 261.103.277 18.292c.104 6.869 5.619 12.488 12.489 12.488h41.821c6.868 0 12.591-5.619 12.487-12.488l-.276-18.299c-21.814.689-44.849.007-66.798.007z" class="colord1d1d6 svgShape"></path>
    <path fill="#b3b3b3" d="M140.843 291.883h8.54c6.868 0 12.591-5.619 12.487-12.488l-.276-18.299a580.9 580.9 0 0 1-8.537.203l.273 18.095c.104 6.87-5.619 12.489-12.487 12.489z" class="colorb1b1b5 svgShape"></path>
    <path fill="#ffffff" d="M82.168 241.928v12.49c0 6.869 5.62 12.488 12.488 12.488h66.799c6.868 0 12.487-5.619 12.487-12.488l.001-12.489-91.775-.001z" class="coloreceff1 svgShape"></path>
    <path fill="#d3d3d3" d="M152.914 266.906h8.541c6.868 0 12.487-5.619 12.487-12.488l.001-12.489h-8.54v12.489c-.002 6.869-5.621 12.488-12.489 12.488z" class="colord1d1d6 svgShape"></path>
  </g>
</svg>
