<?xml version="1.0" encoding="utf-8" standalone="yes"?>
<!DOCTYPE svg PUBLIC "-//W3C//DTD SVG 1.1//EN" "http://www.w3.org/Graphics/SVG/1.1/DTD/svg11.dtd">
<svg width="639" height="650" viewBox="0 0 639 650" style="fill:none;stroke:none;fill-rule:evenodd;clip-rule:evenodd;stroke-linecap:round;stroke-linejoin:round;stroke-miterlimit:1.5;" version="1.1" xmlns="http://www.w3.org/2000/svg" xmlns:xlink="http://www.w3.org/1999/xlink"><style id="fontImports">@import url("https://fonts.googleapis.com/css2?family=Roboto:wght@400;700&amp;display=block");</style><g id="items" style="isolation: isolate"><g id="blend" style="mix-blend-mode: normal"><g id="g-root-5.cu_sy_hxse3f5vbpxm-fill" data-item-order="-133050" transform="translate(126.6251220703125, 457.4814453125)"></g><g id="g-root-5.line_sy_4myct75vbocr-fill" data-item-order="-133045" transform="translate(211, 495)"></g><g id="g-root-4.cu_sy_74uor5vbp50-fill" data-item-order="-133042" transform="translate(114.130615234375, 385.091796875)"></g><g id="g-root-4.line_sy_1qclwez5vbpql-fill" data-item-order="-133037" transform="translate(220, 429)"></g><g id="g-root-3.cu_sy_1lwseaj5vbqiu-fill" data-item-order="-133034" transform="translate(95.21722412109375, 312.150390625)"></g><g id="g-root-3.line_sy_1d1rv4r5vbo5r-fill" data-item-order="-133029" transform="translate(236, 351)"></g><g id="g-root-2.cu_sy_1464uvv5vbpq8-fill" data-item-order="-133026" transform="translate(66.27499389648438, 239.5830078125)"></g><g id="g-root-2.line_sy_1464uvv5vbpq9-fill" data-item-order="-133021" transform="translate(259, 279)"></g><g id="g-root-1.cu_sy_qvatln5vbo5e-fill" data-item-order="-133018" transform="translate(15, 147)"></g><g id="g-root-1.line_sy_hzntcr5vboy3-fill" data-item-order="-133013" transform="translate(295, 207)"></g><g id="g-root-touc_1hcklsr65fhfl-fill" data-item-order="0" transform="translate(147.224365234375, 195.111328125)"></g><g id="g-root-tx_salesint_18it0t765fh8n-fill" data-item-order="0" transform="translate(375.112060546875, 195)"><g id="tx_salesint_18it0t765fh8n-fill" stroke="none" fill="#484848"><g><text style="font: 20px Roboto, sans-serif; white-space: pre;" font-size="20px" font-family="Roboto, sans-serif"><tspan x="12" y="34" dominant-baseline="ideographic">Sales Interaction</tspan></text></g></g></g><g id="g-root-sett_18isxnf65bb49-fill" data-item-order="0" transform="translate(147.224365234375, 267.111328125)"></g><g id="g-root-tx_invoicin_1ltn23f65fiti-fill" data-item-order="0" transform="translate(375.112060546875, 267)"><g id="tx_invoicin_1ltn23f65fiti-fill" stroke="none" fill="#484848"><g><text style="font: 20px Roboto, sans-serif; white-space: pre;" font-size="20px" font-family="Roboto, sans-serif"><tspan x="12" y="34" dominant-baseline="ideographic">Invoicing Automation</tspan></text></g></g></g><g id="g-root-ribb_1urt3rv5vhber-fill" data-item-order="0" transform="translate(147.224365234375, 339.111328125)"></g><g id="g-root-tx_warehous_1q9gk7v65fi19-fill" data-item-order="0" transform="translate(375.112060546875, 339)"><g id="tx_warehous_1q9gk7v65fi19-fill" stroke="none" fill="#484848"><g><text style="font: 20px Roboto, sans-serif; white-space: pre;" font-size="20px" font-family="Roboto, sans-serif"><tspan x="12" y="34" dominant-baseline="ideographic">Warehouse Management</tspan></text></g></g></g><g id="g-root-1_1ir8b5v4nb6-fill" data-item-order="0" transform="translate(147.224365234375, 411.111328125)"></g><g id="g-root-tx_delivery_4j6jiz65fjt8-fill" data-item-order="0" transform="translate(375.112060546875, 411)"><g id="tx_delivery_4j6jiz65fjt8-fill" stroke="none" fill="#484848"><g><text style="font: 20px Roboto, sans-serif; white-space: pre;" font-size="20px" font-family="Roboto, sans-serif"><tspan x="12" y="34" dominant-baseline="ideographic">Delivery Coordination</tspan></text></g></g></g><g id="g-root-bubb_1hbz3h75vfwub-fill" data-item-order="0" transform="translate(147.224365234375, 483.111328125)"></g><g id="g-root-tx_paymentp_qqa25765fhfn-fill" data-item-order="0" transform="translate(375.112060546875, 483)"><g id="tx_paymentp_qqa25765fhfn-fill" stroke="none" fill="#484848"><g><text style="font: 20px Roboto, sans-serif; white-space: pre;" font-size="20px" font-family="Roboto, sans-serif"><tspan x="12" y="34" dominant-baseline="ideographic">Payment Processing</tspan></text></g></g></g><g id="g-root-5.cu_sy_hxse3f5vbpxm-stroke" data-item-order="-133050" transform="translate(126.6251220703125, 457.4814453125)"><g id="5.cu_sy_hxse3f5vbpxm-stroke" fill="none" stroke-linecap="round" stroke-linejoin="round" stroke-miterlimit="4" stroke="#e0cb15" stroke-width="2"><g><path d="M 54.374901 95.518921C 34.368889 95.518921 18.150795 90.146302 18.150795 83.518921L 18.102104 82.950318C 15.967704 58.092285 13.296898 33.858887 10.045501 10.392701L 10 10C 10.806297 17.508789 30.381492 23.518097 54.411705 23.518097C 77.489296 23.518097 96.458198 17.9758 98.6399 10.88559L 98.736198 10.162903C 95.4515 33.836914 92.758094 58.292389 90.610695 83.382996L 90.598991 83.518921C 90.598991 90.146302 74.380897 95.518921 54.374901 95.518921Z"></path></g></g></g><g id="g-root-5.line_sy_4myct75vbocr-stroke" data-item-order="-133045" transform="translate(211, 495)"><g id="5.line_sy_4myct75vbocr-stroke" fill="none" stroke-linecap="round" stroke-linejoin="round" stroke-miterlimit="4" stroke="#484848" stroke-width="2"><g><path d="M 150 10L 12 10"></path><path d="M 18 3.5L 11.5 10L 18 16.5" stroke-dasharray="none"></path></g></g></g><g id="g-root-4.cu_sy_74uor5vbp50-stroke" data-item-order="-133042" transform="translate(114.130615234375, 385.091796875)"><g id="4.cu_sy_74uor5vbp50-stroke" fill="none" stroke-linecap="round" stroke-linejoin="round" stroke-miterlimit="4" stroke="#3cc583" stroke-width="2"><g><path d="M 123.726304 10.060699C 118.860703 33.229309 114.713501 57.451202 111.230805 82.551819L 111.1344 83.275391C 108.952698 90.3656 89.983811 95.907806 66.906205 95.907806C 42.875992 95.907806 23.300805 89.89859 22.494507 82.389801L 22.409806 81.844116C 18.944504 56.973999 14.825402 32.969208 10 10L 10.022202 10.120697C 12.338807 17.825104 36.921708 23.887787 66.906205 23.887787C 96.220307 23.887787 120.371705 18.093201 123.601609 10.63501L 123.726304 10.060699Z"></path></g></g></g><g id="g-root-4.line_sy_1qclwez5vbpql-stroke" data-item-order="-133037" transform="translate(220, 429)"><g id="4.line_sy_1qclwez5vbpql-stroke" fill="none" stroke-linecap="round" stroke-linejoin="round" stroke-miterlimit="4" stroke="#484848" stroke-width="2"><g><path d="M 141 10L 12 10"></path><path d="M 18 3.5L 11.5 10L 18 16.5" stroke-dasharray="none"></path></g></g></g><g id="g-root-3.cu_sy_1lwseaj5vbqiu-stroke" data-item-order="-133034" transform="translate(95.21722412109375, 312.150390625)"><g id="3.cu_sy_1lwseaj5vbqiu-stroke" fill="none" stroke-linecap="round" stroke-linejoin="round" stroke-miterlimit="4" stroke="#de58a9" stroke-width="2"><g><path d="M 142.515106 83.576416C 139.285095 91.034607 115.133698 96.829193 85.819595 96.829193C 55.835098 96.829193 31.252197 90.76651 28.935593 83.062103L 28.913498 82.942016C 23.5168 57.253296 17.236801 32.859893 10 10L 10.157898 10.494995C 14.0896 18.564209 46.464096 24.858703 85.819595 24.858703C 124.648193 24.858703 156.681503 18.731689 161.308106 10.818206L 161.460999 10.332C 154.262802 33.114105 148.013199 57.416107 142.639694 83.002685L 142.515106 83.576416Z"></path></g></g></g><g id="g-root-3.line_sy_1d1rv4r5vbo5r-stroke" data-item-order="-133029" transform="translate(236, 351)"><g id="3.line_sy_1d1rv4r5vbo5r-stroke" fill="none" stroke-linecap="round" stroke-linejoin="round" stroke-miterlimit="4" stroke="#484848" stroke-width="2"><g><path d="M 125 10L 12 10"></path><path d="M 18 3.5L 11.5 10L 18 16.5" stroke-dasharray="none"></path></g></g></g><g id="g-root-2.cu_sy_1464uvv5vbpq8-stroke" data-item-order="-133026" transform="translate(66.27499389648438, 239.5830078125)"><g id="2.cu_sy_1464uvv5vbpq8-stroke" fill="none" stroke-linecap="round" stroke-linejoin="round" stroke-miterlimit="4" stroke="#3cc583" stroke-width="2"><g><path d="M 10.177612 10.366302C 21.096207 32.180099 30.647613 56.366913 38.9422 82.568207L 39.100113 83.062683C 43.031799 91.131897 75.406311 97.4263 114.76181 97.4263C 153.590408 97.4263 185.623703 91.299316 190.250412 83.385803L 190.403198 82.900207C 198.741608 56.509399 208.352997 32.158203 219.350006 10.212204L 219.322998 10.227295C 213.718597 18.767807 169.0298 25.421295 114.731415 25.421295C 59.952408 25.421295 14.953903 18.649505 10.000305 10L 10.177612 10.366302Z"></path></g></g></g><g id="g-root-2.line_sy_1464uvv5vbpq9-stroke" data-item-order="-133021" transform="translate(259, 279)"><g id="2.line_sy_1464uvv5vbpq9-stroke" fill="none" stroke-linecap="round" stroke-linejoin="round" stroke-miterlimit="4" stroke="#484848" stroke-width="2"><g><path d="M 102 10L 12 10"></path><path d="M 18 3.5L 11.5 10L 18 16.5" stroke-dasharray="none"></path></g></g></g><g id="g-root-1.cu_sy_qvatln5vbo5e-stroke" data-item-order="-133018" transform="translate(15, 147)"><g id="1.cu_sy_qvatln5vbo5e-stroke" fill="none" stroke-linecap="round" stroke-linejoin="round" stroke-miterlimit="4" stroke="#1eabda" stroke-width="2"><g><path d="M 166.224121 10C 80.067703 10 10.224121 18.058868 10.224121 28C 10.224121 37.941132 80.067703 46 166.224121 46C 252.380539 46 322.224121 37.941132 322.224121 28C 322.224121 18.058868 252.380539 10 166.224121 10M 11.027405 30.074219C 29.267578 49.009018 48.518097 75.196014 61.312286 103.055222C 67.922592 111.482422 108.929688 118.000519 165.989792 118.000519C 223.248993 118.000519 264.563202 111.439026 270.912994 102.96933C 283.707581 75.101227 303.159302 49.009018 320.95459 30.09642"></path></g></g></g><g id="g-root-1.line_sy_hzntcr5vboy3-stroke" data-item-order="-133013" transform="translate(295, 207)"><g id="1.line_sy_hzntcr5vboy3-stroke" fill="none" stroke-linecap="round" stroke-linejoin="round" stroke-miterlimit="4" stroke="#484848" stroke-width="2"><g><path d="M 66 10L 12 10"></path><path d="M 18 3.5L 11.5 10L 18 16.5" stroke-dasharray="none"></path></g></g></g><g id="g-root-touc_1hcklsr65fhfl-stroke" data-item-order="0" transform="translate(147.224365234375, 195.111328125)"><g id="touc_1hcklsr65fhfl-stroke" fill="none" stroke-linecap="round" stroke-linejoin="round" stroke-miterlimit="4" stroke="#1eabda" stroke-width="2"><g><path d="M 23 45L 15 45C 12.790861 45 11 43.209141 11 41L 11 15C 11 12.790861 12.790861 11 15 11L 53 11C 55.209141 11 57 12.790861 57 15L 57 40M 20 45L 20 11M 15.5 27.5L 15.5 27.5C 15.776142 27.5 16 27.723858 16 28L 16 28C 16 28.276142 15.776142 28.5 15.5 28.5L 15.5 28.5C 15.223858 28.5 15 28.276142 15 28L 15 28C 15 27.723858 15.223858 27.5 15.5 27.5M 35.299999 57L 27.700001 47.84C 26.74061 46.56311 26.949835 44.758427 28.175924 43.734909C 29.402014 42.711391 31.21504 42.82793 32.300003 44L 37 49.66L 37 30C 37 28.343147 38.343147 27 40 27C 41.656853 27 43 28.343147 43 30L 43 43L 49 43C 53.418278 43 57 46.581722 57 51L 57 57M 53 25L 53 31"></path></g></g></g><g id="g-root-tx_salesint_18it0t765fh8n-stroke" data-item-order="0" transform="translate(375.112060546875, 195)"></g><g id="g-root-sett_18isxnf65bb49-stroke" data-item-order="0" transform="translate(147.224365234375, 267.111328125)"><g id="sett_18isxnf65bb49-stroke" fill="none" stroke-linecap="round" stroke-linejoin="round" stroke-miterlimit="4" stroke="#3cc583" stroke-width="2"><g><path d="M 42.625999 44.062C 42.626003 45.649269 43.912735 46.936001 45.5 46.936001C 47.087269 46.936001 48.374001 45.649269 48.374001 44.062C 48.374001 42.474735 47.087269 41.188004 45.5 41.188004C 43.912735 41.188004 42.626003 42.474735 42.626003 44.062ZM 47.942001 32.940002L 48.790001 35.723999C 49.078423 36.683449 50.061653 37.254669 51.038002 37.029999L 53.862 36.375999C 54.959873 36.12854 56.09087 36.625343 56.65136 37.601265C 57.211845 38.577183 57.071003 39.804428 56.304001 40.627998L 54.327999 42.757999C 53.651917 43.492813 53.651917 44.623184 54.327999 45.357998L 56.304001 47.487999C 57.071003 48.311573 57.211845 49.538818 56.65136 50.514736C 56.09087 51.490654 54.959873 51.987461 53.862 51.740002L 51.037998 51.084C 50.062374 50.868229 49.085728 51.442524 48.799999 52.400002L 47.952 55.183998C 47.627914 56.261845 46.635513 56.999741 45.509998 56.999741C 44.384487 56.999741 43.392086 56.261845 43.068001 55.183998L 42.209999 52.400002C 41.919922 51.441864 40.938034 50.871422 39.961998 51.094002L 37.138 51.75C 36.040127 51.997459 34.90913 51.500656 34.34864 50.524734C 33.788155 49.548817 33.928997 48.321571 34.695999 47.498001L 36.672001 45.368C 37.348076 44.633183 37.348076 43.502815 36.671997 42.767998L 34.695999 40.638C 33.928997 39.81443 33.788155 38.587181 34.34864 37.611263C 34.90913 36.635345 36.040127 36.138542 37.138 36.386002L 39.961998 37.040001C 40.938347 37.264668 41.921577 36.693451 42.209999 35.734001L 43.057999 32.950001C 43.379871 31.871485 44.370766 31.13155 45.496281 31.129246C 46.621799 31.126942 47.615715 31.862812 47.942001 32.940002ZM 29 39L 14 39C 12.343145 39 11 37.656853 11 36L 11 14C 11 12.343145 12.343145 11 14 11L 50 11C 51.656857 11 53 12.343145 53 14L 53 29M 52.133999 11.892L 32 28L 11.866 11.892"></path></g></g></g><g id="g-root-tx_invoicin_1ltn23f65fiti-stroke" data-item-order="0" transform="translate(375.112060546875, 267)"></g><g id="g-root-ribb_1urt3rv5vhber-stroke" data-item-order="0" transform="translate(147.224365234375, 339.111328125)"><g id="ribb_1urt3rv5vhber-stroke" fill="none" stroke-linecap="round" stroke-linejoin="round" stroke-miterlimit="4" stroke="#de58a9" stroke-width="2"><g><path d="M 14 53C 14 55.209141 15.790861 57 18 57C 20.209139 57 22 55.209141 22 53C 22 50.790859 20.209139 49 18 49C 15.790861 49 14 50.790859 14 53ZM 34 53C 34 55.209141 35.790863 57 38 57C 40.209137 57 42 55.209141 42 53C 42 50.790859 40.209137 49 38 49C 35.790863 49 34 50.790859 34 53ZM 57 11L 52.259998 11C 50.359676 11.000563 48.722065 12.338071 48.341999 14.2L 42.658001 41.799999C 42.277935 43.66193 40.640324 44.999439 38.739998 45L 11 45M 22 25L 22 36L 26 33L 30 36L 30 25M 38 27C 38 25.895432 37.104568 25 36 25L 16 25C 14.895431 25 14 25.895432 14 27L 14 45L 38 45ZM 19 25L 19 15C 19 13.89543 19.89543 13 21 13L 31 13C 32.104568 13 33 13.89543 33 15L 33 25L 33 25L 19 25L 19 25Z"></path></g></g></g><g id="g-root-tx_warehous_1q9gk7v65fi19-stroke" data-item-order="0" transform="translate(375.112060546875, 339)"></g><g id="g-root-1_1ir8b5v4nb6-stroke" data-item-order="0" transform="translate(147.224365234375, 411.111328125)"><g id="1_1ir8b5v4nb6-stroke" fill="none" stroke-linecap="round" stroke-linejoin="round" stroke-miterlimit="4" stroke="#3cc583" stroke-width="2"><g><path d="M 49 45L 55 45C 56.104568 45 57 44.104568 57 43C 57 41.895432 56.104568 41 55 41L 52.27 20.982C 52.115044 19.846846 51.145683 19.000469 50.000004 19L 24 19M 55 41L 25 41M 25 19L 20.354 19C 19.536346 19.000519 18.80135 19.498699 18.498001 20.257999L 11.144 38.643997C 11.048509 38.879707 10.999607 39.131683 11 39.386002L 11 43C 11 44.104568 11.895431 45 13 45L 21 45M 37 19L 37 41M 21 45C 21 47.209141 22.790861 49 25 49C 27.209139 49 29 47.209141 29 45C 29 42.790859 27.209139 41 25 41C 22.790861 41 21 42.790859 21 45ZM 14.2 31L 25 31M 11 39L 16 39M 52.27 21L 55 21M 41 45C 41 47.209141 42.790859 49 45 49C 47.209141 49 49 47.209141 49 45C 49 42.790859 47.209141 41 45 41C 42.790859 41 41 42.790859 41 45ZM 29 25L 33 25L 33 31L 29 31ZM 25 41L 25 19M 29 45L 41 45"></path></g></g></g><g id="g-root-tx_delivery_4j6jiz65fjt8-stroke" data-item-order="0" transform="translate(375.112060546875, 411)"></g><g id="g-root-bubb_1hbz3h75vfwub-stroke" data-item-order="0" transform="translate(147.224365234375, 483.111328125)"><g id="bubb_1hbz3h75vfwub-stroke" fill="none" stroke-linecap="round" stroke-linejoin="round" stroke-miterlimit="4" stroke="#e0cb15" stroke-width="2"><g><path d="M 18.368 27.252001C 18.911028 28.187891 19.918137 28.756493 21 28.738001C 22.530045 28.81411 23.834877 27.641459 23.922001 26.112001C 23.834887 24.582827 22.529701 23.410751 21 23.487999C 19.469219 23.564085 18.16407 22.390255 18.078001 20.860001C 18.165112 19.330826 19.470297 18.158752 21 18.236C 22.081341 18.217525 23.08815 18.785194 23.632 19.720001M 21 28.738001L 21 30.486M 21 16.486L 21 18.236M 11 16.964001L 11 30.535999C 11 33.849709 13.686292 36.536003 17 36.536003L 25 36.535999L 35 43.535999L 35 36.535999L 39 36.535999C 42.313709 36.536003 45 33.849709 45 30.536001L 45 16.964001C 45 13.650291 42.313709 10.964 39 10.964L 17 10.964C 13.686292 10.964 11 13.650291 11 16.964001ZM 31 18.964001L 37 18.964001M 31 24.964001L 37 24.964001M 49 33.035999L 55 33.035999C 56.104568 33.035999 57 33.931431 57 35.035999L 57 55.035999C 57 56.140568 56.104568 57.035999 55 57.035999L 45 57.035999C 43.895432 57.035999 43 56.140568 43 55.035999L 43 41.035999M 57 51.035999L 43 51.035999"></path></g></g></g><g id="g-root-tx_paymentp_qqa25765fhfn-stroke" data-item-order="0" transform="translate(375.112060546875, 483)"></g></g></g></svg>