<?xml version="1.0" encoding="utf-8"?>
<!-- Generator: Adobe Illustrator 27.5.0, SVG Export Plug-In . SVG Version: 6.00 Build 0)  -->
<svg version="1.1" xmlns="http://www.w3.org/2000/svg" xmlns:xlink="http://www.w3.org/1999/xlink" x="0px" y="0px"
	 viewBox="0 0 3710 3710" style="enable-background:new 0 0 3710 3710;" xml:space="preserve">
<g id="Background">
	<g>
		<g>
			<rect style="fill:transparent;" width="3710" height="3710"/>
		</g>
	</g>
</g>
<g id="Illustration">
	<g>
		<linearGradient id="SVGID_1_" gradientUnits="userSpaceOnUse" x1="475.0614" y1="1845.7831" x2="3253.8008" y2="1845.7831">
			<stop  offset="0" style="stop-color:#DAE3FE"/>
			<stop  offset="1" style="stop-color:#E9EFFD"/>
		</linearGradient>
		<path style="fill:url(#SVGID_1_);" d="M2931.707,2845.308c-57.059,59.851-111.048,98.448-153.704,128.942
			c-501.408,358.456-1094.707,253.968-1220.8,228.45c-186.199-37.68-546.119-110.516-806.334-415.409
			c-393.684-461.278-332.381-1188.009-27.014-1667.734c55.857-87.75,350.907-574.782,950.596-652.887
			c362.925-47.268,785.98,48.066,1092.344,303.804C3409.883,1307.291,3364.102,2391.755,2931.707,2845.308z"/>
		<g>
			<path style="fill:#BDD0FB;" d="M1633.41,1872.677c0,0-179.319-895.334-611.656-1392.888
				c-29.063-33.447-85.55-22.399-99.495,19.592C829.02,780.164,635.995,1634.292,1633.41,1872.677z"/>
			<path style="opacity:0.5;fill:#FFFFFF;" d="M1543.827,1812.823c2.163,2.184-0.977,5.459-3.43,3.578
				c-90.43-69.341-436.918-407.396-540.995-1065.141c-0.334-2.113,2.915-2.826,3.439-0.751
				C1041.403,903.368,1201.772,1467.509,1543.827,1812.823z"/>
		</g>
		<g>
			<path style="fill:#91B3FA;" d="M457.516,748.53c-3.54-3.894,0.651-10.795,5.539-9.095
				c78.021,27.13,356.392,145.639,497.115,493.042c128.755,317.858,168.932,568.601,180.334,662.879
				c2.254,18.643-15.13,34.884-31.467,29.38c-96.828-32.622-362.225-139.849-428.856-353.016
				C600.558,1316.985,626.462,934.35,457.516,748.53z"/>
			<path style="opacity:0.5;fill:#FFFFFF;" d="M653.227,954.932c0,0,233.361,166.581,465.578,938.599
				C1118.805,1893.532,846.232,1134.893,653.227,954.932z"/>
		</g>
		<g>
			<g>
				<path style="fill:#7D97F4;" d="M995.122,975.857c216.356,15.737,494.471,14.903,802.853,5.947l-118.941,1147.782l-658.522,30.14
					L995.122,975.857z"/>
				<path style="fill:#91B3FA;" d="M995.122,1059.116c216.356,15.737,494.471,14.903,802.853,5.947l-118.941,1147.782
					l-658.522,30.14L995.122,1059.116z"/>
			</g>
			<g>
				
					<linearGradient id="SVGID_00000026158204601407051760000003277520596803088290_" gradientUnits="userSpaceOnUse" x1="154.8274" y1="2492.9768" x2="259.8148" y2="6198.9771" gradientTransform="matrix(0.9386 0.345 -0.345 0.9386 3004.9209 -2179.1553)">
					<stop  offset="0" style="stop-color:#FEBBBA"/>
					<stop  offset="1" style="stop-color:#FF928E"/>
				</linearGradient>
				<path style="fill:url(#SVGID_00000026158204601407051760000003277520596803088290_);" d="M2124.804,1731.068
					c-146.178,493.198-398.243,832.202-563.004,757.186s-179.824-535.645-33.646-1028.844s398.244-832.202,563.004-757.186
					C2255.918,777.24,2270.982,1237.869,2124.804,1731.068z"/>
				
					<linearGradient id="SVGID_00000030483374119721723110000000245081359017000630_" gradientUnits="userSpaceOnUse" x1="1028.9746" y1="3670.1042" x2="471.5628" y2="5008.4297" gradientTransform="matrix(0.761 0.6488 -0.6488 0.761 4107.0439 -2530.4888)">
					<stop  offset="0" style="stop-color:#FF928E"/>
					<stop  offset="1" style="stop-color:#FE7062"/>
				</linearGradient>
				<path style="fill:url(#SVGID_00000030483374119721723110000000245081359017000630_);" d="M2098.576,1372.638
					c-13.711,20.38-90.798-34.359-172.179-122.264c-81.38-87.905-136.237-175.687-122.526-196.067
					c13.711-20.38,90.799,34.359,172.179,122.264C2057.431,1264.476,2112.288,1352.258,2098.576,1372.638z"/>
				
					<linearGradient id="SVGID_00000170969946933243172060000002386639052844437931_" gradientUnits="userSpaceOnUse" x1="1183.5077" y1="3790.0684" x2="626.0958" y2="5128.394" gradientTransform="matrix(0.761 0.6488 -0.6488 0.761 4107.0439 -2530.4888)">
					<stop  offset="0" style="stop-color:#FF928E"/>
					<stop  offset="1" style="stop-color:#FE7062"/>
				</linearGradient>
				<path style="fill:url(#SVGID_00000170969946933243172060000002386639052844437931_);" d="M2011.033,1628.888
					c-13.711,20.38-90.799-34.359-172.179-122.264c-81.38-87.905-136.237-175.687-122.526-196.067
					c13.711-20.38,90.799,34.359,172.179,122.264C1969.888,1520.726,2024.745,1608.508,2011.033,1628.888z"/>
				
					<linearGradient id="SVGID_00000072980312590663313410000014134653412380605326_" gradientUnits="userSpaceOnUse" x1="1237.3917" y1="4302.6035" x2="699.9709" y2="5156.1553" gradientTransform="matrix(0.761 0.6488 -0.6488 0.761 4107.0439 -2530.4888)">
					<stop  offset="0" style="stop-color:#FF928E"/>
					<stop  offset="1" style="stop-color:#FE7062"/>
				</linearGradient>
				<path style="fill:url(#SVGID_00000072980312590663313410000014134653412380605326_);" d="M1925.489,1855.482
					c-13.711,20.38-90.799-34.359-172.179-122.264c-81.38-87.905-136.237-175.687-122.526-196.067
					c13.711-20.38,90.799,34.359,172.179,122.264C1884.343,1747.319,1939.2,1835.101,1925.489,1855.482z"/>
				
					<linearGradient id="SVGID_00000042738450993173391830000012013256329650378940_" gradientUnits="userSpaceOnUse" x1="1378.1285" y1="4424.9165" x2="840.7077" y2="5278.4683" gradientTransform="matrix(0.761 0.6488 -0.6488 0.761 4107.0439 -2530.4888)">
					<stop  offset="0" style="stop-color:#FF928E"/>
					<stop  offset="1" style="stop-color:#FE7062"/>
				</linearGradient>
				<path style="fill:url(#SVGID_00000042738450993173391830000012013256329650378940_);" d="M1831.043,2078.057
					c-13.711,20.38-90.799-34.359-172.179-122.264s-136.237-175.687-122.526-196.067c13.711-20.38,90.799,34.359,172.179,122.264
					C1789.898,1969.895,1844.754,2057.677,1831.043,2078.057z"/>
			</g>
			<g>
				
					<linearGradient id="SVGID_00000100381357289860048850000002288588024068033451_" gradientUnits="userSpaceOnUse" x1="2368.2361" y1="1576.0049" x2="2410.7849" y2="1997.238" gradientTransform="matrix(0.9945 -0.1046 0.1046 0.9945 -302.9346 94.9863)">
					<stop  offset="0" style="stop-color:#4F52FF"/>
					<stop  offset="1" style="stop-color:#4042E2"/>
				</linearGradient>
				<path style="fill:url(#SVGID_00000100381357289860048850000002288588024068033451_);" d="M2460.22,1719.623
					c-0.784-4.823-1.937-9.518-3.823-14.035c-1.89-4.528-4.678-8.829-6.054-13.555c-1.276-4.382,0.147-8.419,1.413-12.649
					c1.439-4.808,2.482-9.445,2.711-14.484c0.455-9.998-2.725-19.742-7.27-28.521c-8.385-16.196-23.213-29.51-39.317-37.783
					c-7.743-3.978-16.165-7.026-24.707-8.733c-9.324-1.863-19.886-1.106-28.581-5.339c-7.806-3.8-13.862-10.578-21.058-15.354
					c-8.093-5.371-17.373-7.591-27.033-7.431c-9.488,0.157-18.79,2.573-28.286,2.634c-8.252,0.053-14.972-3.648-21.855-7.798
					c-15.131-9.122-30.19-16.953-47.748-8.938c-8.113,3.703-15.144,9.899-24.402,10.075c-9.675,0.183-18.548-0.628-28.133,1.423
					c-34.349,7.349-60.117,38.426-62.914,72.926c-0.17,2.094,0.573,4.038,1.833,5.646c-0.874,1.166-1.713,2.363-2.48,3.614
					c-8.646,14.111-9.832,32.078-4.258,47.501c6.443,17.829,19.454,30.674,34.301,41.772c3.63,2.714,7.624,5.612,9.714,9.758
					c2.116,4.198,1.938,9.305,1.821,13.872c-0.248,9.63-0.991,19.095,3.042,28.134c3.731,8.36,10.113,15.073,16.973,20.987
					c8.292,7.15,16.907,13.95,25.369,20.898c8.496,6.977,16.962,13.991,25.49,20.929c7.227,5.879,14.879,11.699,23.559,15.246
					c9.277,3.791,18.658,4.571,28.367,1.904c5.13-1.409,10.29-4.088,15.665-4.332c4.755-0.216,9.42,1.557,13.905,2.925
					c18.786,5.733,38.268,4.366,55.776-4.759c7.239-3.773,13.82-12.198,21.78-14.09c4.827-1.147,10.255,0.426,15.164,0.464
					c4.48,0.035,8.977-0.642,13.332-1.658c20.196-4.712,32.112-20.137,42.202-37.04c10.254-17.178,20.135-35.42,24.376-55.15
					C2461.144,1739.148,2461.788,1729.268,2460.22,1719.623z"/>
				
					<linearGradient id="SVGID_00000139987889750142974980000013854563493192086933_" gradientUnits="userSpaceOnUse" x1="2258.6841" y1="963.2446" x2="2098.5728" y2="1552.1299" gradientTransform="matrix(0.9945 -0.1046 0.1046 0.9945 -302.9346 94.9863)">
					<stop  offset="0" style="stop-color:#4F52FF"/>
					<stop  offset="1" style="stop-color:#4042E2"/>
				</linearGradient>
				<path style="fill:url(#SVGID_00000139987889750142974980000013854563493192086933_);" d="M1830.742,1174.855
					c-14.691,37.991-1.682,78.028,15.418,112.712c9.916,20.112,22.246,37.475,44.824,43.818c18.645,5.239,39.032,7.69,58.367,8.015
					c39.226,0.658,80.422-10.528,108.481-39.322c7.279-7.47,13.798-15.847,18.585-25.134c0.651-1.263,1.506-2.751,2.097-4.15
					c3.28,0.94,8.714,1.775,8.991,1.816c14.035,2.093,26.526-3.401,35.331-13.055c4.034-1.013,7.67-4.557,7.087-9.809
					c-0.009-0.079-0.018-0.159-0.027-0.238c0.51-0.966,0.999-1.948,1.45-2.953c2.403-5.346,0.288-11.521-3.631-15.769
					c-3.045-23.92-7.641-47.563-20.018-68.805c-6.944-11.918-15.758-21.96-26.367-30.743c-10.533-8.721-22.438-15.859-32.155-25.537
					c-10.543-10.5-14.433-24.756-23.596-36.227c-6.911-8.652-17.097-14.824-27.844-17.383c-22.721-5.411-47.763,1.953-63.801,18.984
					c-13.971,14.835-21.524,33.659-24.802,53.38C1875.675,1119.277,1842.873,1143.486,1830.742,1174.855z"/>
				
					<linearGradient id="SVGID_00000150782498457131338190000015158318528255491498_" gradientUnits="userSpaceOnUse" x1="2331.6157" y1="1223.6509" x2="2831.377" y2="2283.5837" gradientTransform="matrix(0.9945 -0.1046 0.1046 0.9945 -302.9346 94.9863)">
					<stop  offset="0" style="stop-color:#4F52FF"/>
					<stop  offset="1" style="stop-color:#4042E2"/>
				</linearGradient>
				<path style="fill:url(#SVGID_00000150782498457131338190000015158318528255491498_);" d="M2219.756,1581.802
					c2.36,31.247,17.247,59.614,42.98,77.798c18.077,12.774,40.135,19.582,61.76,16.857c8.583,29.349,28.398,55.062,56.489,68.661
					c31.66,15.326,68.93,14.171,99.983-1.906c15.86-8.212,29.394-15.946,47.198-19.299c16.181-3.048,32.725-4.53,48.554-9.267
					c31.186-9.333,55.802-34.036,59.538-67.21c2.944-26.148-8.033-51.388-27.751-67.448c37.125-44.878,39.565-112.89-2.603-157.133
					c-19.073-20.012-46.201-32.668-73.811-35.456c-23.947-24.764-55.371-41.704-91.251-33.826
					c-27.507,6.04-47.154,29.308-50.716,55.481c-24.949-6.055-52.302-1.886-75.366,9.546
					C2258.338,1446.565,2214.979,1518.557,2219.756,1581.802z"/>
				
					<linearGradient id="SVGID_00000145021638774063020200000013152942070769256621_" gradientUnits="userSpaceOnUse" x1="2328.772" y1="1705.9557" x2="2007.3088" y2="1391.7653" gradientTransform="matrix(0.9945 -0.1046 0.1046 0.9945 -302.9346 94.9863)">
					<stop  offset="0" style="stop-color:#4F52FF"/>
					<stop  offset="1" style="stop-color:#4042E2"/>
				</linearGradient>
				<path style="fill:url(#SVGID_00000145021638774063020200000013152942070769256621_);" d="M1795.202,1468.272
					c9.43,28.233,29.731,50.905,57.656,61.677c19.617,7.568,41.515,8.716,60.801,1.184c14.722,25.04,38.944,44.122,67.977,50.124
					c32.721,6.764,66.782-2.955,91.65-24.976c12.701-11.247,23.371-21.514,38.991-28.737c14.197-6.565,29.09-11.773,42.571-19.812
					c26.557-15.839,43.494-44.31,39.231-75.733c-3.36-24.769-19.333-45.467-41.225-55.68c23.773-49.958,10.226-113.17-38.89-144.129
					c-22.216-14.003-50.142-19.361-76.221-15.516c-27.808-17.248-60.687-25.554-91.906-9.965
					c-23.934,11.951-36.627,37.946-33.83,62.881c-24.386,0.217-48.613,10.409-67.202,26.296
					C1799.333,1334.746,1776.115,1411.127,1795.202,1468.272z"/>
				<g>
					
						<linearGradient id="SVGID_00000127741208970236697380000004451593046208485563_" gradientUnits="userSpaceOnUse" x1="3763.8455" y1="-1891.1755" x2="3473.7559" y2="-1176.069" gradientTransform="matrix(0.9945 -0.1046 0.1046 0.9945 -302.9346 94.9863)">
						<stop  offset="0" style="stop-color:#4F52FF"/>
						<stop  offset="1" style="stop-color:#4042E2"/>
					</linearGradient>
					<path style="fill:url(#SVGID_00000127741208970236697380000004451593046208485563_);" d="M1972.265,1620.406
						c11.043,26.112,35.289,50.788,60.528,53.273c12.669,24.201,28.11,27.016,48.76,43.501
						c38.183,30.48,68.412,45.115,107.381,31.293c35.893-12.731,54.887-67.306,76.102-71.453s90.035,7.59,117.365,6.118
						c61.991-3.339,109.876-38.536,135.964-94.575c20.51-44.056-2.879-96.782-2.144-109.622
						c0.735-12.84,66.239-64.162,79.475-102.549c13.96-40.486,10.154-93.517-18.086-133.14
						c-13.982-19.617-36.464-34.114-56.398-45.059c-5.62-3.086-11.273-5.352-16.972-8.046c-4.816-2.277-4.851-4.118-5.567-9.427
						c-1.706-12.662-4.468-25.342-8.887-37.749c-17.742-49.811-52.094-88.56-97.684-106.191
						c-39.136-15.136-86.711-7.993-106.312-5.411s-35.273-36.346-85.943-36.551c-50.671-0.205-64.131,37.718-84.671,40.424
						c-91.649-18.068-143.319,36.417-164.197,77.803c-26.156,51.849-5.424,79.394-5.3,89.592
						c-4.047,18.922-36.331,27.936-49.647,36.422c-30.934,19.714-41.124,68.69-28.18,112.78
						c8.942,30.455,33.647,50.797,38.191,66.855s-19.351,61.966-5.578,95.395c13.066,31.713,50.518,62.056,64.869,70.589
						C1979.687,1593.21,1967.273,1608.603,1972.265,1620.406z"/>
				</g>
				
					<linearGradient id="SVGID_00000045620888409302554740000001600133900240893330_" gradientUnits="userSpaceOnUse" x1="2144.5696" y1="1278.0664" x2="2468.3892" y2="549.4732">
					<stop  offset="0" style="stop-color:#4F52FF"/>
					<stop  offset="1" style="stop-color:#4042E2"/>
				</linearGradient>
				<path style="fill:url(#SVGID_00000045620888409302554740000001600133900240893330_);" d="M2216.042,1649.257
					c-203.738,58.377-480.754,394.578-480.754,394.578l-104.828-148.273c287.914-141.889,247.228-333.128,274.49-394.837
					c6.651-15.055,28.267-18.95,25.95,10.886c-8.431,108.552-26.963,175.878-26.963,175.878
					c111.474-96.078,149.276-179.506,190.817-274.183c0,0,21.545-18.266,18.6,11.803c-1.556,15.891-19.558,75.336-55.676,134.674
					c74.385-48.773,92.03-111.189,115.609-122.697c8.015-3.912,22.413,4.162,22.413,4.162s-89.26,151.108-249.175,288.172
					c0,0,168.196-128.263,238.947-143.624c13.157-2.671,16.549,9.028,1.581,21.789c0,0-37.25,18.639-85.777,56.736
					c66.656-21.855,79.108-28.609,102.367-35.76C2226.901,1621.409,2230.662,1636.473,2216.042,1649.257z"/>
				
					<linearGradient id="SVGID_00000114073717352951162920000007995108435860638138_" gradientUnits="userSpaceOnUse" x1="1968.8228" y1="1177.9401" x2="2513.6077" y2="1795.973" gradientTransform="matrix(0.9945 -0.1046 0.1046 0.9945 -302.9346 94.9863)">
					<stop  offset="0" style="stop-color:#4F52FF"/>
					<stop  offset="1" style="stop-color:#4042E2"/>
				</linearGradient>
				<path style="fill:url(#SVGID_00000114073717352951162920000007995108435860638138_);" d="M1878.907,1353.481
					c9.737,13.335,21.767,26.276,36.907,33.471c7.885,3.747,16.365,6.037,25.12,6.217c4.673,0.096,9.287-0.614,13.848-1.587
					c4.807-1.025,10.926-3.997,15.877-3.434c8.584,0.978,17.088,8.268,25.746,10.406c7.54,1.862,15.683,2.452,23.411,1.714
					c18.064-1.726,35.229-9.395,48.145-22.221c6.458-6.413,10.658-14.085,14.796-22.062c4.347-8.381,12.549-6.313,20.665-9.498
					c19.555-7.675,30.806-27.162,37.216-46.135c8.978-26.574,8.733-64.311-12.988-84.277c7.665-18.828-1.07-42.161-17.663-54.583
					c-6.697-5.013-14.231-8.859-22.22-11.781c-4.574-13.269-14.563-24.287-28.997-29.026c-15.663-5.142-33.323-0.783-45.677,9.721
					c-39.78-28.064-94.466-30.169-135.385-1.608c-22.164,15.47-40.532,39.023-46.614,65.709
					c-4.97,21.807,1.414,45.382,18.922,57.783C1840.946,1286.924,1858.623,1325.702,1878.907,1353.481z"/>
				
					<linearGradient id="SVGID_00000104700784684401899170000016078910153903883168_" gradientUnits="userSpaceOnUse" x1="2508.6055" y1="1524.8964" x2="2759.3169" y2="2648.7727" gradientTransform="matrix(0.9945 -0.1046 0.1046 0.9945 -302.9346 94.9863)">
					<stop  offset="0" style="stop-color:#4F52FF"/>
					<stop  offset="1" style="stop-color:#4042E2"/>
				</linearGradient>
				<path style="fill:url(#SVGID_00000104700784684401899170000016078910153903883168_);" d="M2346.491,1418.636
					c-4.439,3.426-8.549,7.155-12.078,11.525c-3.537,4.381-6.355,9.544-10.374,13.515c-3.726,3.681-8.577,4.45-13.538,5.483
					c-5.639,1.174-10.889,2.654-16.1,5.175c-10.339,5.002-18.437,13.534-24.815,22.917c-11.766,17.31-17.105,39.548-16.658,60.321
					c0.215,9.988,1.738,20.154,4.681,29.707c3.212,10.429,9.746,20.675,10.223,31.763c0.429,9.954-3.105,19.769-3.994,29.641
					c-1,11.102,1.828,21.681,7.266,31.343c5.341,9.49,12.86,17.559,18.109,27.111c4.562,8.3,4.496,17.104,4.068,26.318
					c-0.941,20.255-0.62,39.731,17.06,53.073c8.17,6.166,18.264,9.878,23.498,19.125c5.469,9.664,9.497,19.063,16.803,27.618
					c26.179,30.654,71.621,39.687,107.969,23.665c2.207-0.973,3.762-2.784,4.698-4.934c1.655,0.245,3.32,0.438,5.002,0.529
					c18.965,1.018,37.747-7.599,50.269-21.649c14.476-16.242,20.333-36.389,23.425-57.437c0.756-5.146,1.5-10.761,4.543-15.134
					c3.082-4.429,8.333-7.039,13.007-9.415c9.854-5.01,19.814-9.429,26.733-18.438c6.4-8.332,9.689-18.44,11.912-28.594
					c2.687-12.275,4.844-24.684,7.235-37.02c2.401-12.386,4.856-24.762,7.2-37.159c1.986-10.506,3.68-21.407,2.519-32.106
					c-1.241-11.434-5.578-21.328-13.573-29.671c-4.225-4.408-9.747-8.153-12.929-13.444c-2.816-4.682-3.574-10.357-4.643-15.632
					c-4.476-22.092-16.496-41.009-35.27-53.695c-7.763-5.246-19.861-7.286-26.118-14.286c-3.795-4.246-5.172-10.583-7.815-15.559
					c-2.412-4.54-5.552-8.71-8.956-12.551c-15.787-17.81-37.864-21.411-60.436-22.362c-22.938-0.966-46.748-0.975-68.978,5.521
					C2365.694,1407.038,2355.37,1411.785,2346.491,1418.636z"/>
				
					<linearGradient id="SVGID_00000005969377388417392850000003205354387275449751_" gradientUnits="userSpaceOnUse" x1="2496.9282" y1="718.7899" x2="2948.9243" y2="-306.6327">
					<stop  offset="0" style="stop-color:#4F52FF"/>
					<stop  offset="1" style="stop-color:#4042E2"/>
				</linearGradient>
				<path style="fill:url(#SVGID_00000005969377388417392850000003205354387275449751_);" d="M2079.965,1130.065
					c-22.395,23.424-33.913,54.49-30.1,86.854c2.679,22.735,12.698,44.404,29.749,59.149
					c-16.632,26.898-22.701,59.917-13.731,90.922c10.11,34.944,36.773,62.805,70.612,75.564
					c17.283,6.516,32.59,11.575,47.481,22.946c13.534,10.335,26.115,22.031,40.705,30.927c28.744,17.527,64.764,19.371,92.857-0.698
					c22.143-15.819,33.959-41.715,32.673-67.984c60.184-2.489,114.17-47.648,119.029-110.671
					c2.198-28.507-6.831-58.119-23.782-81.278c2.481-35.54-6.224-71.42-37.096-93.562c-23.667-16.975-55.147-15.991-77.737-0.63
					c-12.598-23.372-34.72-41.522-59.462-51.352C2210.639,1066.207,2125.293,1082.654,2079.965,1130.065z"/>
				
					<linearGradient id="SVGID_00000069381636596825594760000014610853241031637643_" gradientUnits="userSpaceOnUse" x1="1856.8647" y1="2524.6667" x2="1850.7126" y2="2907.6492" gradientTransform="matrix(0.9558 -0.2939 0.2939 0.9558 -881.1139 -45.1892)">
					<stop  offset="0" style="stop-color:#4F52FF"/>
					<stop  offset="1" style="stop-color:#4042E2"/>
				</linearGradient>
				<path style="fill:url(#SVGID_00000069381636596825594760000014610853241031637643_);" d="M1630.46,1895.562
					c26.861-8.258,130.042,100.674,104.828,148.273S1577.44,1911.862,1630.46,1895.562z"/>
			</g>
			<g>
				
					<linearGradient id="SVGID_00000103957393808379135490000012644988598827641474_" gradientUnits="userSpaceOnUse" x1="912.9427" y1="-847.2925" x2="912.9427" y2="157.8921">
					<stop  offset="0" style="stop-color:#4F52FF"/>
					<stop  offset="1" style="stop-color:#4042E2"/>
				</linearGradient>
				<path style="fill:url(#SVGID_00000103957393808379135490000012644988598827641474_);" d="M1031.072,1248.011l10.922-514.527
					l-189.979-4.033l-10.971,516.82c-21.704,16.42-112.727,87.459-113.517,124.646c-0.799,37.661-20.853,982.371-25.173,1185.904
					c-0.515,24.243,17.536,46.541,39.688,56.403c38.097,16.961,102.451,40.069,162.16,41.337
					c59.71,1.267,120.04-19.195,158.822-34.523c22.551-8.915,34.604-30.57,35.118-54.815l25.397-1196.458
					C1123.541,1368.763,1123.341,1312.508,1031.072,1248.011z"/>
				
					<linearGradient id="SVGID_00000060000285578092700520000005053412593433887919_" gradientUnits="userSpaceOnUse" x1="788.7582" y1="1937.3066" x2="1054.0598" y2="1937.3066">
					<stop  offset="0" style="stop-color:#09005D"/>
					<stop  offset="1" style="stop-color:#1A0F91"/>
				</linearGradient>
				<path style="fill:url(#SVGID_00000060000285578092700520000005053412593433887919_);" d="M1033.394,1636.108l-211.089-4.481
					c-11.657-0.247-21.308,9.003-21.556,20.661l-11.986,564.661c-0.247,11.658,9.003,21.308,20.659,21.555l211.09,4.481
					c11.659,0.248,21.31-9.001,21.557-20.659l11.986-564.661C1054.302,1646.007,1045.053,1636.356,1033.394,1636.108z"/>
				
					<linearGradient id="SVGID_00000111894153176078217160000014918290427623971752_" gradientUnits="userSpaceOnUse" x1="844.2857" y1="968.9407" x2="1039.6416" y2="968.9407">
					<stop  offset="0" style="stop-color:#09005D"/>
					<stop  offset="1" style="stop-color:#1A0F91"/>
				</linearGradient>
				<polygon style="fill:url(#SVGID_00000111894153176078217160000014918290427623971752_);" points="1034.265,1097.61 
					844.286,1093.577 849.663,840.271 1039.642,844.304 				"/>
				
					<linearGradient id="SVGID_00000065773838256982539520000001197284951177975197_" gradientUnits="userSpaceOnUse" x1="834.0769" y1="763.1295" x2="1058.5879" y2="763.1295">
					<stop  offset="0" style="stop-color:#09005D"/>
					<stop  offset="1" style="stop-color:#1A0F91"/>
				</linearGradient>
				<path style="fill:url(#SVGID_00000065773838256982539520000001197284951177975197_);" d="M1031.465,669.904l-166.232-3.529
					c-15.301-0.325-27.968,11.816-28.293,27.118l-2.857,134.568c-0.325,15.303,11.815,27.968,27.117,28.293l166.232,3.529
					c15.301,0.325,27.968-11.814,28.293-27.117l2.857-134.568C1058.906,682.896,1046.766,670.229,1031.465,669.904z"/>
			</g>
			<g>
				
					<linearGradient id="SVGID_00000166661313343059411840000013627019005615184001_" gradientUnits="userSpaceOnUse" x1="826.08" y1="896.358" x2="1286.333" y2="1569.8988">
					<stop  offset="0" style="stop-color:#E1473D"/>
					<stop  offset="1" style="stop-color:#E9605A"/>
				</linearGradient>
				<path style="fill:url(#SVGID_00000166661313343059411840000013627019005615184001_);" d="M1383.524,1387.069
					c-32.749,12.229-68.803,12.554-101.951,1.452c-36.889-12.355-96.761-15.001-187.491,25.663
					c-177.891,79.73-171.605,427.6,80.898,479.627c329.777,67.948,484.471-95.402,512.942-212.911
					c28.47-117.51-46.863-266.938-193.226-298.865C1446.762,1371.579,1409.96,1377.197,1383.524,1387.069z"/>
				<path style="opacity:0.23;fill:#FFFFFF;" d="M1155.619,1440.298c28.973,1.876,82.989,14.244,33.468,77.563
					c-49.521,63.319-91.051,167.885-69.905,235.688c21.146,67.803-116.4-16.001-124.249-106.169
					C987.084,1557.212,1065.628,1434.472,1155.619,1440.298z"/>
				
					<linearGradient id="SVGID_00000066496538170069161410000006182989349035013513_" gradientUnits="userSpaceOnUse" x1="1396.1398" y1="1348.0132" x2="1303.1096" y2="1464.9915">
					<stop  offset="0" style="stop-color:#A22B25"/>
					<stop  offset="1" style="stop-color:#C0423C"/>
				</linearGradient>
				<path style="fill:url(#SVGID_00000066496538170069161410000006182989349035013513_);" d="M1427.989,1426.692
					c0,16.488-42.498,29.853-94.922,29.853c-52.424,0-94.922-13.366-94.922-29.853c0-16.488,42.498,0,94.922,0
					C1385.491,1426.692,1427.989,1410.204,1427.989,1426.692z"/>
				
					<linearGradient id="SVGID_00000003799358683829096690000008617714412223150217_" gradientUnits="userSpaceOnUse" x1="1305.7954" y1="1301.4536" x2="1580.5452" y2="1301.4536">
					<stop  offset="0" style="stop-color:#4F52FF"/>
					<stop  offset="1" style="stop-color:#4042E2"/>
				</linearGradient>
				<path style="fill:url(#SVGID_00000003799358683829096690000008617714412223150217_);" d="M1308.453,1422.642
					c0,0-30.199-125.367,112.987-205.616c143.187-80.25,139.96-87.51,147.777-45.061c7.818,42.449,51.026,192.894-105.878,257.529
					C1306.435,1494.128,1308.453,1422.642,1308.453,1422.642z"/>
				<path style="opacity:0.23;fill:#FFFFFF;" d="M1543.383,1176.623c-22.463,36.575-126.771,201.642-218.558,266.89
					c0,0,108.864,14.046,186.962-59.085c66.791-62.543,45.672-175.402,38.156-206.77
					C1549.196,1174.54,1545.061,1173.891,1543.383,1176.623z"/>
				
					<linearGradient id="SVGID_00000164509753191500393950000003181441728542630839_" gradientUnits="userSpaceOnUse" x1="1245.8958" y1="1366.6328" x2="1341.0634" y2="1366.6328">
					<stop  offset="0" style="stop-color:#A22B25"/>
					<stop  offset="1" style="stop-color:#C0423C"/>
				</linearGradient>
				<path style="fill:url(#SVGID_00000164509753191500393950000003181441728542630839_);" d="M1326.623,1445.839
					c2.958,20.588,20.485-2.111,12.268-43.008c-8.217-40.897-16.651-138.151-75.692-121.153
					C1204.158,1298.677,1314.137,1358.946,1326.623,1445.839z"/>
			</g>
			
				<linearGradient id="SVGID_00000067951566166379616210000004162115587986358956_" gradientUnits="userSpaceOnUse" x1="1532.8606" y1="3291.0381" x2="1546.3546" y2="2157.604">
				<stop  offset="0" style="stop-color:#FF928E"/>
				<stop  offset="1" style="stop-color:#FE7062"/>
			</linearGradient>
			<path style="fill:url(#SVGID_00000067951566166379616210000004162115587986358956_);" d="M2435.007,3250.656H653.63
				c-1.933,0-3.5-1.567-3.5-3.5V1700.601c0-1.858,1.507-3.365,3.365-3.365h1781.512V3250.656z"/>
			
				<linearGradient id="SVGID_00000125580572893771163160000005854291448263767695_" gradientUnits="userSpaceOnUse" x1="3213.2788" y1="2362.3962" x2="2425.9922" y2="2482.0188">
				<stop  offset="0" style="stop-color:#E1473D"/>
				<stop  offset="1" style="stop-color:#E9605A"/>
			</linearGradient>
			<path style="fill:url(#SVGID_00000125580572893771163160000005854291448263767695_);" d="M2614.887,3248.529h-232.486V1693.295
				h240.486c2.025,0,3.667,1.642,3.667,3.667v1539.9C2626.554,3243.305,2621.331,3248.529,2614.887,3248.529z"/>
			
				<linearGradient id="SVGID_00000036956863495082320340000001137611696722892985_" gradientUnits="userSpaceOnUse" x1="1410.537" y1="1976.9735" x2="1531.9685" y2="1032.5054">
				<stop  offset="0" style="stop-color:#FF928E"/>
				<stop  offset="1" style="stop-color:#FE7062"/>
			</linearGradient>
			<path style="fill:url(#SVGID_00000036956863495082320340000001137611696722892985_);" d="M673.75,1693.376
				c-14.402,0.068-27.654,7.879-34.689,20.446l-167.789,299.709c-4.1,7.324,1.074,16.447,9.319,16.432l1697.226-3.026
				c6.704-0.012,12.896-3.669,16.263-9.605l188.321-324.037L673.75,1693.376z"/>
		</g>
		<g>
			
				<linearGradient id="SVGID_00000109752552688718762730000009343595582208595344_" gradientUnits="userSpaceOnUse" x1="3364.9102" y1="-272.2477" x2="3142.2849" y2="355.1493">
				<stop  offset="0" style="stop-color:#FF928E"/>
				<stop  offset="1" style="stop-color:#FE7062"/>
			</linearGradient>
			<circle style="fill:url(#SVGID_00000109752552688718762730000009343595582208595344_);" cx="2966.01" cy="851.921" r="246.237"/>
			<path style="fill:#FFFFFF;" d="M2938.631,1051.378c-13.198,0.863-25.476-5.276-32.308-16.246l-114.733-184.235
				c-10.753-17.265-4.959-40.913,12.934-52.815c17.878-11.895,41.08-7.55,51.819,9.708l79.568,127.888l104.989-213.825
				c9.422-19.19,32.06-27.993,50.548-19.669c18.486,8.32,25.842,30.608,16.432,49.785l-135.675,276.547
				c-6.213,12.662-18.564,21.376-32.251,22.752C2939.514,1051.312,2939.073,1051.349,2938.631,1051.378z"/>
		</g>
		<g>
			<g>
				
					<linearGradient id="SVGID_00000083771767455044695460000012349190538457333404_" gradientUnits="userSpaceOnUse" x1="2333.1042" y1="1928.0403" x2="2859.282" y2="1508.1093">
					<stop  offset="0" style="stop-color:#A22B25"/>
					<stop  offset="1" style="stop-color:#C0423C"/>
				</linearGradient>
				<path style="fill:url(#SVGID_00000083771767455044695460000012349190538457333404_);" d="M2179.081,1780.423l45.034,24.234
					c54.01,32.884,102.34,50.259,145.833,56.785c135.802,20.376,224.313-65.311,290.268-117.289
					c87.079-68.625,154.843-35.239,154.843-35.239l-92.865,177.235c-138.682,130.757-280.873,101.72-370.515,59.347
					c-57.064-26.972-92.84-59.347-92.84-59.347C2156.821,1825.316,2179.081,1780.423,2179.081,1780.423z"/>
				
					<linearGradient id="SVGID_00000002382256794840908530000005745866026413964169_" gradientUnits="userSpaceOnUse" x1="2201.7744" y1="1763.4836" x2="2727.9512" y2="1343.5533">
					<stop  offset="0" style="stop-color:#A22B25"/>
					<stop  offset="1" style="stop-color:#C0423C"/>
				</linearGradient>
				<path style="fill:url(#SVGID_00000002382256794840908530000005745866026413964169_);" d="M2046.41,1843.885
					c2.907-9.665,10.053-17.484,19.418-21.25l91.396-36.754c0,0,1.379-11.722-19.311-19.687
					c-20.692-7.965-15.854-31.139-15.854-31.139s28.267,12.895,69.651,33.347c23.666,11.696,36.945,32.346,43.987,47.891
					l-23.528,30.942c-56.33,16.922-113.33,20.158-170.815,13.445L2046.41,1843.885z"/>
			</g>
			
				<linearGradient id="SVGID_00000124147141049116483360000014640472127657707167_" gradientUnits="userSpaceOnUse" x1="1211.0851" y1="3051.9231" x2="1252.0105" y2="3250.9695" gradientTransform="matrix(1 0 0 1 1482.7717 0)">
				<stop  offset="0" style="stop-color:#4F52FF"/>
				<stop  offset="1" style="stop-color:#4042E2"/>
			</linearGradient>
			<path style="fill:url(#SVGID_00000124147141049116483360000014640472127657707167_);" d="M2835.018,3135.622
				c0,0,6.957,39.385,10.368,78.373c1.333,15.238-10.414,28.468-25.696,29.104c-51.919,2.163-162.979,6.367-202.831,4.589
				c-5.99-0.267-9.907-6.4-7.69-11.973l0,0c1.858-4.668,5.441-8.443,10.006-10.542l183.45-84.313L2835.018,3135.622z"/>
			
				<linearGradient id="SVGID_00000060724786155239242700000007439132858915717767_" gradientUnits="userSpaceOnUse" x1="2658.4302" y1="3135.4595" x2="2718.1006" y2="3135.4595" gradientTransform="matrix(-1 0 0 1 5499.147 0)">
				<stop  offset="0" style="stop-color:#A22B25"/>
				<stop  offset="1" style="stop-color:#C0423C"/>
			</linearGradient>
			<path style="fill:url(#SVGID_00000060724786155239242700000007439132858915717767_);" d="M2840.717,3112.479l-5.59,47.111
				c0,0-32.135,14.96-54.081-1.886l13.309-52.5L2840.717,3112.479z"/>
			
				<linearGradient id="SVGID_00000053506973773762291290000010354814826497769871_" gradientUnits="userSpaceOnUse" x1="2384.3762" y1="1549.5605" x2="2682.0964" y2="2843.6104" gradientTransform="matrix(-1 0 0 1 5499.147 0)">
				<stop  offset="0" style="stop-color:#09005D"/>
				<stop  offset="1" style="stop-color:#1A0F91"/>
			</linearGradient>
			<path style="fill:url(#SVGID_00000053506973773762291290000010354814826497769871_);" d="M2849.689,2195.728
				c2.415,12.756-4.332,668.14-68.642,947.676c-1.049,4.562-7.7,13.515-5.405,17.44c5.581,9.545,46.674,6.865,69.848,7.673
				c7.177,0.25,11.031-8.173,13.056-15.315c18.383-64.856,106.469-389.808,117.961-700.223c12.839-346.859,0-11.811,0-11.811
				l5.706-219.75L2849.689,2195.728z"/>
			
				<linearGradient id="SVGID_00000052806755278004505400000011540524207395465113_" gradientUnits="userSpaceOnUse" x1="1539.1604" y1="3062.2905" x2="1537.3002" y2="3259.4773" gradientTransform="matrix(1 0 0 1 1482.7717 0)">
				<stop  offset="0" style="stop-color:#4F52FF"/>
				<stop  offset="1" style="stop-color:#4042E2"/>
			</linearGradient>
			<path style="fill:url(#SVGID_00000052806755278004505400000011540524207395465113_);" d="M3046.046,3156.169
				c0,0,11.075,19.884,21.795,72.719c1.937,9.541-4.73,18.674-14.42,19.626c-17.143,1.685-43.536,3.854-64.678,3.708
				c-9.746-0.067-17.352-8.553-16.177-18.229c2.341-19.284,9.637-50.925,32.175-75.586L3046.046,3156.169z"/>
			
				<linearGradient id="SVGID_00000158013565248226130440000000955614960716894110_" gradientUnits="userSpaceOnUse" x1="2443.375" y1="3132.3992" x2="2494.896" y2="3132.3992" gradientTransform="matrix(-1 0 0 1 5499.147 0)">
				<stop  offset="0" style="stop-color:#A22B25"/>
				<stop  offset="1" style="stop-color:#C0423C"/>
			</linearGradient>
			<path style="fill:url(#SVGID_00000158013565248226130440000000955614960716894110_);" d="M3055.772,3095.574l-13.061,71.243
				c0,0-12.913,9.605-38.46,2.643l6.234-76.654L3055.772,3095.574z"/>
			
				<linearGradient id="SVGID_00000020386155426258109500000018055790418646076590_" gradientUnits="userSpaceOnUse" x1="2285.3711" y1="1549.2886" x2="2586.9253" y2="2860.0024" gradientTransform="matrix(-1 0 0 1 5499.147 0)">
				<stop  offset="0" style="stop-color:#09005D"/>
				<stop  offset="1" style="stop-color:#1A0F91"/>
			</linearGradient>
			<path style="fill:url(#SVGID_00000020386155426258109500000018055790418646076590_);" d="M3087.166,2221.289
				c52.595,331.328-7.52,844.322-29.106,939.753c-1.322,5.843-5.84,10.318-11.512,11.3c-9.636,1.667-25.5,3.028-41.139-1.713
				c-5.389-1.634-9.174-6.708-9.394-12.56c-2.896-77.153,2.317-550.796-46.692-737.982c-2.484-9.485-8.034-17.758-15.713-23.456
				l-80.65-65.73l-1.5-141.727L3087.166,2221.289z"/>
			<path style="fill:#7D97F4;" d="M2785.801,1689.738c138.623-2.29,291.576,36.399,291.576,36.399
				c34.061,198.742,20.384,419,13.295,491.533c-1.453,14.869,6.5,30.612-8.249,32.995c-72.531,11.718-186.538-0.206-221.965-10.499
				c-12.947-3.761-10.746-17.546-13.498-30.745c-23.783-114.078-91.796-365.684-91.796-365.684
				c-32.971,42.412-79.491,101.759-148.265,117.557c35.048-40.626-32.177-125.823-25-156.381
				C2644.075,1735.055,2743.045,1690.445,2785.801,1689.738z"/>
			
				<linearGradient id="SVGID_00000114778927081660803740000005136250905089468850_" gradientUnits="userSpaceOnUse" x1="2528.5686" y1="1649.5447" x2="2662.7107" y2="1649.5447" gradientTransform="matrix(-1 0 0 1 5499.147 0)">
				<stop  offset="0" style="stop-color:#A22B25"/>
				<stop  offset="1" style="stop-color:#C0423C"/>
			</linearGradient>
			<path style="fill:url(#SVGID_00000114778927081660803740000005136250905089468850_);" d="M2926.214,1577.198l44.107,127.556
				c0.731,2.114-0.137,4.453-2.094,5.535c-12.023,6.648-55.341,25.862-107.542-7.234c-5.438-3.448-9.139-9.07-9.965-15.456
				l-14.283-110.401H2926.214z"/>
			<g>
				
					<linearGradient id="SVGID_00000090998132404037163880000011892569378831647398_" gradientUnits="userSpaceOnUse" x1="-3390.7075" y1="146.7909" x2="-3440.8352" y2="-18.542" gradientTransform="matrix(-0.746 -0.6659 -0.6659 0.746 372.8118 -803.1727)">
					<stop  offset="0" style="stop-color:#A22B25"/>
					<stop  offset="1" style="stop-color:#C0423C"/>
				</linearGradient>
				<path style="fill:url(#SVGID_00000090998132404037163880000011892569378831647398_);" d="M2830.243,1459.078
					c0,0-48.435,91.173-42.227,128.002c6.209,36.829,66.236,34.185,118.653,4.273l36.629-98.446L2830.243,1459.078z"/>
				
					<linearGradient id="SVGID_00000067218800171584059600000006813567068801781128_" gradientUnits="userSpaceOnUse" x1="-3447.6741" y1="-101.1619" x2="-3412.427" y2="99.8779" gradientTransform="matrix(-0.746 -0.6659 -0.6659 0.746 372.8118 -803.1727)">
					<stop  offset="0" style="stop-color:#09005D"/>
					<stop  offset="1" style="stop-color:#1A0F91"/>
				</linearGradient>
				<path style="fill:url(#SVGID_00000067218800171584059600000006813567068801781128_);" d="M2904.353,1543.008
					c-2.131-0.944-2.917-3.551-1.64-5.501c3.88-5.927,11.154-18.022,13.475-28.609c0,0,8.707-5.577-22.162-12.965
					c-16.807-4.023-46.605-7.351-59.7-19.435c-14.655-13.523,12.365-39.072,23.725-45.931c14.993-9.052,33.247-14.407,50.156-9.845
					c8.16,2.201,15.543,6.563,22.812,10.875c12.379,7.344,25.193,15.096,33.065,27.146c5.096,7.801,7.766,16.902,10.211,25.894
					c3.513,12.918,6.728,26.149,6.118,39.523c-1.625,35.63-43.382,67.552-76.963,71.452c-2.746,0.319-4.875-2.393-3.976-5.008
					l13.727-39.901c0.637-1.853-0.249-3.886-2.041-4.68L2904.353,1543.008z"/>
				
					<linearGradient id="SVGID_00000085235879924277519660000017155235731805892002_" gradientUnits="userSpaceOnUse" x1="-3441.9504" y1="146.0209" x2="-3487.0508" y2="-2.7312" gradientTransform="matrix(-0.746 -0.6659 -0.6659 0.746 372.8118 -803.1727)">
					<stop  offset="0" style="stop-color:#A22B25"/>
					<stop  offset="1" style="stop-color:#C0423C"/>
				</linearGradient>
				<path style="fill:url(#SVGID_00000085235879924277519660000017155235731805892002_);" d="M2898.835,1548.671
					c0,0,34.485-23.661,37.005-3.735c2.52,19.925-31.055,28.861-47.684,21.432L2898.835,1548.671z"/>
			</g>
			<g>
				<path style="fill:#7D97F4;" d="M2812.598,1436.715c70.759-133.655,254.154-12.234,168.803,100.357
					C2917.942,1494.877,2846.235,1432.153,2812.598,1436.715z"/>
			</g>
			<path style="fill:#7D97F4;" d="M2923.12,1493.332l-127.06-3.93c-3.227-0.1-6.174-1.885-7.739-4.71
				c-11.383-20.554-28.037-33.649-48.864-40.842c-2.635-0.91-2.089-4.795,0.692-4.984l77.898-5.298
				c0.086-0.006,0.174-0.005,0.26,0.001c38.822,2.985,73.19,26.342,105.974,56.942
				C2925.376,1491.533,2924.615,1493.379,2923.12,1493.332z"/>
			<path style="fill:#7D97F4;" d="M3061.678,1928.454c-77.584-87.103-69.726-154.158,17.843-202.428
				c0,0,145.152,98.625,169.023,223.67c-27.426,2.021-77.334,9.154-126.183,33.819
				C3111.626,1924.472,3061.678,1928.454,3061.678,1928.454z"/>
			
				<linearGradient id="SVGID_00000177484737552374315260000008170168570019376797_" gradientUnits="userSpaceOnUse" x1="4320.3999" y1="2046.7838" x2="4700.751" y2="2046.7838" gradientTransform="matrix(-1 0 0 1 7572.2534 0)">
				<stop  offset="0" style="stop-color:#A22B25"/>
				<stop  offset="1" style="stop-color:#C0423C"/>
			</linearGradient>
			<path style="fill:url(#SVGID_00000177484737552374315260000008170168570019376797_);" d="M2893.069,2018.089
				c0,0,162.969,92.102,217.958,13.458c11.417-16.329,14.146-32.559,11.334-48.031c48.849-24.666,98.757-31.798,126.183-33.819
				c7.198,37.697,3.392,77.79-18.76,118.312c-96.32,176.198-358.282-9.738-358.282-9.738L2893.069,2018.089z"/>
			<g>
				
					<linearGradient id="SVGID_00000042015606553576427500000008544313120045741959_" gradientUnits="userSpaceOnUse" x1="4830.146" y1="1836.0514" x2="5039.2876" y2="2707.4766" gradientTransform="matrix(-1 0 0 1 7572.2534 0)">
					<stop  offset="0" style="stop-color:#09005D"/>
					<stop  offset="1" style="stop-color:#1A0F91"/>
				</linearGradient>
				<path style="fill:url(#SVGID_00000042015606553576427500000008544313120045741959_);" d="M2912.649,2134.608l-88.942-310.608
					c-1.01-3.526-4.017-6.098-7.661-6.522c-16.114-1.879-62.81-7.158-116.723-11.719c-64.94-5.493-140.356-9.943-185.422-6.158
					c-6.406,0.538-10.278,7.314-7.429,13.079c25.626,51.847,131.041,262.748,183.829,331.837c1.749,2.289,4.453,3.627,7.334,3.6
					l206.361-1.92C2910.003,2146.143,2914.303,2140.381,2912.649,2134.608z"/>
				
					<linearGradient id="SVGID_00000176038384048525776140000012399046655211576500_" gradientUnits="userSpaceOnUse" x1="2620.2188" y1="1786.4675" x2="2697.9209" y2="1786.4675">
					<stop  offset="0" style="stop-color:#4F52FF"/>
					<stop  offset="1" style="stop-color:#4042E2"/>
				</linearGradient>
				<path style="fill:url(#SVGID_00000176038384048525776140000012399046655211576500_);" d="M2690.099,1778.832l-64.486-10.745
					c-3.434-0.572-6.247,2.709-5.155,6.016l6.383,19.343c0.555,1.684,2.024,2.903,3.782,3.137l62.054,8.289
					c3.21,0.429,5.857-2.488,5.119-5.642l-3.952-16.888C2693.419,1780.523,2691.941,1779.137,2690.099,1778.832z"/>
				
					<linearGradient id="SVGID_00000020359790314181266120000007965866192033932710_" gradientUnits="userSpaceOnUse" x1="2590.1445" y1="1814.1853" x2="2738.5002" y2="1814.1853">
					<stop  offset="0" style="stop-color:#4F52FF"/>
					<stop  offset="1" style="stop-color:#4042E2"/>
				</linearGradient>
				<path style="fill:url(#SVGID_00000020359790314181266120000007965866192033932710_);" d="M2738.383,1833.423l-5.313-27.671
					c-0.533-2.775-2.824-4.873-5.635-5.158l-130.245-13.216c-4.385-0.445-7.895,3.573-6.865,7.856l8.281,34.481
					c0.663,2.759,3.064,4.752,5.897,4.894l127.277,6.407C2735.922,1841.225,2739.165,1837.497,2738.383,1833.423z"/>
				
					<linearGradient id="SVGID_00000167368678752080352420000013712769105276717492_" gradientUnits="userSpaceOnUse" x1="4672.5117" y1="2006.9043" x2="4791.0073" y2="2006.9043" gradientTransform="matrix(-1 0 0 1 7572.2534 0)">
					<stop  offset="0" style="stop-color:#A22B25"/>
					<stop  offset="1" style="stop-color:#C0423C"/>
				</linearGradient>
				<path style="fill:url(#SVGID_00000167368678752080352420000013712769105276717492_);" d="M2891.161,2059.565
					c0,0,12.39-50.946,7.392-69.021c-4.998-18.075-14.681-41.314-46.958-36.149c-32.276,5.164-70.35,18.76-70.35,18.76
					s1.924,23.543,26.454,15.948l-15.211,11.77c0,0,2.173,18.851,22.893,8.78l-14.147,15.61c0,0,8.898,15.482,24.143,5.552
					C2840.622,2020.885,2847.929,2065.7,2891.161,2059.565z"/>
			</g>
			<g>
				<path style="fill:#91B3FA;" d="M2942.808,1865.626c10.174,0.818,96.217,3.577,96.217,3.577l-3.473,86.622l-44.574,25.14
					l-48.17-25.14V1865.626z"/>
				<polygon style="fill:#BDD0FB;" points="2935.975,1865.626 3038.831,1869.203 3043.036,1902.436 2989.505,1916.343 
					2932.605,1890.984 				"/>
			</g>
		</g>
	</g>
</g>
</svg>
