<svg xmlns="http://www.w3.org/2000/svg" viewBox="0 0 128 128" id="Know">
  <path d="M16.734 38.865a2.017 2.017 0 0 1 2.655.168l12.726 13.13a1.992 1.992 0 0 0 2.122.483L50.8 46.533a17.047 17.047 0 0 1-2.184-3.457l-14.542 5.368-11.817-12.191a5.976 5.976 0 0 0-8.596 8.302l15.74 16.42a1.993 1.993 0 0 0 2.073.511l13.836-4.64 1.844 31.272A1.997 1.997 0 0 0 49.147 90h1.108l2.673 36.148a1.998 1.998 0 0 0 1.99 1.852h17.966a1.998 1.998 0 0 0 1.99-1.852L77.548 90h1.306a1.997 1.997 0 0 0 1.993-1.882l1.843-31.272 13.836 4.64a1.993 1.993 0 0 0 2.073-.51l15.74-16.422a5.991 5.991 0 0 0-.584-8.818l-.003-.003a5.96 5.96 0 0 0-8.003.514L93.925 48.444l-14.71-5.43a17.037 17.037 0 0 1-2.17 3.461l16.718 6.171a1.992 1.992 0 0 0 2.122-.483l12.733-13.137a2.02 2.02 0 0 1 2.648-.16 1.987 1.987 0 0 1 .192 2.919L96.594 57.292l-15.111-5.068a1.996 1.996 0 0 0-2.626 1.778L76.971 86H51.03l-1.886-31.998a1.996 1.996 0 0 0-2.626-1.778l-15.11 5.068-14.865-15.506a1.988 1.988 0 0 1 .192-2.92ZM73.544 90l-2.514 34h-5.133v-18.166a1.996 1.996 0 1 0-3.992 0V124h-5.133l-2.514-34Z" fill="#ffffff" class="color000000 svgShape"></path>
  <path d="M63.901 48.741a13 13 0 1 0-12.975-13 13.002 13.002 0 0 0 12.975 13zm-3.824-9.545a5.562 5.562 0 0 1 6.18-3.087 2 2 0 0 1-.72 3.934 1.554 1.554 0 0 0-1.804.76 1.996 1.996 0 1 1-3.656-1.607zM113.81 16a15.97 15.97 0 1 0-15.97 16 16.008 16.008 0 0 0 15.97-16zM93.16 9.77a2.002 2.002 0 0 1 .61-2.76A7.447 7.447 0 0 1 97.6 6c3.59 0 5.23 2.37 5.23 4.56a6.344 6.344 0 0 1-2.22 4.41c-.73.79-.78 1.05-.78 1.08V18a1.995 1.995 0 1 1-3.99 0v-1.77a5.526 5.526 0 0 1 1.87-4c.73-.77 1.12-1.26 1.12-1.67 0-.51-.86-.56-1.23-.56a3.617 3.617 0 0 0-1.69.39 1.993 1.993 0 0 1-2.75-.62zM97.79 26a1.91 1.91 0 0 1-1.95-1.98A1.935 1.935 0 0 1 97.85 22a2 2 0 0 1-.03 4z" fill="#ffffff" class="color000000 svgShape"></path>
</svg>
