<?xml version="1.0" encoding="utf-8" standalone="yes"?>
<!DOCTYPE svg PUBLIC "-//W3C//DTD SVG 1.1//EN" "http://www.w3.org/Graphics/SVG/1.1/DTD/svg11.dtd">
<svg width="698" height="396" viewBox="0 0 698 396" style="fill:none;stroke:none;fill-rule:evenodd;clip-rule:evenodd;stroke-linecap:round;stroke-linejoin:round;stroke-miterlimit:1.5;" version="1.1" xmlns="http://www.w3.org/2000/svg" xmlns:xlink="http://www.w3.org/1999/xlink"><style id="fontImports">@import url("https://fonts.googleapis.com/css2?family=Roboto:wght@400;700&amp;display=block");</style><g id="items" style="isolation: isolate"><g id="blend" style="mix-blend-mode: normal"><g id="g-root--1.cu_sy_146r5ih1jjgnid-fill" data-item-order="-110586" transform="translate(291, 49)"><g id="-1.cu_sy_146r5ih1jjgnid-fill" stroke="none" fill="#f5f5f5"><g><path d="M 65.766602 298C 80.754802 298 106.000002 233.529 106.000002 154C 106.000002 74.471 80.754802 10 65.766602 10C 80.775202 10.0075 92.941702 74.6668 92.941702 154C 92.941702 233.333 80.775202 297.992 65.766602 298ZM 65.765897 298C 80.774597 297.992 92.941097 233.333 92.941097 154C 92.941097 74.6668 80.774597 10.0075 65.765897 10L 51.957397 10C 66.060697 15.1659 77.199297 77.8539 77.199297 154C 77.199297 230.146 65.382597 292.834 51.279297 298L 65.765897 298ZM 77.2 154C 77.2 230.146 65.3833 292.834 51.28 298L 50.0615 298C 35.0734 298 10 233.529 10 154C 10 74.471 35.0734 10 50.0615 10C 50.6991 10 51.9581 10 51.9581 10C 66.0614 15.1659 77.2 77.8539 77.2 154Z"></path></g></g></g><g id="g-root-0.cr-medium_cr_i0a3zd1jjgmq6-fill" data-item-order="-110582" transform="translate(459, 157)"><g id="0.cr-medium_cr_i0a3zd1jjgmq6-fill" stroke="none" fill="#f5f5f5"><g><path d="M 10 46C 10 65.882251 26.117749 82 46 82C 65.882251 82 82 65.882251 82 46C 82 26.117749 65.882251 10 46 10C 26.117749 10 10 26.117749 10 46"></path></g></g></g><g id="g-root-3.line_sy_dkglux1jjgnif-fill" data-item-order="-110575" transform="translate(207.10940551757812, 217)"></g><g id="g-root-3.cr-small_cr_94n3qh1jjgoao-fill" data-item-order="-110574" transform="translate(147, 246.99993896484375)"><g id="3.cr-small_cr_94n3qh1jjgoao-fill" stroke="none" fill="#f4ffdc"><g><path d="M 10 40C 10.000002 56.568544 23.431459 70.000002 40.000002 70.000002C 56.568544 70.000002 70.000002 56.568544 70.000002 40.000002C 70.000002 23.431459 56.568544 10.000002 40.000002 10.000002C 23.431459 10.000002 10.000002 23.431459 10.000002 40.000002"></path></g></g></g><g id="g-root-2.line_sy_9mkkp1jjglxl-fill" data-item-order="-110567" transform="translate(207, 193)"></g><g id="g-root-2.cr-small_cr_9mkkp1jjglxm-fill" data-item-order="-110566" transform="translate(147, 163)"><g id="2.cr-small_cr_9mkkp1jjglxm-fill" stroke="none" fill="#e8f9ff"><g><path d="M 10 40C 10.000002 56.568544 23.431459 70.000002 40.000002 70.000002C 56.568544 70.000002 70.000002 56.568544 70.000002 40.000002C 70.000002 23.431459 56.568544 10.000002 40.000002 10.000002C 23.431459 10.000002 10.000002 23.431459 10.000002 40.000002"></path></g></g></g><g id="g-root-1.line_sy_1uux4fd1jjgmir-fill" data-item-order="-110559" transform="translate(207, 109)"></g><g id="g-root-1.cr-small_cr_1lza46h1jjgnbg-fill" data-item-order="-110558" transform="translate(147, 79)"><g id="1.cr-small_cr_1lza46h1jjgnbg-fill" stroke="none" fill="#edf4ff"><g><path d="M 10 40C 10.000002 56.568544 23.431459 70.000002 40.000002 70.000002C 56.568544 70.000002 70.000002 56.568544 70.000002 40.000002C 70.000002 23.431459 56.568544 10.000002 40.000002 10.000002C 23.431459 10.000002 10.000002 23.431459 10.000002 40.000002"></path></g></g></g><g id="g-root-tx_appbased_8wj0rt1jj87ig-fill" data-item-order="0" transform="translate(27, 85)"><g id="tx_appbased_8wj0rt1jj87ig-fill" stroke="none" fill="#484848"><g><text style="font: 20px Roboto, sans-serif; white-space: pre;" font-size="20px" font-family="Roboto, sans-serif"><tspan x="19.47" y="34" dominant-baseline="ideographic">App-Based </tspan><tspan x="26.72" y="58" dominant-baseline="ideographic">Storefront</tspan></text></g></g></g><g id="g-root-sale_zitkfd1jj87ic-fill" data-item-order="0" transform="translate(159, 91)"></g><g id="g-root-tx_userfrie_dcciw91jj86q7-fill" data-item-order="0" transform="translate(15, 169)"><g id="tx_userfrie_dcciw91jj86q7-fill" stroke="none" fill="#484848"><g><text style="font: 20px Roboto, sans-serif; white-space: pre;" font-size="20px" font-family="Roboto, sans-serif"><tspan x="12.19" y="34" dominant-baseline="ideographic">User-Friendly </tspan><tspan x="48.59" y="58" dominant-baseline="ideographic">Interface</tspan></text></g></g></g><g id="g-root-phon_1hiu84p1jiztaa-fill" data-item-order="0" transform="translate(159, 175)"></g><g id="g-root-bask_1uuanc91jji32i-fill" data-item-order="0" transform="translate(471, 169)"></g><g id="g-root-tx_hasslefr_zitkfd1jj87id-fill" data-item-order="0" transform="translate(543, 157)"><g id="tx_hasslefr_zitkfd1jj87id-fill" stroke="none" fill="#484848"><g><text style="font: 20px Roboto, sans-serif; white-space: pre;" font-size="20px" font-family="Roboto, sans-serif"><tspan x="12" y="34" dominant-baseline="ideographic">Hassle-Free </tspan><tspan x="12" y="58" dominant-baseline="ideographic">Shopping </tspan><tspan x="12" y="82" dominant-baseline="ideographic">Experience</tspan></text></g></g></g><g id="g-root-tx_seamless_m7d2211jj893a-fill" data-item-order="0" transform="translate(39, 241)"><g id="tx_seamless_m7d2211jj893a-fill" stroke="none" fill="#484848"><g><text style="font: 20px Roboto, sans-serif; white-space: pre;" font-size="20px" font-family="Roboto, sans-serif"><tspan x="17.05" y="34" dominant-baseline="ideographic">Seamless </tspan><tspan x="27.91" y="58" dominant-baseline="ideographic">Ordering </tspan><tspan x="31.7" y="82" dominant-baseline="ideographic">Process</tspan></text></g></g></g><g id="g-root-empt_hznmw91jjjhfo-fill" data-item-order="0" transform="translate(159, 259)"></g><g id="g-root--1.cu_sy_146r5ih1jjgnid-stroke" data-item-order="-110586" transform="translate(291, 49)"><g id="-1.cu_sy_146r5ih1jjgnid-stroke" fill="none" stroke-linecap="round" stroke-linejoin="round" stroke-miterlimit="4" stroke="#969696" stroke-width="2"><g><path d="M 65.766602 298C 80.754802 298 106.000002 233.529 106.000002 154C 106.000002 74.471 80.754802 10 65.766602 10C 80.775202 10.0075 92.941702 74.6668 92.941702 154C 92.941702 233.3332 80.775202 297.9925 65.766602 298ZM 65.765897 298C 80.774597 297.9925 92.941097 233.3332 92.941097 154C 92.941097 74.6668 80.774597 10.0075 65.765897 10L 51.957397 10C 66.060697 15.1659 77.199297 77.8539 77.199297 154C 77.199297 230.1462 65.382597 292.8341 51.279297 298L 65.765897 298ZM 77.2 154C 77.2 230.1462 65.3833 292.8341 51.28 298L 50.0615 298C 35.0734 298 10 233.529 10 154C 10 74.471 35.0734 10 50.0615 10C 50.6991 10 51.9581 10 51.9581 10C 66.0614 15.1659 77.2 77.8539 77.2 154Z"></path></g></g></g><g id="g-root-0.cr-medium_cr_i0a3zd1jjgmq6-stroke" data-item-order="-110582" transform="translate(459, 157)"><g id="0.cr-medium_cr_i0a3zd1jjgmq6-stroke" fill="none" stroke-linecap="round" stroke-linejoin="round" stroke-miterlimit="4" stroke="#969696" stroke-width="2"><g><path d="M 10 46C 10 65.882251 26.117749 82 46 82C 65.882251 82 82 65.882251 82 46C 82 26.117749 65.882251 10 46 10C 26.117749 10 10 26.117749 10 46"></path></g></g></g><g id="g-root-3.line_sy_dkglux1jjgnif-stroke" data-item-order="-110575" transform="translate(207.10940551757812, 217)"><g id="3.line_sy_dkglux1jjgnif-stroke" fill="none" stroke-linecap="round" stroke-linejoin="round" stroke-miterlimit="4" stroke="#92bd39" stroke-width="2"><g><path d="M 254.08058 10.859985L 129.89058 69.999985L 10.00058 69.999985"></path><path d="M 251.50058 19.259985L 254.50058 10.659985L 245.90058 7.559985" stroke-dasharray="none"></path></g></g></g><g id="g-root-3.cr-small_cr_94n3qh1jjgoao-stroke" data-item-order="-110574" transform="translate(147, 246.99993896484375)"><g id="3.cr-small_cr_94n3qh1jjgoao-stroke" fill="none" stroke-linecap="round" stroke-linejoin="round" stroke-miterlimit="4" stroke="#92bd39" stroke-width="2"><g><path d="M 10 40C 10.000002 56.568544 23.431459 70.000002 40.000002 70.000002C 56.568544 70.000002 70.000002 56.568544 70.000002 40.000002C 70.000002 23.431459 56.568544 10.000002 40.000002 10.000002C 23.431459 10.000002 10.000002 23.431459 10.000002 40.000002"></path></g></g></g><g id="g-root-2.line_sy_9mkkp1jjglxl-stroke" data-item-order="-110567" transform="translate(207, 193)"><g id="2.line_sy_9mkkp1jjglxl-stroke" fill="none" stroke-linecap="round" stroke-linejoin="round" stroke-miterlimit="4" stroke="#1eabda" stroke-width="2"><g><path d="M 248 10L 130 10L 10 10"></path><path d="M 242 16.5L 248.5 10L 242 3.5" stroke-dasharray="none"></path></g></g></g><g id="g-root-2.cr-small_cr_9mkkp1jjglxm-stroke" data-item-order="-110566" transform="translate(147, 163)"><g id="2.cr-small_cr_9mkkp1jjglxm-stroke" fill="none" stroke-linecap="round" stroke-linejoin="round" stroke-miterlimit="4" stroke="#1eabda" stroke-width="2"><g><path d="M 10 40C 10.000002 56.568544 23.431459 70.000002 40.000002 70.000002C 56.568544 70.000002 70.000002 56.568544 70.000002 40.000002C 70.000002 23.431459 56.568544 10.000002 40.000002 10.000002C 23.431459 10.000002 10.000002 23.431459 10.000002 40.000002"></path></g></g></g><g id="g-root-1.line_sy_1uux4fd1jjgmir-stroke" data-item-order="-110559" transform="translate(207, 109)"><g id="1.line_sy_1uux4fd1jjgmir-stroke" fill="none" stroke-linecap="round" stroke-linejoin="round" stroke-miterlimit="4" stroke="#4e88e7" stroke-width="2"><g><path d="M 254.19 69.14L 130 10L 10 10"></path><path d="M 246 72.4L 254.6 69.4L 251.6 60.7" stroke-dasharray="none"></path></g></g></g><g id="g-root-1.cr-small_cr_1lza46h1jjgnbg-stroke" data-item-order="-110558" transform="translate(147, 79)"><g id="1.cr-small_cr_1lza46h1jjgnbg-stroke" fill="none" stroke-linecap="round" stroke-linejoin="round" stroke-miterlimit="4" stroke="#4e88e7" stroke-width="2"><g><path d="M 10 40C 10.000002 56.568544 23.431459 70.000002 40.000002 70.000002C 56.568544 70.000002 70.000002 56.568544 70.000002 40.000002C 70.000002 23.431459 56.568544 10.000002 40.000002 10.000002C 23.431459 10.000002 10.000002 23.431459 10.000002 40.000002"></path></g></g></g><g id="g-root-tx_appbased_8wj0rt1jj87ig-stroke" data-item-order="0" transform="translate(27, 85)"></g><g id="g-root-sale_zitkfd1jj87ic-stroke" data-item-order="0" transform="translate(159, 91)"><g id="sale_zitkfd1jj87ic-stroke" fill="none" stroke-linecap="round" stroke-linejoin="round" stroke-miterlimit="4" stroke="#4e88e7" stroke-width="2"><g><path d="M 35.540501 16.632999L 35.540501 20.382999M 35.177498 23.455C 35.177498 23.662107 35.345394 23.83 35.552498 23.83C 35.759605 23.83 35.927498 23.662107 35.927498 23.455C 35.927498 23.247894 35.759605 23.08 35.552498 23.08C 35.345394 23.08 35.177498 23.247894 35.177498 23.455M 38.216499 14.2225L 42.5065 13.6825L 41.868999 17.959L 45.282997 20.609501L 41.808998 23.181999L 42.348999 27.472L 38.072502 26.834499L 35.422001 30.248499L 32.849499 26.7745L 28.5595 27.314501L 29.197001 23.038L 25.783001 20.387501L 29.257 17.815001L 28.716999 13.525L 32.9935 14.1625L 35.644001 10.7485L 38.216499 14.2225ZM 30.216999 39.251499L 10.717 39.251499M 20.467001 41.876499L 20.467001 41.876499C 20.674107 41.876499 20.842001 42.044392 20.842001 42.251499L 20.842001 42.251499C 20.842001 42.458607 20.674107 42.626499 20.467001 42.626499L 20.467001 42.626499C 20.259893 42.626499 20.092001 42.458607 20.092001 42.251499L 20.092001 42.251499C 20.092001 42.044392 20.259893 41.876499 20.467001 41.876499M 30.216999 31L 30.216999 42.25C 30.216999 43.906857 28.873854 45.25 27.216999 45.25L 13.717 45.25C 12.060145 45.25 10.717 43.906857 10.717 42.25L 10.717 13.75C 10.717 12.093145 12.060145 10.75 13.717 10.75L 25.716999 10.75"></path></g></g></g><g id="g-root-tx_userfrie_dcciw91jj86q7-stroke" data-item-order="0" transform="translate(15, 169)"></g><g id="g-root-phon_1hiu84p1jiztaa-stroke" data-item-order="0" transform="translate(159, 175)"><g id="phon_1hiu84p1jiztaa-stroke" fill="none" stroke-linecap="round" stroke-linejoin="round" stroke-miterlimit="4" stroke="#1eabda" stroke-width="2"><g><path d="M 35.5 28.75L 41.5 28.75M 25 39.25L 25 43.75C 25 44.578426 24.328428 45.25 23.5 45.25L 16 45.25C 15.171573 45.25 14.5 44.578426 14.5 43.75L 14.5 31.75C 14.5 30.921572 15.171573 30.25 16 30.25L 18.25 30.25M 14.5 42.25L 25 42.25M 22 27.25L 22 13C 22 11.75736 23.007359 10.75 24.25 10.75L 39.25 10.75C 40.492641 10.75 41.5 11.75736 41.5 13L 41.5 31C 41.5 32.242641 40.492641 33.25 39.25 33.25L 29.5 33.25M 31 25.75L 20.5 36.25M 26.5 25.75L 31 25.75L 31 30.25M 20.5 31.75L 20.5 36.25L 25 36.25"></path></g></g></g><g id="g-root-bask_1uuanc91jji32i-stroke" data-item-order="0" transform="translate(471, 169)"><g id="bask_1uuanc91jji32i-stroke" fill="none" stroke-linecap="round" stroke-linejoin="round" stroke-miterlimit="4" stroke="#969696" stroke-width="2"><g><path d="M 47 26.677999L 47 53C 47 55.209141 45.209141 57 43 57L 25 57C 22.790861 57 21 55.209141 21 53L 21 26.677999M 47 19L 21 19M 47 49L 21 49M 34 52.501999L 34 52.501999C 34.276142 52.501999 34.5 52.725857 34.5 53.001999L 34.5 53.001999C 34.5 53.278141 34.276142 53.501999 34 53.501999L 34 53.501999C 33.723858 53.501999 33.5 53.278141 33.5 53.001999L 33.5 53.001999C 33.5 52.725857 33.723858 52.501999 34 52.501999M 47.551998 12.106C 47.213474 11.428541 46.521332 11.000404 45.764 11L 22.236 11C 21.478668 11.000404 20.786526 11.428541 20.448 12.106L 17 19L 51 19ZM 34 19L 17 19L 17 21C 16.918638 23.410648 18.356651 25.6138 20.596157 26.509604C 22.835665 27.405405 25.396399 26.801754 27 25C 28.50831 27.427509 31.142632 28.926815 34 28.983999C 36.857365 28.926815 39.491684 27.427509 41 25C 42.6036 26.801754 45.164333 27.405405 47.403839 26.509604C 49.643345 25.6138 51.08136 23.410648 51 21L 51 19ZM 27 25L 27 19L 29 11M 41 25L 41 19L 39 11M 39.482002 37C 39.808311 36.999901 40.114151 37.159019 40.301361 37.426292C 40.488571 37.693562 40.5336 38.035362 40.422001 38.341999L 38.239998 44.341999C 38.096184 44.73716 37.720516 45.000126 37.299999 45L 30.142 45C 29.743839 45.000591 29.383265 44.764923 29.224001 44.400002L 27.08 38.400002C 26.944822 38.090279 26.97522 37.733231 27.160807 37.450813C 27.346395 37.1684 27.662066 36.998821 28 37ZM 29 37L 31 34M 39 37L 37 34"></path></g></g></g><g id="g-root-tx_hasslefr_zitkfd1jj87id-stroke" data-item-order="0" transform="translate(543, 157)"></g><g id="g-root-tx_seamless_m7d2211jj893a-stroke" data-item-order="0" transform="translate(39, 241)"></g><g id="g-root-empt_hznmw91jjjhfo-stroke" data-item-order="0" transform="translate(159, 259)"><g id="empt_hznmw91jjjhfo-stroke" fill="none" stroke-linecap="round" stroke-linejoin="round" stroke-miterlimit="4" stroke="#92bd39" stroke-width="2"><g><path d="M 31.75 40.75C 31.75 41.992641 32.757362 43 34 43C 35.242641 43 36.25 41.992641 36.25 40.75C 36.25 39.507362 35.242641 38.5 34 38.5C 32.757362 38.5 31.75 39.507362 31.75 40.75ZM 15.25 40.75C 15.25 41.992641 16.25736 43 17.5 43C 18.742641 43 19.75 41.992641 19.75 40.75C 19.75 39.507362 18.742641 38.5 17.5 38.5C 16.25736 38.5 15.25 39.507362 15.25 40.75ZM 45.25 13L 43.656998 13C 43.278557 12.996691 42.95694 13.275852 42.906998 13.651L 40.087002 34.848999C 40.03706 35.224148 39.715443 35.503311 39.337002 35.5L 10.75 35.5"></path></g></g></g></g></g></svg>