<svg xmlns="http://www.w3.org/2000/svg" enable-background="new 0 0 50 50" viewBox="0 0 50 50" id="OnlineHotelBooking">
  <g fill="#000000" class="color000000 svgShape">
    <polygon fill="#4c6171" points="28.083 47.679 36.651 42.624 31.017 39.421 22.45 44.476" class="color4c5671 svgShape"></polygon>
    <polygon fill="#27323a" points="28.088 49 36.656 43.945 36.651 42.624 28.083 47.679" class="color272e3a svgShape"></polygon>
    <path fill="#004b87" d="M31.01896,39.41858l-8.57018,5.05894c-0.39149-0.22879-0.71669-0.77694-0.71669-1.22246
							l-0.03011-7.86559l8.57018-5.05306l0.03011,7.85941C30.30226,38.64752,30.62148,39.19567,31.01896,39.41858z" class="color373f51 svgShape"></path>
    <polygon fill="#e3f0e8" points="21.875 35.702 30.442 30.647 29.285 29.989 20.717 35.044" class="colore3e7f0 svgShape"></polygon>
    <path fill="#004b87" d="M20.54608,34.73396l0.02946,7.861c0.00442,1.1779,0.84646,2.61457,1.87895,3.20166l5.63363,3.20332
							l-0.00495-1.32079l-5.63363-3.20332c-0.39498-0.22459-0.71511-0.77465-0.71679-1.22287l-0.02946-7.861L20.54608,34.73396z" class="color373f51 svgShape"></path>
  </g>
  <path fill="#b4d7c3" d="M25.8776,34.97498c0.52295-0.30193,0.95116-0.05789,0.95287,0.54308
				c0.00171,0.60529-0.42373,1.33786-0.94668,1.63979c-0.5268,0.30415-0.95115,0.0622-0.95286-0.54309
				C24.92922,36.01379,25.35081,35.27913,25.8776,34.97498z" class="colorb4bed7 svgShape"></path>
  <path fill="#d3eadd" d="M9.62514,43.48652L42.1251,24.72266l0.00695,2.4523c0.00232,0.81744-0.56874,1.80649-1.27628,2.21499
				L10.91673,46.67525c-0.70751,0.40848-1.28232,0.08101-1.28464-0.73644L9.62514,43.48652z M25.88379,37.15786
				c0.52294-0.30192,0.94839-1.03448,0.94667-1.63977c-0.00171-0.60098-0.42992-0.84502-0.95286-0.5431
				c-0.5268,0.30415-0.94839,1.03883-0.94669,1.6398C24.93263,37.22008,25.35699,37.462,25.88379,37.15786" class="colord3dbea svgShape"></path>
  <path fill="#e3f0e8" d="M10.00601,46.76601l-1.69839-0.9875c-0.22883-0.13263-0.3734-0.4217-0.3734-0.82517l-0.00599-2.4511
				l1.69835,0.98162l0.00603,2.45728C9.63261,46.3446,9.77715,46.63367,10.00601,46.76601z" class="colore3e7f0 svgShape"></path>
  <polygon fill="#ffffff" points="40.783 3.635 40.841 24.057 10.902 41.342 10.844 20.92" class="colorffffff svgShape"></polygon>
  <path fill="#004b87" d="M41.69107,2.07213c-0.23489-0.13233-0.55411-0.11439-0.91545,0.09028L10.83713,19.44746
				c-0.70464,0.40965-1.27679,1.39744-1.27679,2.21026l0.06624,21.82614l-1.69835-0.98162L7.86798,20.67022
				c-0.00603-0.81311,0.56613-1.80091,1.27076-2.21055L39.08326,1.17491c0.35532-0.20468,0.67453-0.22291,0.90942-0.09057
				L41.69107,2.07213z" class="color373f51 svgShape"></path>
  <path fill="#004b87" d="M40.77858,2.16329c0.70754-0.4085,1.28234-0.08077,1.28464,0.73211l0.06188,21.82725L9.62514,43.48652
				L9.56326,21.65927c-0.00231-0.81289,0.56877-1.80218,1.27628-2.21066L40.77858,2.16329z M40.84065,24.05695l-0.0579-20.42227
				L10.84371,20.92l0.0579,20.42227L40.84065,24.05695" class="color373f51 svgShape"></path>
  <g fill="#000000" class="color000000 svgShape">
    <polygon fill="#004b87" points="31.603 24.231 31.604 24.644 27.902 26.781 27.901 26.368" class="color373f51 svgShape"></polygon>
    <g fill="#000000" class="color000000 svgShape">
      <polygon fill="#ffffff" points="36.494 11.613 36.497 12.563 36.314 12.668 36.313 12.293 35.983 12.483 35.984 12.858 35.802 12.964 35.799 12.014 35.982 11.909 35.983 12.304 36.312 12.114 36.311 11.718" class="colorffffff svgShape"></polygon>
      <path fill="#5ded9a" d="M37.21915,10.61723l-2.15268,1.24808l0.0181,7.26282l2.16173-1.24808L37.21915,10.61723z
						 M35.79911,12.01017l0.18091-0.09937v0.39748l0.33466-0.19874v-0.38909l0.18091-0.1082v0.94953l-0.18091,0.10864v-0.37981
						l-0.33466,0.18991v0.37981l-0.18091,0.09937V12.01017z" class="colored5d71 svgShape"></path>
      <polygon fill="#ffffff" points="36.113 17.011 36.115 17.771 36.466 17.569 36.466 17.755 35.93 18.064 35.927 17.118" class="colorffffff svgShape"></polygon>
      <polygon fill="#ffffff" points="36.469 15.509 36.469 15.698 36.059 15.935 36.06 16.132 36.428 15.919 36.429 16.098 36.06 16.311 36.061 16.51 36.483 16.266 36.484 16.452 35.875 16.803 35.873 15.853" class="colorffffff svgShape"></polygon>
      <polygon fill="#4c6171" points="35.081 17.124 35.083 17.798 34.286 18.259 34.285 17.584" class="color4c5671 svgShape"></polygon>
      <path fill="#ffffff" d="M36.45889,13.04647c0.08414,0.04438,0.1264,0.13726,0.1268,0.27843
						c0.00039,0.13762-0.04121,0.27891-0.12482,0.42034c-0.0836,0.14122-0.18531,0.24821-0.30812,0.31911
						c-0.12281,0.0709-0.22479,0.08152-0.30892,0.03713c-0.08414-0.04457-0.1264-0.13744-0.12679-0.27507
						c-0.0004-0.14117,0.0412-0.28247,0.12481-0.4237c0.0836-0.14141,0.18531-0.24839,0.30812-0.31929
						C36.27278,13.01252,36.37476,13.00191,36.45889,13.04647z M36.32871,13.69043c0.04475-0.08794,0.06851-0.17403,0.06828-0.25657
						c-0.00024-0.08609-0.02441-0.14451-0.0695-0.17702c-0.04809-0.03097-0.10809-0.02737-0.17698,0.0124
						c-0.0689,0.03978-0.12572,0.10363-0.17348,0.18994c-0.04776,0.08612-0.06852,0.17048-0.06828,0.25657
						c0.00024,0.08254,0.0214,0.1427,0.06951,0.17702c0.04809,0.03078,0.10507,0.02556,0.17398-0.01422
						C36.22112,13.83877,36.28095,13.77655,36.32871,13.69043" class="colorffffff svgShape"></path>
      <polygon fill="#4c6171" points="31.293 24.824 31.301 27.622 31.302 27.98 28.226 29.756 28.224 29.398 28.217 26.6" class="color4c5671 svgShape"></polygon>
      <polygon fill="#4c6171" points="34.826 25.587 34.827 25.945 24.697 31.793 24.696 31.435 25.217 31.134 28.224 29.398 28.226 29.756 31.302 27.98 31.301 27.622 34.308 25.886" class="color4c5671 svgShape"></polygon>
      <polygon fill="#4c6171" points="35.07 13.193 35.072 13.864 34.275 14.324 34.273 13.653" class="color4c5671 svgShape"></polygon>
      <polygon fill="#b4f9d1" points="34.307 25.885 31.304 27.621 31.295 24.827 31.602 24.646 31.602 24.23 27.903 26.364 27.903 26.78 28.22 26.599 28.229 29.394 25.217 31.131 25.18 17.03 34.271 11.775 34.271 13.656 34.28 14.326 34.289 17.581 34.289 18.26" class="colorf9d5b4 svgShape"></polygon>
      <polygon fill="#4c6171" points="35.061 9.865 35.065 11.317 24.377 17.488 24.373 16.035" class="color4c5671 svgShape"></polygon>
    </g>
    <polygon fill="#ffffff" points="36.48 14.21 36.481 14.392 36.247 14.527 36.249 15.295 36.064 15.402 36.061 14.634 35.828 14.769 35.827 14.587" class="colorffffff svgShape"></polygon>
    <polygon fill="#2ecc71" points="27.194 19.516 27.201 22.015 25.695 22.884 25.688 20.386" class="color7bb1ff svgShape"></polygon>
    <polygon fill="#2ecc71" points="29.399 21.322 29.406 23.821 27.896 24.692 27.889 22.193" class="color7bb1ff svgShape"></polygon>
    <polygon fill="#2ecc71" points="33.787 18.788 33.794 21.287 32.287 22.157 32.28 19.658" class="color7bb1ff svgShape"></polygon>
    <polygon fill="#2ecc71" points="33.778 15.715 33.785 18.213 32.279 19.083 32.272 16.584" class="color7bb1ff svgShape"></polygon>
    <polygon fill="#2ecc71" points="31.583 16.982 31.59 19.481 30.083 20.351 30.076 17.852" class="color7bb1ff svgShape"></polygon>
    <polygon fill="#2ecc71" points="33.77 12.641 33.777 15.14 32.27 16.01 32.263 13.511" class="color7bb1ff svgShape"></polygon>
    <polygon fill="#2ecc71" points="31.574 13.909 31.581 16.407 30.074 17.277 30.067 14.778" class="color7bb1ff svgShape"></polygon>
    <polygon fill="#2ecc71" points="27.186 16.442 27.193 18.941 25.686 19.811 25.679 17.312" class="color7bb1ff svgShape"></polygon>
    <polygon fill="#2ecc71" points="29.381 15.174 29.388 17.673 27.879 18.545 27.872 16.046" class="color7bb1ff svgShape"></polygon>
    <polygon fill="#2ecc71" points="29.39 18.248 29.397 20.747 27.887 21.619 27.88 19.12" class="color7bb1ff svgShape"></polygon>
    <polygon fill="#2ecc71" points="27.203 22.589 27.21 25.088 25.704 25.958 25.696 23.459" class="color7bb1ff svgShape"></polygon>
    <polygon fill="#2ecc71" points="31.591 20.056 31.598 22.555 30.092 23.425 30.085 20.926" class="color7bb1ff svgShape"></polygon>
    <g fill="#000000" class="color000000 svgShape">
      <polygon fill="#91febf" points="22.606 19.948 22.609 21.129 13.917 26.148 13.913 24.967" class="colorfe91ab svgShape"></polygon>
      <polygon fill="#91febf" points="22.606 22.776 22.609 23.957 13.917 28.976 13.913 27.795" class="colorfe91ab svgShape"></polygon>
      <polygon fill="#e3f0e8" points="22.606 25.604 22.609 26.785 13.917 31.804 13.913 30.623" class="colore3e7f0 svgShape"></polygon>
      <polygon fill="#e3f0e8" points="18.552 30.772 18.556 31.953 13.917 34.632 13.913 33.451" class="colore3e7f0 svgShape"></polygon>
    </g>
  </g>
</svg>
