<?xml version="1.0" encoding="utf-8" standalone="yes"?>
<!DOCTYPE svg PUBLIC "-//W3C//DTD SVG 1.1//EN" "http://www.w3.org/Graphics/SVG/1.1/DTD/svg11.dtd">
<svg width="722" height="662" viewBox="0 0 722 662" style="fill:none;stroke:none;fill-rule:evenodd;clip-rule:evenodd;stroke-linecap:round;stroke-linejoin:round;stroke-miterlimit:1.5;" version="1.1" xmlns="http://www.w3.org/2000/svg" xmlns:xlink="http://www.w3.org/1999/xlink"><style id="fontImports">@import url("https://fonts.googleapis.com/css2?family=Roboto:wght@400;700&amp;display=block");</style><g id="items" style="isolation: isolate"><g id="blend" style="mix-blend-mode: normal"><g id="g-root-5.cu_sy_mg2n8a1ip2fwm-fill" data-item-order="-110246" transform="translate(169, 167)"><g id="5.cu_sy_mg2n8a1ip2fwm-fill" stroke="none" fill="#f4ffdc"><g><path d="M 180.239 10L 10 133.686L 94.6439 161.188L 180.239 99L 180.239 10Z"></path></g></g></g><g id="g-root-4.cu_sy_dl242i1ip2djj-fill" data-item-order="-110242" transform="translate(169, 290.68994140625)"><g id="4.cu_sy_dl242i1ip2djj-fill" stroke="none" fill="#faf0ff"><g><path d="M 10 10L 75.0256 210.128L 127.338 138.126L 94.6439 37.5025L 10 10Z"></path></g></g></g><g id="g-root-3.cu_sy_i0vm6y1ip2dj4-fill" data-item-order="-110238" transform="translate(234.02999877929688, 418.81005859375)"><g id="3.cu_sy_i0vm6y1ip2dj4-fill" stroke="none" fill="#e8f9ff"><g><path d="M 10 82.0025L 220.427 82.0025L 168.114 10L 62.3128 10L 10 82.0025Z"></path></g></g></g><g id="g-root-2.cu_sy_958ly21ip2ebt-fill" data-item-order="-110234" transform="translate(392.1400146484375, 290.68994140625)"><g id="2.cu_sy_958ly21ip2ebt-fill" stroke="none" fill="#fff2e5"><g><path d="M 62.313 210.128L 127.339 10L 42.6944 37.5025L 10 138.126L 62.313 210.128Z"></path></g></g></g><g id="g-root-1.cu_sy_958ly21ip2ebu-fill" data-item-order="-110230" transform="translate(339.239990234375, 167)"><g id="1.cu_sy_958ly21ip2ebu-fill" stroke="none" fill="#e3fff2"><g><path d="M 180.239 133.686L 10.0001 10L 10 99L 95.5951 161.188L 180.239 133.686Z"></path></g></g></g><g id="g-root-tx_tailored_4ijz161ipgf0k-fill" data-item-order="0" transform="translate(447, 135)"><g id="tx_tailored_4ijz161ipgf0k-fill" stroke="none" fill="#484848"><g><text style="font: 15px Roboto, sans-serif; white-space: pre;" font-size="15px" font-family="Roboto, sans-serif"><tspan x="12" y="31" dominant-baseline="ideographic">Tailored solutions for </tspan><tspan x="12" y="49" dominant-baseline="ideographic">the food industry's </tspan><tspan x="12" y="67" dominant-baseline="ideographic">international trade.</tspan></text></g></g></g><g id="g-root-chec_humyhm1ip3t35-fill" data-item-order="0" transform="translate(249, 237)"></g><g id="g-root-truc_1urrs4a1ipc83k-fill" data-item-order="0" transform="translate(382, 237)"></g><g id="g-root-tx_centrali_v4uioq1ipgf0g-fill" data-item-order="0" transform="translate(75, 135)"><g id="tx_centrali_v4uioq1ipgf0g-fill" stroke="none" fill="#484848"><g><text style="font: 15px Roboto, sans-serif; white-space: pre;" font-size="15px" font-family="Roboto, sans-serif"><tspan x="12.55" y="28" dominant-baseline="ideographic">Centralized storage for </tspan><tspan x="14.22" y="46" dominant-baseline="ideographic">regulatory documents.</tspan></text></g></g></g><g id="g-root-tx_crossbor_18hjz8a1ipgflt-fill" data-item-order="0" transform="translate(447, 75)"><g id="tx_crossbor_18hjz8a1ipgflt-fill" stroke="none" fill="#484848"><g><text style="font: bold 20px Roboto, sans-serif; white-space: pre;" font-weight="bold" font-size="20px" font-family="Roboto, sans-serif"><tspan x="12" y="34" dominant-baseline="ideographic">Cross-Border </tspan><tspan x="12" y="58" dominant-baseline="ideographic">Design</tspan></text></g></g></g><g id="g-root-tx_automate_1uo10re1ipgfm5-fill" data-item-order="0" transform="translate(39, 309)"><g id="tx_automate_1uo10re1ipgfm5-fill" stroke="none" fill="#484848"><g><text style="font: bold 20px Roboto, sans-serif; white-space: pre;" font-weight="bold" font-size="20px" font-family="Roboto, sans-serif"><tspan x="28.8" y="34" dominant-baseline="ideographic">Automated </tspan><tspan x="12.33" y="58" dominant-baseline="ideographic">Notifications</tspan></text></g></g></g><g id="g-root-home_1cuvo621ip2e4v-fill" data-item-order="0" transform="translate(303, 309)"></g><g id="g-root-tx_dynamicp_1hckie21ipgh73-fill" data-item-order="0" transform="translate(519.0800170898438, 333)"><g id="tx_dynamicp_1hckie21ipgh73-fill" stroke="none" fill="#484848"><g><text style="font: bold 20px Roboto, sans-serif; white-space: pre;" font-weight="bold" font-size="20px" font-family="Roboto, sans-serif"><tspan x="12" y="34" dominant-baseline="ideographic">Dynamic Pricing</tspan></text></g></g></g><g id="g-root-tx_systemat_hte0be1ipggld-fill" data-item-order="0" transform="translate(15, 369)"><g id="tx_systemat_hte0be1ipggld-fill" stroke="none" fill="#484848"><g><text style="font: 15px Roboto, sans-serif; white-space: pre;" font-size="15px" font-family="Roboto, sans-serif"><tspan x="13.63" y="28" dominant-baseline="ideographic">Systematic alerts for </tspan><tspan x="22.28" y="46" dominant-baseline="ideographic">offers and updates.</tspan></text></g></g></g><g id="g-root-1_qsrv2y1ip81l3-fill" data-item-order="0" transform="translate(213, 357)"></g><g id="g-root-tx_adigital_hte0be1ipggle-fill" data-item-order="0" transform="translate(261, 567)"><g id="tx_adigital_hte0be1ipggle-fill" stroke="none" fill="#484848"><g><text style="font: 15px Roboto, sans-serif; white-space: pre;" font-size="15px" font-family="Roboto, sans-serif"><tspan x="19.14" y="28" dominant-baseline="ideographic">A digital platform for </tspan><tspan x="14.66" y="46" dominant-baseline="ideographic">showcasing products.</tspan></text></g></g></g><g id="g-root-tx_adapting_8xr02i1ipghe3-fill" data-item-order="0" transform="translate(519, 369)"><g id="tx_adapting_8xr02i1ipghe3-fill" stroke="none" fill="#484848"><g><text style="font: 15px Roboto, sans-serif; white-space: pre;" font-size="15px" font-family="Roboto, sans-serif"><tspan x="12" y="31" dominant-baseline="ideographic">Adapting prices based </tspan><tspan x="12" y="49" dominant-baseline="ideographic">on real-time market </tspan><tspan x="12" y="67" dominant-baseline="ideographic">demand.</tspan></text></g></g></g><g id="g-root-tx_complian_1cxdhcq1ipgetk-fill" data-item-order="0" transform="translate(99, 75)"><g id="tx_complian_1cxdhcq1ipgetk-fill" stroke="none" fill="#484848"><g><text style="font: bold 20px Roboto, sans-serif; white-space: pre;" font-weight="bold" font-size="20px" font-family="Roboto, sans-serif"><tspan x="33.25" y="34" dominant-baseline="ideographic">Compliance </tspan><tspan x="21.52" y="58" dominant-baseline="ideographic">Management</tspan></text></g></g></g><g id="g-root-sale_1hfosnu1ipjax9-fill" data-item-order="0" transform="translate(315, 431)"></g><g id="g-root-tx_mobileap_1q87imy1ipggee-fill" data-item-order="0" transform="translate(279, 507)"><g id="tx_mobileap_1q87imy1ipggee-fill" stroke="none" fill="#484848"><g><text style="font: bold 20px Roboto, sans-serif; white-space: pre;" font-weight="bold" font-size="20px" font-family="Roboto, sans-serif"><tspan x="16.51" y="34" dominant-baseline="ideographic">Mobile App </tspan><tspan x="21.82" y="58" dominant-baseline="ideographic">Storefront</tspan></text></g></g></g><g id="g-root-tx_processe_4pf3tm1ip2f43-fill" data-item-order="0" transform="translate(249, 39)"><g id="tx_processe_4pf3tm1ip2f43-fill" stroke="none" fill="#484848"><g><text style="font: 20px Roboto, sans-serif; white-space: pre;" font-size="20px" font-family="Roboto, sans-serif"><tspan x="16.59" y="34" dominant-baseline="ideographic">ProSessed System</tspan></text></g></g></g><g id="g-root-doll_qp10ka1ipgf0v-fill" data-item-order="0" transform="translate(417, 357)"></g><g id="g-root-5.cu_sy_mg2n8a1ip2fwm-stroke" data-item-order="-110246" transform="translate(169, 167)"><g id="5.cu_sy_mg2n8a1ip2fwm-stroke" fill="none" stroke-linecap="round" stroke-linejoin="round" stroke-miterlimit="4" stroke="#92bd39" stroke-width="2"><g><path d="M 180.2391 10L 10 133.686L 94.6439 161.1885L 180.239 99L 180.2391 10Z"></path></g></g></g><g id="g-root-4.cu_sy_dl242i1ip2djj-stroke" data-item-order="-110242" transform="translate(169, 290.68994140625)"><g id="4.cu_sy_dl242i1ip2djj-stroke" fill="none" stroke-linecap="round" stroke-linejoin="round" stroke-miterlimit="4" stroke="#ba5de5" stroke-width="2"><g><path d="M 10 10L 75.0256 210.1281L 127.3383 138.1256L 94.6439 37.5025L 10 10Z"></path></g></g></g><g id="g-root-3.cu_sy_i0vm6y1ip2dj4-stroke" data-item-order="-110238" transform="translate(234.02999877929688, 418.81005859375)"><g id="3.cu_sy_i0vm6y1ip2dj4-stroke" fill="none" stroke-linecap="round" stroke-linejoin="round" stroke-miterlimit="4" stroke="#1eabda" stroke-width="2"><g><path d="M 10 82.0025L 220.4271 82.0025L 168.1141 10L 62.3128 10L 10 82.0025Z"></path></g></g></g><g id="g-root-2.cu_sy_958ly21ip2ebt-stroke" data-item-order="-110234" transform="translate(392.1400146484375, 290.68994140625)"><g id="2.cu_sy_958ly21ip2ebt-stroke" fill="none" stroke-linecap="round" stroke-linejoin="round" stroke-miterlimit="4" stroke="#de8431" stroke-width="2"><g><path d="M 127.3386 10L 62.313 210.1281L 10 138.1256L 42.6944 37.5025L 127.3386 10Z"></path></g></g></g><g id="g-root-1.cu_sy_958ly21ip2ebu-stroke" data-item-order="-110230" transform="translate(339.239990234375, 167)"><g id="1.cu_sy_958ly21ip2ebu-stroke" fill="none" stroke-linecap="round" stroke-linejoin="round" stroke-miterlimit="4" stroke="#3cc583" stroke-width="2"><g><path d="M 10.0001 10L 180.2393 133.686L 95.5951 161.1885L 10 99L 10.0001 10Z"></path></g></g></g><g id="g-root-tx_tailored_4ijz161ipgf0k-stroke" data-item-order="0" transform="translate(447, 135)"></g><g id="g-root-chec_humyhm1ip3t35-stroke" data-item-order="0" transform="translate(249, 237)"><g id="chec_humyhm1ip3t35-stroke" fill="none" stroke-linecap="round" stroke-linejoin="round" stroke-miterlimit="4" stroke="#92bd39" stroke-width="2"><g><path d="M 30 57L 13 57C 11.895431 57 11 56.104568 11 55L 11 17C 11 15.895431 11.895431 15 13 15L 17 15M 41 15L 45 15C 46.104568 15 47 15.895431 47 17L 47 29M 33 15C 33 12.790861 31.209139 11 29 11C 26.790861 11 25 12.790861 25 15L 21 15L 21 21L 37 21L 37 15ZM 43 29L 43 20C 43 19.447716 42.552284 19 42 19L 37 19M 21 19L 16 19C 15.447716 19 15 19.447716 15 20L 15 52C 15 52.552284 15.447716 53 16 53L 30 53M 21 26.997999L 37 26.997999M 21 32.998001L 33 32.998001M 21 38.998001L 29 38.998001M 33 44.998001C 33 51.62542 38.372581 56.998001 45 56.998001C 51.627419 56.998001 57 51.62542 57 44.998001C 57 38.370583 51.627419 32.998001 45 32.998001C 38.372581 32.998001 33 38.370583 33 44.998001ZM 50.348 41.510002L 44.537998 49.257999C 44.276993 49.605556 43.878059 49.822807 43.444496 49.8535C 43.010933 49.884197 42.585373 49.725319 42.278 49.417999L 39.278 46.417999"></path></g></g></g><g id="g-root-truc_1urrs4a1ipc83k-stroke" data-item-order="0" transform="translate(382, 237)"><g id="truc_1urrs4a1ipc83k-stroke" fill="none" stroke-linecap="round" stroke-linejoin="round" stroke-miterlimit="4" stroke="#3cc583" stroke-width="2"><g><path d="M 15 34L 27 34M 16 49C 16 51.209141 17.790861 53 20 53C 22.209139 53 24 51.209141 24 49C 24 46.790859 22.209139 45 20 45C 17.790861 45 16 46.790859 16 49M 44 49C 44 51.209141 45.790859 53 48 53C 50.209141 53 52 51.209141 52 49C 52 46.790859 50.209141 45 48 45C 45.790859 45 44 46.790859 44 49M 16 49L 12 49C 11.447716 49 11 48.552284 11 48L 11 38.414001C 11.000056 38.149296 11.105062 37.895409 11.292 37.708L 15 34L 19.428001 26.028C 19.78087 25.393444 20.449928 24.999969 21.175999 25L 27 25L 27 16C 27 15.447716 27.447716 15 28 15L 56 15C 56.552284 15 57 15.447716 57 16L 57 48C 57 48.552284 56.552284 49 56 49L 52 49M 24 49L 44 49M 27 25L 27 45M 11 45L 57 45M 31 27L 53 27L 49 21L 35 21L 31 27ZM 31 35L 53 35M 33 27L 51 27L 51 39L 33 39Z"></path></g></g></g><g id="g-root-tx_centrali_v4uioq1ipgf0g-stroke" data-item-order="0" transform="translate(75, 135)"></g><g id="g-root-tx_crossbor_18hjz8a1ipgflt-stroke" data-item-order="0" transform="translate(447, 75)"></g><g id="g-root-tx_automate_1uo10re1ipgfm5-stroke" data-item-order="0" transform="translate(39, 309)"></g><g id="g-root-home_1cuvo621ip2e4v-stroke" data-item-order="0" transform="translate(303, 309)"><g id="home_1cuvo621ip2e4v-stroke" fill="none" stroke-linecap="round" stroke-linejoin="round" stroke-miterlimit="4" stroke="#484848" stroke-width="2"><g><path d="M 38.650002 62.5L 35.5 62.5C 32.186291 62.5 29.5 65.186287 29.5 68.5L 29.5 74.5L 68.5 74.5L 68.5 68.5C 68.5 65.186287 65.813713 62.5 62.5 62.5L 53.349998 62.5M 38.5 61C 38.5 65.142136 41.857864 68.5 46 68.5C 50.142136 68.5 53.5 65.142136 53.5 61C 53.5 56.857864 50.142136 53.5 46 53.5C 41.857864 53.5 38.5 56.857864 38.5 61M 41.5 26.5L 41.5 41.5L 55 34L 41.5 26.5ZM 62.5 29.5L 62.5 47.5L 29.5 47.5L 29.5 29.5M 23.5 28L 46 11.5L 68.5 28M 32.5 74.5L 32.5 80.5M 65.5 74.5L 65.5 80.5M 41.5 26.5L 41.5 41.5L 55 34L 41.5 26.5ZM 46 60.25C 46.414215 60.25 46.75 60.585785 46.75 61C 46.75 61.414215 46.414215 61.75 46 61.75C 45.585785 61.75 45.25 61.414215 45.25 61C 45.25 60.585785 45.585785 60.25 46 60.25M 62.5 29.5L 62.5 47.5L 29.5 47.5L 29.5 29.5M 23.5 28L 46 11.5L 68.5 28"></path></g></g></g><g id="g-root-tx_dynamicp_1hckie21ipgh73-stroke" data-item-order="0" transform="translate(519.0800170898438, 333)"></g><g id="g-root-tx_systemat_hte0be1ipggld-stroke" data-item-order="0" transform="translate(15, 369)"></g><g id="g-root-1_qsrv2y1ip81l3-stroke" data-item-order="0" transform="translate(213, 357)"><g id="1_qsrv2y1ip81l3-stroke" fill="none" stroke-linecap="round" stroke-linejoin="round" stroke-miterlimit="4" stroke="#ba5de5" stroke-width="2"><g><path d="M 29.200001 25.448C 25.589127 24.436092 21.712719 25.17485 18.727125 27.443901C 15.741531 29.712954 13.991843 33.250031 14 37L 14 48C 14 49.656857 12.656855 51 11 51L 41 51C 39.343147 51 38 49.656857 38 48L 38 37.372002M 28.83 55C 28.406694 56.199478 27.272982 57.001625 26.001001 57.001625C 24.729019 57.001625 23.595306 56.199478 23.172001 55M 26 21.001999L 26 25.001999M 33 23.004C 33 29.631418 38.372581 35.003998 45 35.003998C 51.627419 35.003998 57 29.631418 57 23.004002C 57 16.376583 51.627419 11.004001 45 11.004001C 38.372581 11.004001 33 16.376583 33 23.004002ZM 49 23.004L 45 23.004L 45 17.004"></path></g></g></g><g id="g-root-tx_adigital_hte0be1ipggle-stroke" data-item-order="0" transform="translate(261, 567)"></g><g id="g-root-tx_adapting_8xr02i1ipghe3-stroke" data-item-order="0" transform="translate(519, 369)"></g><g id="g-root-tx_complian_1cxdhcq1ipgetk-stroke" data-item-order="0" transform="translate(99, 75)"></g><g id="g-root-sale_1hfosnu1ipjax9-stroke" data-item-order="0" transform="translate(315, 431)"><g id="sale_1hfosnu1ipjax9-stroke" fill="none" stroke-linecap="round" stroke-linejoin="round" stroke-miterlimit="4" stroke="#1eabda" stroke-width="2"><g><path d="M 44.054001 18.844L 44.054001 23.844M 43.57 27.940001C 43.57 28.216143 43.793858 28.440001 44.07 28.440001C 44.346142 28.440001 44.57 28.216143 44.57 27.940001C 44.57 27.663858 44.346142 27.440001 44.07 27.440001C 43.793858 27.440001 43.57 27.663858 43.57 27.940001M 47.622002 15.63L 53.341999 14.91L 52.492001 20.612L 57.043999 24.146L 52.411999 27.576L 53.132 33.295998L 47.43 32.445999L 43.896 36.998001L 40.466 32.365997L 34.746002 33.085999L 35.596001 27.384001L 31.044001 23.85L 35.676003 20.42L 34.956001 14.7L 40.658001 15.55L 44.192001 10.998L 47.622002 15.63ZM 36.956001 49.001999L 10.956 49.001999M 23.956001 52.501999L 23.956001 52.501999C 24.232143 52.501999 24.456001 52.725857 24.456001 53.001999L 24.456001 53.001999C 24.456001 53.278141 24.232143 53.501999 23.956001 53.501999L 23.956001 53.501999C 23.679857 53.501999 23.456001 53.278141 23.456001 53.001999L 23.456001 53.001999C 23.456001 52.725857 23.679857 52.501999 23.956001 52.501999M 36.956001 38L 36.956001 53C 36.956001 55.209141 35.165138 57 32.956001 57L 14.955999 57C 12.746861 57 10.956 55.209141 10.956 53L 10.956 15C 10.956 12.790861 12.746861 11 14.955999 11L 30.955999 11"></path></g></g></g><g id="g-root-tx_mobileap_1q87imy1ipggee-stroke" data-item-order="0" transform="translate(279, 507)"></g><g id="g-root-tx_processe_4pf3tm1ip2f43-stroke" data-item-order="0" transform="translate(249, 39)"></g><g id="g-root-doll_qp10ka1ipgf0v-stroke" data-item-order="0" transform="translate(417, 357)"><g id="doll_qp10ka1ipgf0v-stroke" fill="none" stroke-linecap="round" stroke-linejoin="round" stroke-miterlimit="4" stroke="#de8431" stroke-width="2"><g><path d="M 45 20C 45 21.656855 46.343147 23 48 23C 49.656857 23 51 21.656855 51 20C 51 18.343147 49.656857 17 48 17C 46.343147 17 45 18.343147 45 20ZM 38.514 35.141998L 34.543999 31.172001C 34.123344 30.677763 33.507015 30.392992 32.858002 30.392992C 32.208984 30.392992 31.592655 30.677763 31.171999 31.171999C 29.322001 33.02 33.571999 40.091999 31.716 41.940002C 31.274523 42.39846 30.665466 42.657501 30.028999 42.657501C 29.392532 42.657501 28.783478 42.39846 28.341999 41.939999L 24.372 37.970001M 35.686001 32.313999L 37.807999 30.191999M 25.08 42.919998L 27.202 40.798M 11.708 35.292C 11.254648 35.744797 10.999911 36.359253 10.999911 37C 10.999911 37.640743 11.254648 38.255203 11.708 38.708L 29.292 56.292C 29.744797 56.74535 30.359255 57.000088 31 57.000088C 31.640743 57.000088 32.255203 56.74535 32.708 56.292L 55.585999 33.414001C 56.491413 32.508537 57.000046 31.280483 57 30L 57 13C 57 11.895431 56.104568 11 55 11L 38 11C 36.719517 10.999953 35.491463 11.508585 34.585999 12.414Z"></path></g></g></g></g></g></svg>