<?xml version="1.0" encoding="utf-8" standalone="yes"?>
<!DOCTYPE svg PUBLIC "-//W3C//DTD SVG 1.1//EN" "http://www.w3.org/Graphics/SVG/1.1/DTD/svg11.dtd">
<svg width="758" height="593" viewBox="0 0 758 593" style="fill:none;stroke:none;fill-rule:evenodd;clip-rule:evenodd;stroke-linecap:round;stroke-linejoin:round;stroke-miterlimit:1.5;" version="1.1" xmlns="http://www.w3.org/2000/svg" xmlns:xlink="http://www.w3.org/1999/xlink"><style id="fontImports">@import url("https://fonts.googleapis.com/css2?family=Roboto:wght@400;700&amp;display=block");</style><g id="items" style="isolation: isolate"><g id="blend" style="mix-blend-mode: normal"><g id="g-root-3.cu_sy_1qaq4dl1l71jpr-fill" data-item-order="-101819" transform="translate(204, 54)"><g id="3.cu_sy_1qaq4dl1l71jpr-fill" stroke="none" fill="#f4ffdc"><g><path d="M 19.026385 43.656185C 0.444785 75.840485 11.471885 116.993985 43.656185 135.575985L 91.950485 163.458985L 91.950485 107.958885L 67.688385 93.951185C 58.492785 88.642085 55.342185 76.883885 60.651285 67.688385C 65.960285 58.492785 77.718485 55.342185 86.914085 60.651285L 111.194985 74.669985L 111.179985 74.696685L 197.636985 124.612985L 245.700985 96.862985L 135.905985 33.472385L 135.920985 33.445585L 110.945985 19.026385C 78.761885 0.444785 37.607985 11.471885 19.026385 43.656185Z"></path></g></g></g><g id="g-root-2.cu_sy_1luwm951l71ki0-fill" data-item-order="-101815" transform="translate(295.32000732421875, 124.0899658203125)"><g id="2.cu_sy_1luwm951l71ki0-fill" stroke="none" fill="#e3fff2"><g><path d="M 77.29 232.91C 114.453 232.91 144.58 202.783 144.58 165.62L 144.58 109.8543L 96.5157 137.604L 96.5157 165.62C 96.5157 176.238 87.908 184.845 77.29 184.845C 66.6719 184.845 58.0643 176.238 58.0643 165.62L 58.0643 137.582L 58.0951 137.582L 58.0952 37.7499L 10.0309 10L 10.0309 136.781L 10 136.781L 10.000005 165.62C 10.00001 202.783 40.1268 232.91 77.29 232.91Z"></path></g></g></g><g id="g-root-1.cu_sy_1luwm951l71ki1-fill" data-item-order="-101811" transform="translate(353, 54)"><g id="1.cu_sy_1luwm951l71ki1-fill" stroke="none" fill="#e8f9ff"><g><path d="M 169.416 43.656185C 150.834 11.471885 109.6804 0.444785 77.4961 19.026385L 29.2018 46.909085L 77.2661 74.658985L 101.5283 60.651285C 110.724 55.342185 122.482 58.492785 127.791 67.688385C 133.1 76.883885 129.95 88.642085 120.754 93.951085L 96.4728 107.969885L 96.4574 107.943185L 10.000002 157.858985L 10 213.358985L 119.796 149.968985L 119.811 149.994985L 144.786 135.575985C 176.97 116.993985 187.998 75.840485 169.416 43.656185Z"></path></g></g></g><g id="g-root-tx_smartsel_hxs1bd1l71ixa-fill" data-item-order="0" transform="translate(39, 78)"><g id="tx_smartsel_hxs1bd1l71ixa-fill" stroke="none" fill="#92bd39"><g><text style="font: bold 20px Roboto, sans-serif; white-space: pre;" font-weight="bold" font-size="20px" font-family="Roboto, sans-serif"><tspan x="18.52" y="34" dominant-baseline="ideographic">Smart Selling</tspan></text></g></g></g><g id="g-root-tx_reporder_dhyj6x1l71jpk-fill" data-item-order="0" transform="translate(555, 78)"><g id="tx_reporder_dhyj6x1l71jpk-fill" stroke="none" fill="#1eabda"><g><text style="font: bold 20px Roboto, sans-serif; white-space: pre;" font-weight="bold" font-size="20px" font-family="Roboto, sans-serif"><tspan x="12" y="34" dominant-baseline="ideographic">Rep Ordering App</tspan></text></g></g></g><g id="g-root-tx_strategi_14492uh1l71jpf-fill" data-item-order="0" transform="translate(15, 102)"><g id="tx_strategi_14492uh1l71jpf-fill" stroke="none" fill="#484848"><g><text style="font: 20px Roboto, sans-serif; white-space: pre;" font-size="20px" font-family="Roboto, sans-serif"><tspan x="36.08" y="34" dominant-baseline="ideographic">Strategies and </tspan><tspan x="15.64" y="58" dominant-baseline="ideographic">tools that enable </tspan><tspan x="33.55" y="82" dominant-baseline="ideographic">sales teams to </tspan><tspan x="82.31" y="106" dominant-baseline="ideographic">sell more </tspan><tspan x="68.61" y="130" dominant-baseline="ideographic">effectively.</tspan></text></g></g></g><g id="g-root-tx_anappdes_qsskh51l71lad-fill" data-item-order="0" transform="translate(555, 102)"><g id="tx_anappdes_qsskh51l71lad-fill" stroke="none" fill="#484848"><g><text style="font: 20px Roboto, sans-serif; white-space: pre;" font-size="20px" font-family="Roboto, sans-serif"><tspan x="12" y="34" dominant-baseline="ideographic">An app designed </tspan><tspan x="12" y="58" dominant-baseline="ideographic">to streamline the </tspan><tspan x="12" y="82" dominant-baseline="ideographic">ordering process </tspan><tspan x="12" y="106" dominant-baseline="ideographic">for sales </tspan><tspan x="12" y="130" dominant-baseline="ideographic">representatives.</tspan></text></g></g></g><g id="g-root-tx_dealclos_dhyj6x1l71jpj-fill" data-item-order="0" transform="translate(303, 402)"><g id="tx_dealclos_dhyj6x1l71jpj-fill" stroke="none" fill="#3cc583"><g><text style="font: bold 20px Roboto, sans-serif; white-space: pre;" font-weight="bold" font-size="20px" font-family="Roboto, sans-serif"><tspan x="13.05" y="34" dominant-baseline="ideographic">Deal Closure</tspan></text></g></g></g><g id="g-root-tx_theproce_v8m2ll1l71ki4-fill" data-item-order="0" transform="translate(279, 438)"><g id="tx_theproce_v8m2ll1l71ki4-fill" stroke="none" fill="#484848"><g><text style="font: 20px Roboto, sans-serif; white-space: pre;" font-size="20px" font-family="Roboto, sans-serif"><tspan x="26.34" y="34" dominant-baseline="ideographic">The process of </tspan><tspan x="16.87" y="58" dominant-baseline="ideographic">completing sales </tspan><tspan x="11.82" y="82" dominant-baseline="ideographic">transactions more </tspan><tspan x="59.48" y="106" dominant-baseline="ideographic">quickly.</tspan></text></g></g></g><g id="g-root-3.cu_sy_1qaq4dl1l71jpr-stroke" data-item-order="-101819" transform="translate(204, 54)"><g id="3.cu_sy_1qaq4dl1l71jpr-stroke" fill="none" stroke-linecap="round" stroke-linejoin="round" stroke-miterlimit="4" stroke="#92bd39" stroke-width="2"><g><path d="M 19.026385 43.656185C 0.444785 75.840485 11.471885 116.994385 43.656185 135.575985L 91.950485 163.458685L 91.950485 107.958885L 67.688385 93.951185C 58.492785 88.642085 55.342185 76.883885 60.651285 67.688385C 65.960285 58.492785 77.718485 55.342185 86.914085 60.651285L 111.195185 74.669985L 111.179785 74.696685L 197.637085 124.612885L 245.701385 96.862985L 135.905685 33.472385L 135.921085 33.445585L 110.946185 19.026385C 78.761885 0.444785 37.607985 11.471885 19.026385 43.656185Z"></path></g></g></g><g id="g-root-2.cu_sy_1luwm951l71ki0-stroke" data-item-order="-101815" transform="translate(295.32000732421875, 124.0899658203125)"><g id="2.cu_sy_1luwm951l71ki0-stroke" fill="none" stroke-linecap="round" stroke-linejoin="round" stroke-miterlimit="4" stroke="#3cc583" stroke-width="2"><g><path d="M 77.29 232.9097C 114.4532 232.9097 144.5799 202.783 144.5799 165.6198L 144.5799 109.8543L 96.5157 137.6042L 96.5157 165.6198C 96.5157 176.2378 87.908 184.8455 77.29 184.8455C 66.6719 184.8455 58.0643 176.2378 58.0643 165.6198L 58.0643 137.5823L 58.0951 137.5823L 58.0952 37.7499L 10.0309 10L 10.0309 136.7812L 10 136.7812L 10 165.6198C 10 202.783 40.1268 232.9097 77.29 232.9097Z"></path></g></g></g><g id="g-root-1.cu_sy_1luwm951l71ki1-stroke" data-item-order="-101811" transform="translate(353, 54)"><g id="1.cu_sy_1luwm951l71ki1-stroke" fill="none" stroke-linecap="round" stroke-linejoin="round" stroke-miterlimit="4" stroke="#1eabda" stroke-width="2"><g><path d="M 169.416 43.656185C 150.8344 11.471885 109.6804 0.444785 77.4961 19.026385L 29.2018 46.909085L 77.2661 74.658985L 101.5283 60.651285C 110.7238 55.342185 122.482 58.492785 127.7911 67.688385C 133.1001 76.883885 129.9495 88.642085 120.754 93.951085L 96.4728 107.969885L 96.4574 107.943185L 10 157.859285L 10 213.359085L 119.7958 149.968585L 119.8112 149.995285L 144.7861 135.575985C 176.9704 116.994385 187.9976 75.840485 169.416 43.656185Z"></path></g></g></g><g id="g-root-tx_smartsel_hxs1bd1l71ixa-stroke" data-item-order="0" transform="translate(39, 78)"></g><g id="g-root-tx_reporder_dhyj6x1l71jpk-stroke" data-item-order="0" transform="translate(555, 78)"></g><g id="g-root-tx_strategi_14492uh1l71jpf-stroke" data-item-order="0" transform="translate(15, 102)"></g><g id="g-root-tx_anappdes_qsskh51l71lad-stroke" data-item-order="0" transform="translate(555, 102)"></g><g id="g-root-tx_dealclos_dhyj6x1l71jpj-stroke" data-item-order="0" transform="translate(303, 402)"></g><g id="g-root-tx_theproce_v8m2ll1l71ki4-stroke" data-item-order="0" transform="translate(279, 438)"></g></g></g></svg>