<svg xmlns="http://www.w3.org/2000/svg" fill="none" viewBox="0 0 24 24" id="Unlock">
  <path fill="#2ecc71" fill-rule="evenodd" d="M4 12C4 10.8954 4.89543 10 6 10H18C19.1046 10 20 10.8954 20 12V20C20 21.1046 19.1046 22 18 22H6C4.89543 22 4 21.1046 4 20V12ZM13 16.7324C13.5978 16.3866 14 15.7403 14 15C14 13.8954 13.1046 13 12 13C10.8954 13 10 13.8954 10 15C10 15.7403 10.4022 16.3866 11 16.7324V18C11 18.5523 11.4477 19 12 19C12.5523 19 13 18.5523 13 18V16.7324Z" clip-rule="evenodd" class="color7997c2 svgShape"></path>
  <path fill="#004b87" d="M6 8C6 4.68629 8.68629 2 12 2C14.4597 2 16.5737 3.48012 17.5 5.59829L17.4967 5.59976C17.5503 5.72232 17.58 5.85769 17.58 6C17.58 6.55228 17.1323 7 16.58 7C16.1432 7 15.7718 6.71995 15.6356 6.32961C15.0028 4.95459 13.6129 4 12 4C9.79086 4 8 5.79086 8 8V10H6V8Z" class="colorb9cbe5 svgShape"></path>
</svg>
